M48
;Layer_Color=9474304
;FILE_FORMAT=2:5
INCH,LZ
;TYPE=PLATED
T1F00S00C0.01000
T2F00S00C0.01000
T4F00S00C0.03937
T5F00S00C0.04000
T6F00S00C0.04016
T7F00S00C0.05118
T8F00S00C0.05906
T9F00S00C0.06299
%
T01
X0165Y00625
Y00675
X01775
Y00625
X01885Y00565
X01875Y0075
X01925Y00825
X0276Y00545
X0283
X02795Y00505
X0283Y00465
X0276
X0173Y0089
X017Y0091024
X0167Y0089
X01625Y01045
Y01075
X0181Y0118
X01855
X00975Y0295
X0085
Y035
Y0355
Y036
X0065
Y0355
Y035
X011Y0298
Y02925
X012
Y0298
X01275Y0299
Y02925
X0135
Y0299
X032Y035
Y0355
Y036
X034
Y0355
Y035
T02
X001Y00272
X00225Y00522
X00475
X006Y00345
X006385Y0011713
X0085Y00272
X009Y00522
X00975
X0095Y00622
X0085
Y00772
Y00822
X0095
X01Y00722
X009
X008
X006Y00772
X0035
X001
X011
Y00722
X0115Y00622
X0125
X0135
X013Y00522
X012
X0105Y00622
Y00822
X0152618Y0066882
X01475Y00522
X01725
X0188Y00505
X0185Y00772
X0235
X024Y0051
X02475Y00522
X024Y0034416
X0235Y00272
X0229557Y0038162
X02275Y004
X02545Y0033
X0201063Y0026386
X0199Y0028
X016Y00272
X01625Y00225
X026Y00272
X0265022Y0035736
X0267236Y0040264
X02665Y00525
X026Y00772
X031
X0335
X03225Y00522
X02975
X031Y00272
X0335
X036
X03725Y00522
X0285Y00272
Y01272
X026
Y01772
X027Y02015
X026Y02272
X0285
X03235Y0235
X03385
X0354Y02225
X036Y02272
X03725Y02022
X03565Y01685
X035
X0345
X0337Y0165
X03475Y01522
X03525Y0149001
X0358119Y0160027
X036Y01272
X03725Y01022
X03345Y0099
X0331323Y0141791
X0323Y015
X0320441Y0147441
X03175Y019
X02475Y02022
X02225
X01975
X021Y02272
X0185
X016
X0135
X011
X01225Y02022
X01475
X016Y01772
X01605Y01575
X0151
X01225Y01522
X0135Y01772
X011
Y01272
X0135
X01385Y01125
X0155716Y0121784
X01665Y01125
X017Y00875
X0185Y01272
X021
X0235
X0251Y0121
X0256Y0158
X0246
X02225Y01522
X01975
X021Y01772
X0235
X0185
X0105Y01022
X011Y00922
X01
X009
X008
X0085Y01022
X0095
X0085Y01272
X006
X0035
X001
X00225Y01522
X00475
X00725
X00975
X0085Y01772
X006
X0035
X001
X00225Y02022
X00475
X00725
X00975
X0085Y02272
X006
X0035
X001
X00225Y01022
X00475
Y02522
X00725
X007Y0273
X006Y02772
X0035
X001
X00225Y03022
X00475
X00605Y0305
X006Y03272
X0035
X001
X00225Y03522
X00475
X006Y03772
X0085
X00975Y03522
X001Y03772
X00225Y02522
X01225
X01475
X01725
X01975
X02225
X02475
X0235Y02772
X021
X0185
X016
X01725Y03022
X01742Y0310005
X01755Y03265
X0185
X01975
X021Y0326
X0212Y03445
X02225Y03522
X0227323Y0359823
X0236772Y0359772
X0235Y03772
X021
X0205276Y0359724
X0195827Y0359819
X0192677Y0359823
X0183087Y035987
X0180028
X017063
X0145531Y0361684
X0135Y03772
X016
X0185
X0161Y03265
X01475Y03022
X01975
X02225
X02475
X02435Y03265
X01225Y03522
X011Y03772
X026
X02605Y03605
X02725Y03522
X02975
X031Y03772
X0285
Y03272
X031
X0335
X036
X0377Y03225
X03765Y02975
X03475Y03022
X0342Y02785
X0335Y02772
X03525Y02775
X036Y02772
X03725Y02522
X03375Y0255
X03225Y02522
X02725
X0285Y02772
X026
X02725Y03022
X026Y03272
X03475Y03522
X03725
X036Y03772
T04
X0295512Y0121968
Y0131968
Y0141969
Y0151969
Y0161969
Y0171968
Y0181968
Y0191969
Y0207968
Y0217969
Y0227969
Y0237968
X0105512Y0231968
Y0221969
Y0211968
Y0201969
Y0191969
Y0171968
Y0161969
Y0151969
Y0141969
Y0131968
Y0121968
Y0241968
Y0251969
Y0261968
X0295512Y0257968
Y0267969
Y0277969
Y0287968
Y0297969
Y0247969
T05
X00825Y005
X01025
X014Y00575
Y00125
X0245Y00275
Y00575
X03275Y008
Y00925
X00925Y0222
Y0233
Y0252
X009Y028
X012Y0325
X03425Y03225
Y02975
T06
X02975Y00825
X03125
X0345
Y00725
Y00625
Y00525
Y00925
Y01025
X03425Y01175
X03525
Y01325
X03425
X038
Y01425
Y01225
X03125Y00925
X02975
X00925Y018
Y019
X00875Y0325
X00975
X03325Y0265
X03425
T07
X0082657Y002
X0102342
X038Y0055315
Y0075
Y0094685
Y0187815
Y02075
Y0227185
T08
X0075Y038
X033
T09
X0065Y037
X0085
Y039
X0065
X032
X034
Y037
X032
M30
