M48
;Layer_Color=9474304
;FILE_FORMAT=2:5
INCH,LZ
;TYPE=NON_PLATED
T10F00S00C0.02559
T11F00S00C0.04134
T12F00S00C0.04400
T13F00S00C0.06102
T14F00S00C0.06400
T15F00S00C0.15000
%
T10
X0247677Y0027902
X0270433
X0706732
X0729488
Y0486957
X0706732
X0270433
X0247677
T11
X0673826Y013794
X0214771
Y0596995
X0673826
T12
X0212756Y0335142
X0671811
Y0794197
X0212756
T13
X0769102Y013794
X0310047
Y0596995
X0769102
T14
X0311181Y0335142
X0770236
Y0794197
X0311181
T15
X0084055Y0025
X0434055
X054311
X089311
X0084055Y0375
X0434055
X054311
X089311
Y0484055
X054311
X0434055
X0084055
X089311Y0834055
X054311
X0434055
X0084055
M30
