M48
;Layer_Color=9474304
;FILE_FORMAT=2:5
INCH,LZ
;TYPE=PLATED
T3F00S00C0.02362
%
G90
G05
T03
G00X0242047Y0011839
M15
G01Y0014988
M16
G00X0242047Y0027705
M15
G01Y0032035
M16
G00X0276063Y0027705
M15
G01Y0032035
M16
G00X0276063Y0011839
M15
G01Y0014988
M16
G00X0701102Y0011839
M15
G01Y0014988
M16
G00X0701102Y0027705
M15
G01Y0032035
M16
G00X0735118Y0027705
M15
G01Y0032035
M16
G00X0735118Y0011839
M15
G01Y0014988
M16
G00X0735118Y0470894
M15
G01Y0474043
M16
G00X0735118Y048676
M15
G01Y049109
M16
G00X0701102Y048676
M15
G01Y049109
M16
G00X0701102Y0470894
M15
G01Y0474043
M16
G00X0276063Y0470894
M15
G01Y0474043
M16
G00X0276063Y048676
M15
G01Y049109
M16
G00X0242047Y048676
M15
G01Y049109
M16
G00X0242047Y0470894
M15
G01Y0474043
M16
M17
M30
