M48
;Layer_Color=9474304
;FILE_FORMAT=2:5
INCH,LZ
;TYPE=PLATED
T1F00S00C0.01000
T2F00S00C0.01000
T4F00S00C0.03937
T5F00S00C0.04000
T6F00S00C0.04016
T7F00S00C0.05118
T8F00S00C0.05906
T9F00S00C0.06299
%
T01
X0224055Y00625
Y00675
X0236555
Y00625
X0247555Y00565
X0246555Y0075
X0335055Y00545
X0342055
X0338555Y00505
X0342055Y00465
X0335055
X068311Y00625
Y00675
X069561
Y00625
X070661Y00565
X070561Y0075
X079411Y00545
X080111
X079761Y00505
X080111Y00465
X079411
X071061Y00825
X069111Y0089
X068811Y0091024
X068511Y0089
X068061Y01045
Y01075
X069911Y0118
X070361
X0244555
X0240055
X0221555Y01075
Y01045
X0226055Y0089
X0229055Y0091024
X0232055Y0089
X0251555Y00825
X0194055Y02925
Y0299
X0186555
Y02925
X0179055
Y0298
X0169055
Y02925
X0156555Y0295
X0144055
Y035
Y0355
Y036
X0124055
Y0355
Y035
X0379055
Y0355
Y036
X0399055
Y0355
Y035
X058311
Y0355
Y036
X060311
Y0355
Y035
Y0295
X061561
X062811Y02925
Y0298
X063811
Y02925
X064561
Y0299
X065311
Y02925
X083811Y035
Y0355
Y036
X085811
Y0355
Y035
X080111Y0505555
X079411
X079761Y0509555
X079411Y0513555
X080111
X070661Y0515555
X069561Y0521555
Y0526555
X068311
Y0521555
X070561Y0534055
X071061Y0541555
X0342055Y0513555
X0335055
X0338555Y0509555
X0342055Y0505555
X0335055
X0247555Y0515555
X0236555Y0521555
Y0526555
X0224055
Y0521555
X0246555Y0534055
X0251555Y0541555
X0232055Y0548055
X0229055Y0550079
X0226055Y0548055
X0221555Y0563555
Y0566555
X0240055Y0577055
X0244555
X068061Y0566555
Y0563555
X068511Y0548055
X068811Y0550079
X069111Y0548055
X069911Y0577055
X070361
X083811Y0809055
Y0814055
Y0819055
X085811
Y0814055
Y0809055
X060311
Y0814055
Y0819055
Y0754055
X061561
X062811Y0751555
Y0757055
X063811
Y0751555
X064561
Y0758055
X065311
Y0751555
X058311Y0809055
Y0814055
Y0819055
X0399055
Y0814055
Y0809055
X0379055
Y0814055
Y0819055
X0144055
Y0814055
Y0809055
X0124055
Y0814055
Y0819055
X0144055Y0754055
X0156555
X0169055Y0751555
Y0757055
X0179055
Y0751555
X0186555
Y0758055
X0194055
Y0751555
T02
X0069055Y00272
X0081555Y00522
X0106555
X0119055Y00345
Y00772
X0094055
X0069055
X0144055
X0149055Y00722
X0159055
X0169055
Y00772
X0174055Y00622
X0184055
X0194055
X0189055Y00522
X0179055
X0156555
X0149055
X0154055Y00622
X0164055
X0144055
X0139055Y00722
X0144055Y00272
X0122906Y0011713
X0221555Y00225
X0219055Y00272
X0231555Y00522
X0247055Y00505
X0244055Y00772
X0211673Y0066882
X0206555Y00522
X0258055Y0028
X0260119Y0026386
X0294055Y00272
X0299055Y0034416
X0288612Y0038162
X0286555Y004
X0299055Y0051
X0306555Y00522
X0325555Y00525
X0326291Y0040264
X0324078Y0035736
X0313555Y0033
X0319055Y00272
X0344055
X0369055
X0394055
X0419055
X0431555Y00522
X0381555
X0356555
X0369055Y00772
X0394055
X0319055
X0294055
X052811
X055311
X057811
X056561Y00522
X054061
X052811Y00272
X057811Y00345
X0581961Y0011713
X060311Y00272
X060811Y00522
X061561
X061311Y00622
X062311
X063311
X064311
X065311
X064811Y00522
X063811
X066561
X0670728Y0066882
X069061Y00522
X070611Y00505
X070311Y00772
X071711Y0028
X0719174Y0026386
X067811Y00272
X068061Y00225
X062811Y00722
Y00772
X061811Y00722
X060811
X060311Y00772
X059811Y00722
X060311Y00622
X074561Y004
X0747667Y0038162
X075811Y0034416
X075311Y00272
X077811
X077261Y0033
X0783133Y0035736
X0785347Y0040264
X078461Y00525
X076561Y00522
X075811Y0051
X075311Y00772
X077811
X082811
X085311
X084061Y00522
X081561
X082811Y00272
X085311
X087811
X089061Y00522
X080311Y00272
Y01272
X077811
X076911Y0121
X075311Y01272
X076411Y0158
X077411
X077811Y01772
X075311
X076561Y02022
X078811Y02015
X077811Y02272
X080311
X083561Y019
X085511Y0165
X086311Y01685
X086811
X087461
X0876229Y0160027
X087061Y0149001
X086561Y01522
X0849433Y0141791
X084111Y015
X0838551Y0147441
X087811Y01272
X089061Y01022
X085261Y0099
X089061Y02022
X087811Y02272
X087211Y02225
X072811Y02272
X070311
X067811
X065311
X062811
X060311
X061561Y02022
X064061
X066561
X067811Y01772
X067861Y01575
X066911
X064061Y01522
X061561
X059061
X060311Y01772
X062811
X065311
X070311
X072811
X074061Y02022
X071561
Y01522
X074061
X072811Y01272
X070311
X068461Y01125
X0673826Y0121784
X065311Y01272
X065661Y01125
X062811Y01272
X060311
Y01022
X061311
X062311
X062811Y00922
X061811
X060811
X059811
X060311Y00822
X061311
X062311
X068811Y00875
X059061Y02022
X056561
X054061
X055311Y02272
X057811
Y01772
X055311
X052811
X054061Y01522
X056561
X057811Y01272
X055311
X052811
X054061Y01022
X056561
X052811Y02272
X0419055
X0413055Y02225
X0431555Y02022
X0415555Y01685
X0409055
X0404055
X0396055Y0165
X0406555Y01522
X0411555Y0149001
X0417174Y0160027
X0419055Y01272
X0431555Y01022
X0393555Y0099
X0390378Y0141791
X0382055Y015
X0379496Y0147441
X0376555Y019
X0329055Y02015
X0306555Y02022
X0281555
X0294055Y01772
X0319055
X0315055Y0158
X0305055
X0281555Y01522
X0294055Y01272
X0310055Y0121
X0319055Y01272
X0344055
Y02272
X0319055
X0269055
X0244055
X0219055
X0194055
X0169055
X0144055
X0156555Y02022
X0181555
X0206555
X0219055Y01772
X0219555Y01575
X0210055
X0181555Y01522
X0156555
X0131555
X0144055Y01772
X0169055
X0194055
X0244055
X0269055
X0256555Y02022
Y01522
X0269055Y01272
X0244055
X0225555Y01125
X0214771Y0121784
X0194055Y01272
X0197555Y01125
X0169055Y01272
X0144055
Y01022
X0154055
X0164055
X0169055Y00922
X0159055
X0149055
X0139055
X0144055Y00822
X0154055
X0164055
X0229055Y00875
X0131555Y02022
X0106555
X0081555
X0094055Y02272
X0119055
Y01772
X0094055
X0069055
X0081555Y01522
X0106555
X0119055Y01272
X0094055
X0069055
X0081555Y01022
X0106555
X0069055Y02272
X0081555Y02522
X0106555
X0119055Y02772
X0094055
X0069055
X0081555Y03022
X0106555
X0119555Y0305
X0119055Y03272
X0094055
X0069055
X0081555Y03522
X0106555
X0119055Y03772
X0069055
X0144055
X0169055
X0194055
X0219055
X0244055
X0242142Y035987
X0239083
X0229685
X0251732Y0359823
X0254882Y0359819
X0264331Y0359724
X0271055Y03445
X0269055Y0326
X0256555Y03265
X0244055
X0234555
X0220055
X0233255Y0310005
X0231555Y03022
X0256555
X0269055Y02772
X0244055
X0219055
X0231555Y02522
X0256555
X0206555
X0181555
X0131555
X0129055Y0273
X0206555Y03022
X0204587Y0361684
X0181555Y03522
X0156555
X0269055Y03772
X0294055
X0295827Y0359772
X0286378Y0359823
X0281555Y03522
X0319555Y03605
X0319055Y03772
X0344055
X0369055
X0356555Y03522
X0331555
X0344055Y03272
X0369055
X0394055
X0419055
X0431555Y03522
X0406555
X0419055Y03772
X0406555Y03022
X0401055Y02785
X0394055Y02772
X0411555Y02775
X0419055Y02772
X0431555Y02522
X0396555Y0255
X0381555Y02522
X0382555Y0235
X0397555
X0331555Y02522
X0306555
X0281555
X0294055Y02772
X0319055
X0344055
X0331555Y03022
X0306555
X0281555
X0302555Y03265
X0319055Y03272
X0436055Y03225
X0435555Y02975
X054061Y03022
X056561
X057861Y0305
X057811Y03272
X055311
X052811
X054061Y03522
X056561
X057811Y03772
X052811
Y02772
X055311
X057811
X058811Y0273
X056561Y02522
X054061
X059061
X064061
X066561
X069061
X071561
X074061
X072811Y02772
X070311
X067811
X069061Y03022
X069231Y0310005
X069361Y03265
X070311
X071561
X072811Y0326
X073011Y03445
X074061Y03522
X0723386Y0359724
X0713937Y0359819
X0710787Y0359823
X0701197Y035987
X0698138
X068874
X0663642Y0361684
X065311Y03772
X067811
X070311
X072811
X074061Y03022
X071561
X066561
X067911Y03265
X064061Y03522
X061561
X062811Y03772
X060311
X075311
X0754882Y0359772
X0745433Y0359823
X077861Y03605
X077811Y03772
X080311
X082811
X081561Y03522
X079061
X080311Y03272
X082811
X085311
X087811
X089511Y03225
X089461Y02975
X086561Y03022
X086011Y02785
X085311Y02772
X087061Y02775
X087811Y02772
X089061Y02522
X085561Y0255
X084061Y02522
X084161Y0235
X085661
X079061Y02522
X076561
X077811Y02772
X080311
X079061Y03022
X076561
X076161Y03265
X077811Y03272
X075311Y02772
X086561Y03522
X089061
X087811Y03772
Y0486255
X085311
X082811
X080311
X077811
X077261Y0492055
X0783133Y0494791
X0785347Y0499319
X078461Y0511555
X076561Y0511255
X075811Y0510055
Y0493471
X075311Y0486255
X0747667Y0497217
X074561Y0499055
X075311Y0536255
X077811
X082811
X085311
X084061Y0511255
X081561
X089061
X070611Y0509555
X069061Y0511255
X066561
X064811
X063811
X064311Y0521255
X065311
X063311
X062311
X061311
X060311
Y0536255
Y0541255
X061311
X062311
X062811Y0536255
Y0531255
X061811
X060811
X059811
X060811Y0511255
X061561
X060311Y0486255
X067811
X068061Y0481555
X071711Y0487055
X0719174Y0485441
X070311Y0536255
X068811Y0546555
X0670728Y0525937
X057811Y0536255
X055311
X052811
X054061Y0511255
X056561
X057811Y0493555
X0581961Y0470768
X052811Y0486255
X0419055
X0394055
X0369055
X0344055
X0319055
X0313555Y0492055
X0324078Y0494791
X0326291Y0499319
X0325555Y0511555
X0306555Y0511255
X0299055Y0510055
Y0493471
X0294055Y0486255
X0288612Y0497217
X0286555Y0499055
X0294055Y0536255
X0319055
X0369055
X0394055
X0381555Y0511255
X0356555
X0431555
X0247055Y0509555
X0231555Y0511255
X0206555
X0189055
X0179055
X0184055Y0521255
X0194055
X0174055
X0164055
X0154055
X0144055
Y0536255
Y0541255
X0154055
X0164055
X0169055Y0536255
Y0531255
X0159055
X0149055
X0139055
X0149055Y0511255
X0156555
X0144055Y0486255
X0122906Y0470768
X0221555Y0481555
X0219055Y0486255
X0258055Y0487055
X0260119Y0485441
X0244055Y0536255
X0229055Y0546555
X0211673Y0525937
X0119055Y0536255
X0094055
X0069055
X0081555Y0511255
X0106555
X0119055Y0493555
X0069055Y0486255
X0081555Y0561255
X0106555
X0119055Y0586255
X0094055
X0069055
X0081555Y0611255
X0106555
X0119055Y0636255
X0094055
X0069055
X0081555Y0661255
X0106555
X0119055Y0686255
X0094055
X0069055
X0144055
X0169055
X0194055
X0219055
X0244055
X0269055
X0256555Y0661255
X0269055Y0636255
X0244055
X0219055
X0219555Y0616555
X0210055
X0181555Y0611255
X0156555
X0131555
X0144055Y0636255
X0169055
X0194055
X0206555Y0661255
X0181555
X0156555
X0131555
X0144055Y0586255
X0169055
X0194055
X0197555Y0571555
X0214771Y0580839
X0225555Y0571555
X0244055Y0586255
X0269055
X0256555Y0611255
X0164055Y0561255
X0154055
X0144055
X0149055Y0551255
X0159055
X0169055
X0139055
X0294055Y0586255
X0310055Y0580055
X0319055Y0586255
X0344055
X0379496Y0606496
X0382055Y0609055
X0390378Y0600846
X0406555Y0611255
X0411555Y0608056
X0417174Y0619082
X0415555Y0627555
X0409055
X0404055
X0396055Y0624055
X0376555Y0649055
X0382555Y0694055
X0397555
X0413055Y0681555
X0419055Y0686255
X0431555Y0661255
X0419055Y0586255
X0431555Y0561255
X0393555Y0558055
X0315055Y0617055
X0305055
X0281555Y0611255
X0294055Y0636255
X0319055
X0329055Y0660555
X0306555Y0661255
X0281555
X0319055Y0686255
X0344055
X052811
X055311
X057811
X056561Y0661255
X054061
X055311Y0636255
X057811
X056561Y0611255
X054061
X055311Y0586255
X057811
X056561Y0561255
X054061
X052811Y0586255
Y0636255
X060311
X062811
X065311
X067811
X067861Y0616555
X066911
X064061Y0611255
X061561
X059061
X060311Y0586255
X062811
X065311
X065661Y0571555
X0673826Y0580839
X068461Y0571555
X070311Y0586255
X072811
X074061Y0611255
X071561
X072811Y0636255
X070311
X071561Y0661255
X074061
X072811Y0686255
X070311
X067811
X065311
X062811
X060311
X061561Y0661255
X064061
X066561
X059061
X060311Y0561255
X061311
X062311
X062811Y0551255
X061811
X060811
X059811
X075311Y0586255
X076911Y0580055
X077811Y0586255
X080311
X0838551Y0606496
X084111Y0609055
X0849433Y0600846
X086561Y0611255
X087061Y0608056
X0876229Y0619082
X087461Y0627555
X086811
X086311
X085511Y0624055
X083561Y0649055
X084161Y0694055
X085661
X087211Y0681555
X087811Y0686255
X089061Y0661255
X087811Y0586255
X089061Y0561255
X085261Y0558055
X077411Y0617055
X076411
X075311Y0636255
X077811
X078811Y0660555
X076561Y0661255
X077811Y0686255
X080311
X079061Y0711255
X076561
X077811Y0736255
X080311
X079061Y0761255
X076561
X076161Y0785555
X077811Y0786255
X080311
X082811
X085311
X087811
X089511Y0781555
X089461Y0756555
X086561Y0761255
X086011Y0737555
X085311Y0736255
X087061Y0736555
X087811Y0736255
X089061Y0711255
X085561Y0714055
X084061Y0711255
X075311Y0736255
X0754882Y0818827
X0745433Y0818878
X075311Y0836255
X077811
X077861Y0819555
X079061Y0811255
X081561
X082811Y0836255
X080311
X087811
X089061Y0811255
X086561
X074061
X073011Y0803555
X072811Y0785055
X071561Y0785555
X070311
X069361
X067911
X069231Y0769061
X069061Y0761255
X071561
X074061
X072811Y0736255
X070311
X067811
X069061Y0711255
X071561
X074061
X066561
X064061
X059061
X066561Y0761255
X0663642Y0820739
X065311Y0836255
X067811
X070311
X0701197Y0818925
X0698138
X068874
X0710787Y0818878
X0713937Y0818874
X0723386Y0818779
X072811Y0836255
X062811
X060311
X061561Y0811255
X064061
X056561
X054061
X055311Y0786255
X057811
X057861Y0764055
X056561Y0761255
X054061
X055311Y0736255
X057811
X058811Y0732055
X056561Y0711255
X054061
X052811Y0736255
Y0786255
Y0836255
X057811
X0436055Y0781555
X0435555Y0756555
X0406555Y0761255
X0401055Y0737555
X0394055Y0736255
X0411555Y0736555
X0419055Y0736255
X0431555Y0711255
X0396555Y0714055
X0381555Y0711255
X0331555
X0306555
X0281555
X0294055Y0736255
X0319055
X0344055
X0331555Y0761255
X0306555
X0281555
X0302555Y0785555
X0319055Y0786255
X0344055
X0369055
X0394055
X0419055
X0431555Y0811255
X0406555
X0419055Y0836255
X0369055
X0344055
X0319055
X0319555Y0819555
X0331555Y0811255
X0356555
X0295827Y0818827
X0286378Y0818878
X0281555Y0811255
X0294055Y0836255
X0269055
X0264331Y0818779
X0254882Y0818874
X0251732Y0818878
X0242142Y0818925
X0239083
X0229685
X0204587Y0820739
X0194055Y0836255
X0219055
X0244055
Y0785555
X0234555
X0220055
X0233255Y0769061
X0231555Y0761255
X0256555
Y0785555
X0269055Y0785055
X0271055Y0803555
X0269055Y0736255
X0244055
X0219055
X0231555Y0711255
X0256555
X0206555
X0181555
X0131555
X0129055Y0732055
X0206555Y0761255
X0181555Y0811255
X0156555
X0169055Y0836255
X0144055
X0119055
X0106555Y0811255
X0081555
X0094055Y0786255
X0119055
X0119555Y0764055
X0106555Y0761255
X0081555
X0094055Y0736255
X0119055
X0106555Y0711255
X0081555
X0069055Y0736255
Y0786255
Y0836255
T04
X0813622Y0121968
Y0131968
Y0141969
Y0151969
Y0161969
Y0171968
Y0181968
Y0191969
Y0207968
Y0217969
Y0227969
X0623622Y0231968
Y0221969
Y0211968
Y0201969
Y0191969
Y0171968
Y0161969
Y0151969
Y0141969
Y0131968
Y0121968
X0354567
Y0131968
Y0141969
Y0151969
Y0161969
Y0171968
Y0181968
Y0191969
Y0207968
Y0217969
Y0227969
X0164567Y0231968
Y0221969
Y0211968
Y0201969
Y0191969
Y0171968
Y0161969
Y0151969
Y0141969
Y0131968
Y0121968
Y0241968
Y0251969
Y0261968
X0354567Y0257968
Y0267969
Y0277969
Y0287968
Y0297969
Y0247969
Y0237968
X0623622Y0241968
Y0251969
Y0261968
X0813622Y0257968
Y0267969
Y0277969
Y0287968
Y0297969
Y0247969
Y0237968
X0164567Y0581024
Y0591024
Y0601024
Y0611024
Y0621024
Y0631024
Y0651024
Y0661024
Y0671024
Y0681024
Y0691024
Y0701024
X0354567Y0697024
Y0687024
Y0677024
Y0667024
Y0651024
Y0641024
Y0631024
Y0621024
Y0611024
Y0601024
Y0591024
Y0581024
X0623622
Y0591024
Y0601024
Y0611024
Y0621024
Y0631024
Y0651024
Y0661024
Y0671024
Y0681024
Y0691024
Y0701024
X0813622Y0697024
Y0687024
Y0677024
Y0667024
Y0651024
Y0641024
Y0631024
Y0621024
Y0611024
Y0601024
Y0591024
Y0581024
Y0707024
Y0717024
Y0727024
Y0737024
Y0747024
Y0757024
X0623622Y0721024
Y0711024
X0354567Y0707024
Y0717024
Y0727024
Y0737024
Y0747024
Y0757024
X0164567Y0721024
Y0711024
T05
X0141555Y005
X0161555
X0199055Y00575
Y00125
X0304055Y00275
Y00575
X060061Y005
X062061
X065811Y00575
Y00125
X076311Y00275
Y00575
X084561Y008
Y00925
X061061Y0222
Y0233
X0386555Y00925
Y008
X0151555Y0222
Y0233
Y0252
X0149055Y028
X0179055Y0325
X0401555Y03225
Y02975
X060811Y028
X061061Y0252
X063811Y0325
X086061Y03225
Y02975
X084561Y0539055
X076311Y0516555
Y0486555
X065811Y0471555
Y0516555
X062061Y0509055
X060061
X0386555Y0539055
X0304055Y0516555
Y0486555
X0199055Y0471555
Y0516555
X0161555Y0509055
X0141555
X0151555Y0681055
Y0692055
X0386555Y0551555
X061061Y0681055
Y0692055
X084561Y0551555
X086061Y0756555
Y0781555
X063811Y0784055
X060811Y0739055
X061061Y0711055
X0401555Y0756555
Y0781555
X0179055Y0784055
X0149055Y0739055
X0151555Y0711055
T06
X0404055Y00525
Y00625
Y00725
X086311
Y00625
Y00525
Y00825
Y00925
Y01025
X086061Y01175
X087061
Y01325
X086061
X089811
Y01425
Y01225
X083061Y00925
Y00825
X081561
Y00925
X061061Y018
Y019
X0439055Y01425
Y01325
Y01225
X0411555Y01175
X0401555
Y01325
X0411555
X0404055Y01025
Y00925
Y00825
X0371555
Y00925
X0356555
Y00825
X0151555Y018
Y019
X0146555Y0325
X0156555
X0391555Y0265
X0401555
X060561Y0325
X061561
X085061Y0265
X086061
X086311Y0511555
Y0521555
Y0531555
Y0541555
X083061
X081561
X0404055
Y0531555
Y0521555
Y0511555
X0371555Y0541555
X0356555
X0151555Y0639055
Y0649055
X0356555Y0551555
X0371555
X0404055
Y0561555
X0401555Y0576555
X0411555
Y0591555
X0401555
X0439055
Y0601555
Y0581555
X061061Y0639055
Y0649055
X081561Y0551555
X083061
X086311
Y0561555
X086061Y0576555
X087061
Y0591555
X086061
X089811
Y0601555
Y0581555
X086061Y0724055
X085061
X061561Y0784055
X060561
X0401555Y0724055
X0391555
X0156555Y0784055
X0146555
T07
X0141713Y002
X0161398
X0439055Y0055315
Y0075
X0600768Y002
X0620453
X089811Y0055315
Y0075
Y0094685
Y0187815
Y02075
Y0227185
X0439055
Y02075
Y0187815
Y0094685
X089811Y051437
Y0534055
X0620453Y0479055
X0600768
X0439055Y051437
Y0534055
X0161398Y0479055
X0141713
X0439055Y055374
Y064687
Y0666555
Y068624
X089811
Y0666555
Y064687
Y055374
T08
X0134055Y038
X0389055
X059311
X084811
Y0839055
X059311
X0389055
X0134055
T09
X0124055Y037
X0144055
Y039
X0124055
X0379055
X0399055
Y037
X0379055
X058311
Y039
X060311
Y037
X083811
X085811
Y039
X083811
Y0829055
X085811
Y0849055
X083811
X060311
Y0829055
X058311
Y0849055
X0399055
Y0829055
X0379055
Y0849055
X0144055
Y0829055
X0124055
Y0849055
M30
