M48
;Layer_Color=9474304
;FILE_FORMAT=2:5
INCH,TZ
;TYPE=PLATED
T1F00S00C0.00787
T2F00S00C0.01500
T3F00S00C0.01600
T4F00S00C0.02800
T5F00S00C0.03500
T6F00S00C0.03543
T7F00S00C0.03600
T8F00S00C0.10827
T9F00S00C0.20669
T10F00S00C0.22100
%
T01
X-398819Y-178150
X-394488
Y-173819
X-398819
T02
X-267756Y-614764
X-257756
X-247756
X-237756
X-227756
X-202756Y-604764
X-192756
X-187756Y-594764
X-182756Y-584764
X-172756
X-162756
X-167756Y-574764
X-177756
X-172756Y-564764
X-162756
X-167756Y-554764
X-177756
X-172756Y-544764
X-162756
X-167756Y-534764
X-177756
X-187756
X-197756
X-207756
X-217756
Y-554764
X-207756
X-202756Y-564764
X-212756
X-222756
X-232756
X-227756Y-554764
Y-574764
X-217756
X-207756
X-202756Y-584764
X-212756
X-222756
X-232756
X-237756Y-574764
X-247756Y-594764
X-257756
X-267756
X-262756Y-584764
X-272756
Y-564764
X-262756
X-257756Y-554764
X-252756Y-544764
X-242756
X-237756Y-534764
X-247756
X-257756
X-192756Y-544764
X-182756
Y-564764
X-167756Y-594764
X-162756Y-604764
X-172756
X-167756Y-614764
X-177756
T03
X-510000Y-65988
Y-59988
X-509336Y-54025
X-507012Y-44000
X-481000Y-44500
X-485000Y-33500
X-474500Y-64500
T04
X-451169Y-518610
X-400669Y-538610
X-359831Y-525890
X-356000Y-515500
X-347669Y-502110
X-356669Y-491110
X-371669Y-494610
X-335169Y-531610
X-321669Y-539110
X-312169Y-559110
X-319669Y-568610
X-292669Y-489110
X-211169Y-607110
X-118169Y-631610
X-113500Y-514000
X-105169Y-521110
X-131169Y-506110
X-169669Y-411110
X-172169Y-396110
X-181669Y-392110
X-183669Y-404110
X-162669Y-391610
X-161169Y-356110
X-175669Y-354610
X-189669Y-353110
X-212669Y-342110
X-225169Y-347110
X-252669Y-412000
X-245169Y-424610
X-252169Y-438610
X-255669Y-448110
X-249669Y-459110
X-279169Y-441610
X-277669Y-433110
X-285169Y-419500
X-303169Y-420110
X-301669Y-430610
X-290669Y-435610
X-319169Y-439110
X-316169Y-454110
X-318169Y-468110
X-303049Y-386710
X-427169Y-369610
X-440169Y-368610
X-411669Y-461110
X-457669Y-460610
X-467169Y-453110
X-455169Y-359110
X-445669Y-360110
X-449169Y-286610
X-439669Y-284110
X-436266Y-276427
X-426500Y-277000
X-416169Y-279110
X-414669Y-291110
X-406669Y-293110
X-410669Y-309610
X-408169Y-318610
X-438669Y-326110
X-431500Y-267000
X-419669Y-195110
X-406669Y-207610
X-370169Y-319610
X-265669Y-322110
X-272669Y-285610
X-257669Y-261110
X-245669Y-263110
X-242169Y-299610
X-248169Y-221110
X-220169Y-222610
X-214669Y-212110
X-206169Y-192610
X-234169Y-185110
X-268323Y-196337
X-200669Y-235110
X-274669Y-166610
X-304500Y-139000
X-331669Y-119110
X-394169Y-154110
X-417669Y-153110
X-422000Y-64500
X-529000Y-39500
X-553500Y-82000
X-599000Y-10000
X-475500Y-12500
T05
X-393169Y-360110
Y-350110
T06
X-437669Y-623110
X-427669
X-417669
X-407669
X-279669Y-608610
Y-598610
Y-588610
Y-578610
Y-568610
Y-558610
Y-548610
Y-538610
Y-528610
X-218169Y-499610
X-208169
X-198169
X-188169
X-178169
X-168169
X-158169
X-493169Y-470110
X-503169
Y-460110
X-493169
Y-450110
X-503169
Y-440110
X-493169
Y-430110
X-503169
Y-420110
X-493169
Y-410110
X-503169
Y-400110
X-493169
Y-390110
X-503169
Y-380110
X-493169
Y-370110
X-503169
Y-360110
X-493169
Y-350110
X-503169
Y-340110
X-493169
Y-330110
X-503169
Y-320110
X-493169
Y-310110
X-503169
Y-300110
X-493169
Y-290110
X-503169
Y-280110
X-493169
X-414669Y-256610
X-404669
X-307756Y-250764
Y-240764
Y-230764
X-308669Y-199110
X-318669
X-307756Y-281764
Y-291764
Y-301764
X-274669Y-240110
Y-230110
X-316756Y-138764
Y-128764
Y-118764
X-531000Y-113000
X-541000
X-551000
X-561000
X-571000
X-701256Y-85075
Y-77264
X-700256Y-41764
Y-33953
X-369756Y-264
X-361945
X-302756Y3736
Y13736
Y-6264
T07
X-393169Y-480110
X-383169
X-373169
X-363169
X-353169
X-343169
X-333169
Y-470110
Y-460110
Y-450110
Y-440110
Y-430110
Y-420110
Y-410110
Y-400110
X-343169
Y-390110
Y-380110
X-333169
Y-370110
Y-360110
Y-350110
Y-390110
X-393169
Y-400110
Y-410110
Y-420110
Y-430110
Y-440110
Y-450110
Y-460110
Y-470110
Y-380110
Y-370110
T08
X-691169Y-489110
X-498256
X-691169Y-260764
X-498256
T09
X-112614Y-474500
X-211000
T10
X-366256Y-569764
X-211000Y-322138
X-171756Y-326110
X-81205
X-53756Y-257264
X-35669Y-111197
X-81205Y-97764
X-35669Y-20646
X-171756Y-97764
X-264016Y-111197
Y-20646
M30
