G04*
G04 #@! TF.GenerationSoftware,Altium Limited,Altium Designer,21.9.2 (33)*
G04*
G04 Layer_Physical_Order=2*
G04 Layer_Color=32768*
%FSLAX25Y25*%
%MOIN*%
G70*
G04*
G04 #@! TF.SameCoordinates,78272FC5-C187-494E-99D2-452C8614685B*
G04*
G04*
G04 #@! TF.FilePolarity,Negative*
G04*
G01*
G75*
%ADD14C,0.01000*%
%ADD104C,0.06800*%
%ADD141C,0.04000*%
%ADD142C,0.07600*%
%ADD143C,0.07500*%
G04:AMPARAMS|DCode=144|XSize=95mil|YSize=95mil|CornerRadius=0mil|HoleSize=0mil|Usage=FLASHONLY|Rotation=0.000|XOffset=0mil|YOffset=0mil|HoleType=Round|Shape=Relief|Width=10mil|Gap=10mil|Entries=4|*
%AMTHD144*
7,0,0,0.09500,0.07500,0.01000,45*
%
%ADD144THD144*%
%ADD145C,0.24669*%
%ADD146C,0.26100*%
%ADD147C,0.07543*%
G04:AMPARAMS|DCode=148|XSize=95.433mil|YSize=95.433mil|CornerRadius=0mil|HoleSize=0mil|Usage=FLASHONLY|Rotation=0.000|XOffset=0mil|YOffset=0mil|HoleType=Round|Shape=Relief|Width=10mil|Gap=10mil|Entries=4|*
%AMTHD148*
7,0,0,0.09543,0.07543,0.01000,45*
%
%ADD148THD148*%
%ADD149C,0.14827*%
G04:AMPARAMS|DCode=150|XSize=88mil|YSize=88mil|CornerRadius=0mil|HoleSize=0mil|Usage=FLASHONLY|Rotation=0.000|XOffset=0mil|YOffset=0mil|HoleType=Round|Shape=Relief|Width=10mil|Gap=10mil|Entries=4|*
%AMTHD150*
7,0,0,0.08800,0.06800,0.01000,45*
%
%ADD150THD150*%
G04:AMPARAMS|DCode=151|XSize=75mil|YSize=75mil|CornerRadius=0mil|HoleSize=0mil|Usage=FLASHONLY|Rotation=0.000|XOffset=0mil|YOffset=0mil|HoleType=Round|Shape=Relief|Width=10mil|Gap=10mil|Entries=4|*
%AMTHD151*
7,0,0,0.07500,0.05500,0.01000,45*
%
%ADD151THD151*%
G04:AMPARAMS|DCode=152|XSize=76mil|YSize=76mil|CornerRadius=0mil|HoleSize=0mil|Usage=FLASHONLY|Rotation=0.000|XOffset=0mil|YOffset=0mil|HoleType=Round|Shape=Relief|Width=10mil|Gap=10mil|Entries=4|*
%AMTHD152*
7,0,0,0.07600,0.05600,0.01000,45*
%
%ADD152THD152*%
%ADD153C,0.05600*%
G04:AMPARAMS|DCode=154|XSize=67.874mil|YSize=67.874mil|CornerRadius=0mil|HoleSize=0mil|Usage=FLASHONLY|Rotation=0.000|XOffset=0mil|YOffset=0mil|HoleType=Round|Shape=Relief|Width=10mil|Gap=10mil|Entries=4|*
%AMTHD154*
7,0,0,0.06787,0.04787,0.01000,45*
%
%ADD154THD154*%
D14*
X-299669Y-175110D02*
Y-84110D01*
X-306669Y-344610D02*
X20831D01*
X-313669Y-337610D02*
X-306669Y-344610D01*
X-313669Y-337610D02*
Y-189110D01*
X-299669Y-175110D01*
Y-84110D02*
X-277669Y-62110D01*
X21331D01*
D104*
X-426500Y-277000D02*
D03*
X-303169Y-420110D02*
D03*
X-303049Y-386710D02*
D03*
X-356000Y-515500D02*
D03*
X-245169Y-424610D02*
D03*
X-113500Y-514000D02*
D03*
X-422000Y-64500D02*
D03*
X-529000Y-39500D02*
D03*
X-212669Y-342110D02*
D03*
X-451169Y-518610D02*
D03*
X-312169Y-559110D02*
D03*
X-118169Y-631610D02*
D03*
X-225169Y-347110D02*
D03*
X-321669Y-539110D02*
D03*
X-316169Y-454110D02*
D03*
X-318169Y-468110D02*
D03*
X-292669Y-489110D02*
D03*
X-335169Y-531610D02*
D03*
X-211169Y-607110D02*
D03*
X-400669Y-538610D02*
D03*
X-411669Y-461110D02*
D03*
X-347669Y-502110D02*
D03*
X-105169Y-521110D02*
D03*
X-274669Y-166610D02*
D03*
X-242169Y-299610D02*
D03*
X-234169Y-185110D02*
D03*
X-206169Y-192610D02*
D03*
X-265669Y-322110D02*
D03*
X-370169Y-319610D02*
D03*
X-356669Y-491110D02*
D03*
X-371669Y-494610D02*
D03*
X-131169Y-506110D02*
D03*
X-189669Y-353110D02*
D03*
X-169669Y-411110D02*
D03*
X-183669Y-404110D02*
D03*
X-419669Y-195110D02*
D03*
X-440169Y-368610D02*
D03*
X-445669Y-360110D02*
D03*
X-455169Y-359110D02*
D03*
X-439669Y-284110D02*
D03*
X-449169Y-286610D02*
D03*
X-436266Y-276427D02*
D03*
X-438669Y-326110D02*
D03*
X-406669Y-293110D02*
D03*
X-414669Y-291110D02*
D03*
X-410669Y-309610D02*
D03*
X-408169Y-318610D02*
D03*
X-457669Y-460610D02*
D03*
X-319169Y-439110D02*
D03*
X-255669Y-448110D02*
D03*
X-252169Y-438610D02*
D03*
X-290669Y-435610D02*
D03*
X-301669Y-430610D02*
D03*
D141*
X-681234Y-590531D02*
Y-589411D01*
Y-590531D02*
X-680984Y-591622D01*
X-680499Y-592631D01*
X-679801Y-593507D01*
X-630008Y-643299D01*
X-628972Y-644094D01*
X-627766Y-644593D01*
X-626472Y-644764D01*
X-106040Y-644764D01*
X-104745Y-644593D01*
X-103540Y-644094D01*
X-102504Y-643299D01*
X-52711Y-593507D01*
X-52013Y-592631D01*
X-51527Y-591622D01*
X-51278Y-590531D01*
Y-589411D01*
X-51527Y-588320D02*
X-51278Y-589411D01*
X-52013Y-587311D02*
X-51527Y-588320D01*
X-52711Y-586436D02*
X-52013Y-587311D01*
X-67226Y-571920D02*
X-52711Y-586436D01*
X-68600Y-570246D02*
X-67226Y-571920D01*
X-69622Y-568336D02*
X-68600Y-570246D01*
X-70250Y-566263D02*
X-69622Y-568336D01*
X-70463Y-564107D02*
X-70250Y-566263D01*
X-70463Y-564107D02*
X-70250Y-561951D01*
X-69622Y-559878D01*
X-68600Y-557968D01*
X-67226Y-556293D01*
X-65552Y-554919D01*
X-63641Y-553898D01*
X-61568Y-553269D01*
X-59413Y-553057D01*
X-57257Y-553269D01*
X-55184Y-553898D01*
X-53274Y-554919D01*
X-51599Y-556293D01*
X-37084Y-570808D01*
X-36209Y-571507D01*
X-35200Y-571992D01*
X-34108Y-572241D01*
X-32989D01*
X-31897Y-571992D01*
X-30888Y-571507D01*
X-30013Y-570808D01*
X19780Y-521016D01*
X20574Y-519980D01*
X21074Y-518774D01*
X21244Y-517480D01*
Y2953D01*
X21074Y4247D02*
X21244Y2953D01*
X20574Y5453D02*
X21074Y4247D01*
X19780Y6488D02*
X20574Y5453D01*
X-30013Y56281D02*
X19780Y6488D01*
X-30888Y56979D02*
X-30013Y56281D01*
X-31897Y57465D02*
X-30888Y56979D01*
X-32989Y57714D02*
X-31897Y57465D01*
X-34108Y57714D02*
X-32989D01*
X-35200Y57465D02*
X-34108Y57714D01*
X-36209Y56979D02*
X-35200Y57465D01*
X-37084Y56281D02*
X-36209Y56979D01*
X-51599Y41766D02*
X-37084Y56281D01*
X-53274Y40392D02*
X-51599Y41766D01*
X-55184Y39371D02*
X-53274Y40392D01*
X-57257Y38742D02*
X-55184Y39371D01*
X-59413Y38529D02*
X-57257Y38742D01*
X-61568D02*
X-59413Y38529D01*
X-63641Y39371D02*
X-61568Y38742D01*
X-65552Y40392D02*
X-63641Y39371D01*
X-67226Y41766D02*
X-65552Y40392D01*
X-68600Y43440D02*
X-67226Y41766D01*
X-69622Y45351D02*
X-68600Y43440D01*
X-70250Y47424D02*
X-69622Y45351D01*
X-70463Y49579D02*
X-70250Y47424D01*
X-70463Y49579D02*
X-70250Y51735D01*
X-69622Y53808D01*
X-68600Y55718D01*
X-67226Y57393D01*
X-52711Y71908D01*
X-52013Y72783D01*
X-51527Y73792D01*
X-51278Y74884D01*
Y76003D01*
X-51527Y77095D02*
X-51278Y76003D01*
X-52013Y78104D02*
X-51527Y77095D01*
X-52711Y78979D02*
X-52013Y78104D01*
X-102504Y128772D02*
X-52711Y78979D01*
X-103540Y129566D02*
X-102504Y128772D01*
X-104745Y130066D02*
X-103540Y129566D01*
X-106040Y130236D02*
X-104745Y130066D01*
X-236148Y130236D02*
X-106040D01*
X-344648Y21736D02*
X-236148Y130236D01*
X-387864Y21736D02*
X-344648D01*
X-496364Y130236D02*
X-387864Y21736D01*
X-626472Y130236D02*
X-496364D01*
X-627766Y130066D02*
X-626472Y130236D01*
X-628972Y129566D02*
X-627766Y130066D01*
X-630008Y128772D02*
X-628972Y129566D01*
X-679801Y78979D02*
X-630008Y128772D01*
X-680499Y78104D02*
X-679801Y78979D01*
X-680984Y77095D02*
X-680499Y78104D01*
X-681234Y76003D02*
X-680984Y77095D01*
X-681234Y74884D02*
Y76003D01*
Y74884D02*
X-680984Y73792D01*
X-680499Y72783D01*
X-679801Y71908D01*
X-665285Y57393D01*
X-663911Y55718D01*
X-662890Y53808D01*
X-662261Y51735D01*
X-662049Y49579D01*
X-662261Y47424D02*
X-662049Y49579D01*
X-662890Y45351D02*
X-662261Y47424D01*
X-663911Y43440D02*
X-662890Y45351D01*
X-665285Y41766D02*
X-663911Y43440D01*
X-666960Y40392D02*
X-665285Y41766D01*
X-668870Y39371D02*
X-666960Y40392D01*
X-670943Y38742D02*
X-668870Y39371D01*
X-673099Y38529D02*
X-670943Y38742D01*
X-675255D02*
X-673099Y38529D01*
X-677328Y39371D02*
X-675255Y38742D01*
X-679238Y40392D02*
X-677328Y39371D01*
X-680913Y41766D02*
X-679238Y40392D01*
X-695428Y56281D02*
X-680913Y41766D01*
X-696303Y56979D02*
X-695428Y56281D01*
X-697312Y57465D02*
X-696303Y56979D01*
X-698403Y57714D02*
X-697312Y57465D01*
X-699523Y57714D02*
X-698403D01*
X-700615Y57465D02*
X-699523Y57714D01*
X-701623Y56979D02*
X-700615Y57465D01*
X-702499Y56281D02*
X-701623Y56979D01*
X-752291Y6488D02*
X-702499Y56281D01*
X-753086Y5453D02*
X-752291Y6488D01*
X-753585Y4247D02*
X-753086Y5453D01*
X-753756Y2953D02*
X-753585Y4247D01*
X-753756Y2953D02*
X-753756Y-517480D01*
X-753585Y-518774D01*
X-753086Y-519980D01*
X-752291Y-521016D01*
X-702499Y-570809D01*
X-701623Y-571507D01*
X-700615Y-571992D01*
X-699523Y-572241D01*
X-698403D01*
X-697312Y-571992D01*
X-696303Y-571507D01*
X-695428Y-570809D01*
X-680912Y-556293D01*
X-679238Y-554919D01*
X-677328Y-553898D01*
X-675255Y-553269D01*
X-673099Y-553057D01*
X-670943Y-553269D01*
X-668870Y-553898D01*
X-666960Y-554919D01*
X-665285Y-556293D01*
X-663911Y-557968D01*
X-662890Y-559878D01*
X-662261Y-561951D01*
X-662049Y-564107D01*
X-662261Y-566263D02*
X-662049Y-564107D01*
X-662890Y-568336D02*
X-662261Y-566263D01*
X-663911Y-570246D02*
X-662890Y-568336D01*
X-665285Y-571920D02*
X-663911Y-570246D01*
X-679801Y-586436D02*
X-665285Y-571920D01*
X-680499Y-587311D02*
X-679801Y-586436D01*
X-680984Y-588320D02*
X-680499Y-587311D01*
X-681234Y-589411D02*
X-680984Y-588320D01*
D142*
X-343169Y-400110D02*
D03*
Y-390110D02*
D03*
Y-380110D02*
D03*
X-353169Y-480110D02*
D03*
X-333169Y-350110D02*
D03*
Y-360110D02*
D03*
Y-370110D02*
D03*
Y-380110D02*
D03*
Y-390110D02*
D03*
Y-400110D02*
D03*
Y-410110D02*
D03*
Y-420110D02*
D03*
Y-430110D02*
D03*
Y-440110D02*
D03*
Y-450110D02*
D03*
Y-460110D02*
D03*
Y-470110D02*
D03*
Y-480110D02*
D03*
X-343169D02*
D03*
X-363169D02*
D03*
X-373169D02*
D03*
X-383169D02*
D03*
X-393169D02*
D03*
Y-470110D02*
D03*
Y-460110D02*
D03*
Y-450110D02*
D03*
Y-440110D02*
D03*
Y-430110D02*
D03*
Y-420110D02*
D03*
Y-410110D02*
D03*
Y-400110D02*
D03*
Y-390110D02*
D03*
Y-380110D02*
D03*
Y-370110D02*
D03*
D143*
Y-360110D02*
D03*
D144*
Y-350110D02*
D03*
D145*
X-112614Y-474500D02*
D03*
X-211000D02*
D03*
D146*
Y-322138D02*
D03*
X-35669Y-20646D02*
D03*
Y-111197D02*
D03*
X-264016D02*
D03*
Y-20646D02*
D03*
X-81205Y-97764D02*
D03*
X-171756D02*
D03*
Y-326110D02*
D03*
X-81205D02*
D03*
X-53756Y-257264D02*
D03*
X-366256Y-569764D02*
D03*
D147*
X-178169Y-499610D02*
D03*
X-158169D02*
D03*
X-168169D02*
D03*
X-188169D02*
D03*
X-198169D02*
D03*
X-208169D02*
D03*
X-307756Y-240764D02*
D03*
Y-250764D02*
D03*
X-274669Y-230110D02*
D03*
Y-240110D02*
D03*
X-307756Y-291764D02*
D03*
Y-301764D02*
D03*
X-407669Y-623110D02*
D03*
X-427669D02*
D03*
X-437669D02*
D03*
X-279669Y-608610D02*
D03*
Y-578610D02*
D03*
Y-568610D02*
D03*
Y-558610D02*
D03*
Y-548610D02*
D03*
Y-538610D02*
D03*
Y-528610D02*
D03*
Y-598610D02*
D03*
X-503169Y-470110D02*
D03*
X-493169D02*
D03*
X-503169Y-460110D02*
D03*
X-493169D02*
D03*
X-503169Y-450110D02*
D03*
Y-440110D02*
D03*
X-493169D02*
D03*
Y-430110D02*
D03*
X-503169Y-420110D02*
D03*
X-493169D02*
D03*
X-503169Y-410110D02*
D03*
Y-400110D02*
D03*
X-493169D02*
D03*
X-503169Y-390110D02*
D03*
X-493169D02*
D03*
X-503169Y-380110D02*
D03*
Y-370110D02*
D03*
X-493169D02*
D03*
X-503169Y-360110D02*
D03*
X-493169D02*
D03*
Y-350110D02*
D03*
X-503169Y-340110D02*
D03*
X-493169D02*
D03*
X-503169Y-330110D02*
D03*
Y-320110D02*
D03*
X-493169D02*
D03*
X-503169Y-310110D02*
D03*
Y-300110D02*
D03*
X-493169D02*
D03*
X-503169Y-290110D02*
D03*
X-493169D02*
D03*
Y-280110D02*
D03*
X-369756Y-264D02*
D03*
X-700256Y-33953D02*
D03*
X-701256Y-77264D02*
D03*
X-571000Y-113000D02*
D03*
X-551000D02*
D03*
X-541000D02*
D03*
X-531000D02*
D03*
X-302756Y3736D02*
D03*
Y-6264D02*
D03*
X-404669Y-256610D02*
D03*
X-316756Y-118764D02*
D03*
Y-128764D02*
D03*
Y-138764D02*
D03*
D148*
X-218169Y-499610D02*
D03*
X-307756Y-230764D02*
D03*
Y-281764D02*
D03*
X-417669Y-623110D02*
D03*
X-279669Y-588610D02*
D03*
X-493169Y-450110D02*
D03*
X-503169Y-430110D02*
D03*
X-493169Y-410110D02*
D03*
Y-380110D02*
D03*
X-503169Y-350110D02*
D03*
X-493169Y-330110D02*
D03*
Y-310110D02*
D03*
X-503169Y-280110D02*
D03*
X-361945Y-264D02*
D03*
X-700256Y-41764D02*
D03*
X-701256Y-85075D02*
D03*
X-561000Y-113000D02*
D03*
X-302756Y13736D02*
D03*
X-414669Y-256610D02*
D03*
X-308669Y-199110D02*
D03*
X-318669D02*
D03*
D149*
X-691169Y-489110D02*
D03*
Y-260764D02*
D03*
X-498256Y-489110D02*
D03*
Y-260764D02*
D03*
D150*
X-285169Y-419500D02*
D03*
X-252669Y-412000D02*
D03*
X-431500Y-267000D02*
D03*
X-304500Y-139000D02*
D03*
X-475500Y-12500D02*
D03*
X-599000Y-10000D02*
D03*
X-553500Y-82000D02*
D03*
X-214669Y-212110D02*
D03*
X-319669Y-568610D02*
D03*
X-181669Y-392110D02*
D03*
X-172169Y-396110D02*
D03*
X-162669Y-391610D02*
D03*
X-161169Y-356110D02*
D03*
X-175669Y-354610D02*
D03*
X-394169Y-154110D02*
D03*
X-359831Y-525890D02*
D03*
X-331669Y-119110D02*
D03*
X-406669Y-207610D02*
D03*
X-417669Y-153110D02*
D03*
X-416169Y-279110D02*
D03*
X-427169Y-369610D02*
D03*
X-467169Y-453110D02*
D03*
X-257669Y-261110D02*
D03*
X-248169Y-221110D02*
D03*
X-220169Y-222610D02*
D03*
X-268323Y-196337D02*
D03*
X-200669Y-235110D02*
D03*
X-245669Y-263110D02*
D03*
X-272669Y-285610D02*
D03*
X-279169Y-441610D02*
D03*
X-277669Y-433110D02*
D03*
X-249669Y-459110D02*
D03*
D151*
X-167756Y-534764D02*
D03*
X-162756Y-544764D02*
D03*
X-167756Y-554764D02*
D03*
X-162756Y-564764D02*
D03*
X-167756Y-574764D02*
D03*
X-162756Y-584764D02*
D03*
X-167756Y-594764D02*
D03*
X-162756Y-604764D02*
D03*
X-167756Y-614764D02*
D03*
X-177756Y-534764D02*
D03*
X-172756Y-544764D02*
D03*
X-177756Y-554764D02*
D03*
X-172756Y-564764D02*
D03*
X-177756Y-574764D02*
D03*
X-172756Y-584764D02*
D03*
Y-604764D02*
D03*
X-177756Y-614764D02*
D03*
X-187756Y-534764D02*
D03*
X-182756Y-544764D02*
D03*
Y-564764D02*
D03*
Y-584764D02*
D03*
X-187756Y-594764D02*
D03*
X-197756Y-534764D02*
D03*
X-192756Y-544764D02*
D03*
Y-604764D02*
D03*
X-207756Y-534764D02*
D03*
Y-554764D02*
D03*
X-202756Y-564764D02*
D03*
X-207756Y-574764D02*
D03*
X-202756Y-584764D02*
D03*
Y-604764D02*
D03*
X-217756Y-534764D02*
D03*
Y-554764D02*
D03*
X-212756Y-564764D02*
D03*
X-217756Y-574764D02*
D03*
X-212756Y-584764D02*
D03*
X-227756Y-554764D02*
D03*
X-222756Y-564764D02*
D03*
X-227756Y-574764D02*
D03*
X-222756Y-584764D02*
D03*
X-227756Y-614764D02*
D03*
X-237756Y-534764D02*
D03*
X-232756Y-564764D02*
D03*
X-237756Y-574764D02*
D03*
X-232756Y-584764D02*
D03*
X-237756Y-614764D02*
D03*
X-247756Y-534764D02*
D03*
X-242756Y-544764D02*
D03*
X-247756Y-594764D02*
D03*
Y-614764D02*
D03*
X-257756Y-534764D02*
D03*
X-252756Y-544764D02*
D03*
X-257756Y-554764D02*
D03*
Y-594764D02*
D03*
Y-614764D02*
D03*
X-262756Y-564764D02*
D03*
Y-584764D02*
D03*
X-267756Y-594764D02*
D03*
Y-614764D02*
D03*
X-272756Y-564764D02*
D03*
Y-584764D02*
D03*
D152*
X-507012Y-44000D02*
D03*
X-481000Y-44500D02*
D03*
D153*
X-474500Y-64500D02*
D03*
X-510000Y-59988D02*
D03*
X-509336Y-54025D02*
D03*
X-510000Y-65988D02*
D03*
X-485000Y-33500D02*
D03*
D154*
X-394488Y-173819D02*
D03*
Y-178150D02*
D03*
X-398819Y-173819D02*
D03*
Y-178150D02*
D03*
M02*
