G04*
G04 #@! TF.GenerationSoftware,Altium Limited,Altium Designer,21.9.2 (33)*
G04*
G04 Layer_Color=255*
%FSLAX25Y25*%
%MOIN*%
G70*
G04*
G04 #@! TF.SameCoordinates,78272FC5-C187-494E-99D2-452C8614685B*
G04*
G04*
G04 #@! TF.FilePolarity,Positive*
G04*
G01*
G75*
%ADD129C,0.06000*%
%ADD130C,0.22100*%
%ADD131C,0.05906*%
%ADD132R,0.05906X0.05906*%
%ADD133C,0.11811*%
%ADD134R,0.05906X0.05906*%
%ADD135C,0.15748*%
D129*
X-343169Y-400110D02*
D03*
Y-390110D02*
D03*
Y-380110D02*
D03*
X-353169Y-480110D02*
D03*
X-333169Y-350110D02*
D03*
Y-360110D02*
D03*
Y-370110D02*
D03*
Y-380110D02*
D03*
Y-390110D02*
D03*
Y-400110D02*
D03*
Y-410110D02*
D03*
Y-420110D02*
D03*
Y-430110D02*
D03*
Y-440110D02*
D03*
Y-450110D02*
D03*
Y-460110D02*
D03*
Y-470110D02*
D03*
Y-480110D02*
D03*
X-343169D02*
D03*
X-363169D02*
D03*
X-373169D02*
D03*
X-383169D02*
D03*
X-393169D02*
D03*
Y-470110D02*
D03*
Y-460110D02*
D03*
Y-450110D02*
D03*
Y-440110D02*
D03*
Y-430110D02*
D03*
Y-420110D02*
D03*
Y-410110D02*
D03*
Y-400110D02*
D03*
Y-390110D02*
D03*
Y-380110D02*
D03*
Y-370110D02*
D03*
Y-360110D02*
D03*
Y-350110D02*
D03*
X-112614Y-474500D02*
D03*
X-211000D02*
D03*
D130*
Y-322138D02*
D03*
X-53756Y-257264D02*
D03*
X-366256Y-569764D02*
D03*
D131*
X-178169Y-499610D02*
D03*
X-168169D02*
D03*
X-188169D02*
D03*
X-198169D02*
D03*
X-208169D02*
D03*
X-218169D02*
D03*
X-307756Y-230764D02*
D03*
Y-240764D02*
D03*
X-274669Y-240110D02*
D03*
X-307756Y-281764D02*
D03*
Y-291764D02*
D03*
X-417669Y-623110D02*
D03*
X-427669D02*
D03*
X-437669D02*
D03*
X-279669Y-588610D02*
D03*
Y-578610D02*
D03*
Y-568610D02*
D03*
Y-558610D02*
D03*
Y-548610D02*
D03*
Y-538610D02*
D03*
Y-528610D02*
D03*
Y-598610D02*
D03*
X-493169Y-470110D02*
D03*
X-503169Y-460110D02*
D03*
X-493169D02*
D03*
X-503169Y-450110D02*
D03*
X-493169D02*
D03*
X-503169Y-440110D02*
D03*
X-493169D02*
D03*
X-503169Y-430110D02*
D03*
X-493169D02*
D03*
X-503169Y-420110D02*
D03*
X-493169D02*
D03*
X-503169Y-410110D02*
D03*
X-493169D02*
D03*
X-503169Y-400110D02*
D03*
X-493169D02*
D03*
X-503169Y-390110D02*
D03*
X-493169D02*
D03*
X-503169Y-380110D02*
D03*
X-493169D02*
D03*
X-503169Y-370110D02*
D03*
X-493169D02*
D03*
X-503169Y-360110D02*
D03*
X-493169D02*
D03*
X-503169Y-350110D02*
D03*
X-493169D02*
D03*
X-503169Y-340110D02*
D03*
X-493169D02*
D03*
X-503169Y-330110D02*
D03*
X-493169D02*
D03*
X-503169Y-320110D02*
D03*
X-493169D02*
D03*
X-503169Y-310110D02*
D03*
X-493169D02*
D03*
X-503169Y-300110D02*
D03*
X-493169D02*
D03*
X-503169Y-290110D02*
D03*
X-493169D02*
D03*
X-503169Y-280110D02*
D03*
X-493169D02*
D03*
X-369756Y-264D02*
D03*
X-361945D02*
D03*
X-700256Y-33953D02*
D03*
Y-41764D02*
D03*
X-701256Y-77264D02*
D03*
Y-85075D02*
D03*
X-561000Y-113000D02*
D03*
X-551000D02*
D03*
X-541000D02*
D03*
X-531000D02*
D03*
X-302756Y13736D02*
D03*
Y3736D02*
D03*
X-414669Y-256610D02*
D03*
X-316756Y-128764D02*
D03*
Y-138764D02*
D03*
X-318669Y-199110D02*
D03*
D132*
X-158169Y-499610D02*
D03*
X-407669Y-623110D02*
D03*
X-571000Y-113000D02*
D03*
X-404669Y-256610D02*
D03*
X-308669Y-199110D02*
D03*
D133*
X-35669Y-20646D02*
D03*
Y-111197D02*
D03*
X-264016D02*
D03*
Y-20646D02*
D03*
X-81205Y-97764D02*
D03*
X-171756D02*
D03*
Y-326110D02*
D03*
X-81205D02*
D03*
D134*
X-307756Y-250764D02*
D03*
X-274669Y-230110D02*
D03*
X-307756Y-301764D02*
D03*
X-279669Y-608610D02*
D03*
X-503169Y-470110D02*
D03*
X-302756Y-6264D02*
D03*
X-316756Y-118764D02*
D03*
D135*
X-691169Y-489110D02*
D03*
Y-260764D02*
D03*
X-498256Y-489110D02*
D03*
Y-260764D02*
D03*
M02*
