G04*
G04 #@! TF.GenerationSoftware,Altium Limited,Altium Designer,21.9.2 (33)*
G04*
G04 Layer_Color=16711935*
%FSLAX25Y25*%
%MOIN*%
G70*
G04*
G04 #@! TF.SameCoordinates,78272FC5-C187-494E-99D2-452C8614685B*
G04*
G04*
G04 #@! TF.FilePolarity,Positive*
G04*
G01*
G75*
%ADD11C,0.00787*%
%ADD14C,0.01000*%
%ADD15C,0.00500*%
%ADD17C,0.00394*%
%ADD160C,0.00000*%
D11*
X-612362Y-57968D02*
G03*
X-612362Y-57968I-394J0D01*
G01*
X-413106Y-57205D02*
G03*
X-413106Y-57205I-394J0D01*
G01*
X-435480Y-312205D02*
G03*
X-435480Y-312205I-394J0D01*
G01*
D14*
X-289669Y-520110D02*
X-153669D01*
Y-619610D02*
Y-520110D01*
X-289669Y-619610D02*
X-153669D01*
X-289669D02*
Y-520110D01*
D15*
X-615906Y-52063D02*
Y-39465D01*
X-609606D01*
Y-52063D02*
Y-39465D01*
X-615906Y-52063D02*
X-609606D01*
X-416650Y-51299D02*
Y-38701D01*
X-410350D01*
Y-51299D02*
Y-38701D01*
X-416650Y-51299D02*
X-410350D01*
X-424457Y-308661D02*
Y-294488D01*
X-438630D02*
X-424457D01*
X-438630Y-308661D02*
Y-294488D01*
Y-308661D02*
X-424457D01*
D17*
X-224902Y-233311D02*
G03*
X-224902Y-233311I-1969J0D01*
G01*
X-388189Y-170669D02*
G03*
X-388189Y-170669I-1969J0D01*
G01*
X-243012Y-249453D02*
Y-229768D01*
X-223327Y-249453D02*
Y-229768D01*
X-243012Y-249453D02*
X-223327D01*
X-243012Y-229768D02*
X-223327D01*
X-207130Y-216173D02*
X-202209D01*
X-207130Y-224047D02*
X-202209D01*
X-207130D02*
Y-216173D01*
X-202209Y-224047D02*
Y-216173D01*
X-239653Y-289807D02*
Y-282720D01*
X-251858Y-289807D02*
Y-282720D01*
X-239653D01*
X-251858Y-289807D02*
X-239653D01*
X-242713Y-190321D02*
X-235626D01*
X-242713Y-202526D02*
X-235626D01*
X-242713D02*
Y-190321D01*
X-235626Y-202526D02*
Y-190321D01*
X-266465Y-313138D02*
Y-306051D01*
X-278669Y-313138D02*
Y-306051D01*
X-266465D01*
X-278669Y-313138D02*
X-266465D01*
X-406693Y-167126D02*
X-386614D01*
X-406693Y-184843D02*
X-386614D01*
Y-167126D01*
X-406693Y-184843D02*
Y-167126D01*
X-321858Y-583205D02*
X-309653D01*
X-321858Y-590291D02*
X-309653D01*
Y-583205D01*
X-321858Y-590291D02*
Y-583205D01*
X-443902Y-459559D02*
Y-447354D01*
X-436815Y-459559D02*
Y-447354D01*
X-443902D02*
X-436815D01*
X-443902Y-459559D02*
X-436815D01*
D160*
X-482456Y-48864D02*
G03*
X-480056Y-48864I1200J0D01*
G01*
X-487156Y-60664D02*
Y-48864D01*
X-482456D01*
X-480056D01*
X-475356D01*
Y-60664D02*
Y-48864D01*
X-487156Y-60664D02*
X-475356D01*
M02*
