G04*
G04 #@! TF.GenerationSoftware,Altium Limited,Altium Designer,21.9.2 (33)*
G04*
G04 Layer_Color=255*
%FSLAX25Y25*%
%MOIN*%
G70*
G04*
G04 #@! TF.SameCoordinates,78272FC5-C187-494E-99D2-452C8614685B*
G04*
G04*
G04 #@! TF.FilePolarity,Positive*
G04*
G01*
G75*
%ADD19C,0.03937*%
%ADD21R,0.05118X0.04724*%
%ADD22R,0.04331X0.03937*%
%ADD23R,0.03937X0.04331*%
%ADD26R,0.03543X0.02756*%
%ADD27R,0.04508X0.02165*%
%ADD28R,0.02165X0.04508*%
%ADD29R,0.02756X0.03543*%
%ADD30O,0.02756X0.00787*%
%ADD31O,0.00787X0.02756*%
%ADD33R,0.03543X0.01575*%
%ADD34R,0.02559X0.04331*%
%ADD35R,0.04331X0.02559*%
%ADD36R,0.05000X0.04000*%
%ADD37R,0.01378X0.01181*%
%ADD38R,0.01181X0.01378*%
G04:AMPARAMS|DCode=39|XSize=29.92mil|YSize=8.66mil|CornerRadius=0.26mil|HoleSize=0mil|Usage=FLASHONLY|Rotation=0.000|XOffset=0mil|YOffset=0mil|HoleType=Round|Shape=RoundedRectangle|*
%AMROUNDEDRECTD39*
21,1,0.02992,0.00814,0,0,0.0*
21,1,0.02940,0.00866,0,0,0.0*
1,1,0.00052,0.01470,-0.00407*
1,1,0.00052,-0.01470,-0.00407*
1,1,0.00052,-0.01470,0.00407*
1,1,0.00052,0.01470,0.00407*
%
%ADD39ROUNDEDRECTD39*%
G04:AMPARAMS|DCode=40|XSize=29.92mil|YSize=8.66mil|CornerRadius=0.26mil|HoleSize=0mil|Usage=FLASHONLY|Rotation=270.000|XOffset=0mil|YOffset=0mil|HoleType=Round|Shape=RoundedRectangle|*
%AMROUNDEDRECTD40*
21,1,0.02992,0.00814,0,0,270.0*
21,1,0.02940,0.00866,0,0,270.0*
1,1,0.00052,-0.00407,-0.01470*
1,1,0.00052,-0.00407,0.01470*
1,1,0.00052,0.00407,0.01470*
1,1,0.00052,0.00407,-0.01470*
%
%ADD40ROUNDEDRECTD40*%
%ADD41R,0.01378X0.06693*%
%ADD42R,0.09095X0.09685*%
%ADD43R,0.07087X0.06299*%
%ADD44R,0.06299X0.07087*%
%ADD45R,0.05118X0.05906*%
%ADD46R,0.03268X0.02480*%
%ADD47R,0.06500X0.09400*%
%ADD48R,0.03200X0.01100*%
%ADD49R,0.13780X0.09252*%
%ADD50R,0.03150X0.07087*%
%ADD51R,0.05512X0.09843*%
%ADD52R,0.11811X0.09055*%
%ADD53R,0.09843X0.05512*%
%ADD54R,0.05906X0.05118*%
%ADD55R,0.09449X0.10236*%
%ADD56R,0.09646X0.11024*%
%ADD57R,0.10236X0.09449*%
%ADD58R,0.03150X0.07480*%
%ADD59R,0.05906X0.09843*%
%ADD60R,0.05709X0.09843*%
%ADD119R,0.00709X0.03661*%
%ADD120R,0.10236X0.05512*%
%ADD121R,0.05906X0.07087*%
%ADD122R,0.07087X0.05906*%
%ADD123R,0.13386X0.13386*%
%ADD124R,0.09055X0.09055*%
%ADD129C,0.06000*%
%ADD130C,0.22100*%
%ADD131C,0.05906*%
%ADD132R,0.05906X0.05906*%
%ADD133C,0.11811*%
%ADD134R,0.05906X0.05906*%
%ADD135C,0.15748*%
D19*
X-729000Y-519500D02*
D03*
X0D02*
D03*
Y0D02*
D03*
X-729000D02*
D03*
D21*
X-612756Y-38480D02*
D03*
Y-53047D02*
D03*
X-413500Y-37716D02*
D03*
Y-52284D02*
D03*
D22*
X-496654Y-58500D02*
D03*
X-503346D02*
D03*
X-496654Y-64500D02*
D03*
X-503346D02*
D03*
X-499346Y-39500D02*
D03*
X-492654D02*
D03*
X-495409Y-51764D02*
D03*
X-502102D02*
D03*
X-494654Y-46000D02*
D03*
X-501346D02*
D03*
X-401909Y-153264D02*
D03*
X-408602D02*
D03*
D23*
X-497500Y-78347D02*
D03*
Y-71653D02*
D03*
X-291331Y-132197D02*
D03*
Y-138890D02*
D03*
X-283831Y-138890D02*
D03*
Y-132197D02*
D03*
X-378331Y-525736D02*
D03*
Y-519043D02*
D03*
X-369831Y-519043D02*
D03*
Y-525736D02*
D03*
X-382169Y-604764D02*
D03*
Y-611457D02*
D03*
X-368669Y-604764D02*
D03*
Y-611457D02*
D03*
X-503500Y-71653D02*
D03*
Y-78347D02*
D03*
X-509500Y-71653D02*
D03*
Y-78347D02*
D03*
X-653256Y-41610D02*
D03*
Y-34917D02*
D03*
X-329256Y3583D02*
D03*
Y-3110D02*
D03*
D26*
X-257110Y-577610D02*
D03*
X-262228D02*
D03*
X-257110Y-569610D02*
D03*
X-262228D02*
D03*
X-421110Y-449610D02*
D03*
X-426228D02*
D03*
X-210610Y-235110D02*
D03*
X-215728D02*
D03*
X-242228Y-257110D02*
D03*
X-237110D02*
D03*
X-288610Y-240610D02*
D03*
X-293728D02*
D03*
X-257382Y-192837D02*
D03*
X-252264D02*
D03*
X-220764Y-200337D02*
D03*
X-225882D02*
D03*
X-257382D02*
D03*
X-252264D02*
D03*
X-272610Y-321610D02*
D03*
X-277728D02*
D03*
X-422610Y-284610D02*
D03*
X-427728D02*
D03*
X-426728Y-457110D02*
D03*
X-421610D02*
D03*
X-400815Y-201764D02*
D03*
X-395697D02*
D03*
X-453610Y-449610D02*
D03*
X-458728D02*
D03*
D27*
X-262114Y-422713D02*
D03*
Y-419563D02*
D03*
Y-413264D02*
D03*
Y-416413D02*
D03*
Y-410114D02*
D03*
Y-406965D02*
D03*
X-270756D02*
D03*
Y-410114D02*
D03*
Y-416413D02*
D03*
Y-413264D02*
D03*
Y-419563D02*
D03*
Y-422713D02*
D03*
D28*
X-266435Y-423097D02*
D03*
Y-406581D02*
D03*
D29*
X-250669Y-228551D02*
D03*
Y-233669D02*
D03*
X-233669Y-217051D02*
D03*
Y-222169D02*
D03*
X-289169Y-286551D02*
D03*
Y-291669D02*
D03*
X-214669Y-220051D02*
D03*
Y-225169D02*
D03*
X-194425Y-218763D02*
D03*
Y-223881D02*
D03*
X-241669Y-269051D02*
D03*
Y-274169D02*
D03*
X-252669Y-304669D02*
D03*
Y-299551D02*
D03*
X-249669Y-268551D02*
D03*
Y-273669D02*
D03*
X-268480Y-292382D02*
D03*
Y-297500D02*
D03*
X-276480Y-291882D02*
D03*
Y-297000D02*
D03*
X-266256Y-459323D02*
D03*
Y-454205D02*
D03*
X-260256Y-459323D02*
D03*
Y-454205D02*
D03*
X-272256Y-454205D02*
D03*
Y-459323D02*
D03*
X-252669Y-422051D02*
D03*
Y-427169D02*
D03*
X-339169Y-133551D02*
D03*
Y-138669D02*
D03*
X-311756Y-603807D02*
D03*
Y-598689D02*
D03*
X-319756Y-598189D02*
D03*
Y-603307D02*
D03*
X-465000Y-51441D02*
D03*
Y-56559D02*
D03*
X-311756Y-572307D02*
D03*
Y-567189D02*
D03*
D30*
X-223327Y-232720D02*
D03*
Y-234689D02*
D03*
Y-236658D02*
D03*
Y-238626D02*
D03*
Y-240595D02*
D03*
Y-242563D02*
D03*
Y-244531D02*
D03*
Y-246500D02*
D03*
X-243012D02*
D03*
Y-244531D02*
D03*
Y-242563D02*
D03*
Y-240595D02*
D03*
Y-238626D02*
D03*
Y-236658D02*
D03*
Y-234689D02*
D03*
Y-232720D02*
D03*
D31*
X-226279Y-249453D02*
D03*
X-228248D02*
D03*
X-230217D02*
D03*
X-232185D02*
D03*
X-234154D02*
D03*
X-236122D02*
D03*
X-238090D02*
D03*
X-240059D02*
D03*
Y-229768D02*
D03*
X-238090D02*
D03*
X-236122D02*
D03*
X-234154D02*
D03*
X-232185D02*
D03*
X-230217D02*
D03*
X-228248D02*
D03*
X-226279D02*
D03*
D33*
X-209000Y-222669D02*
D03*
Y-217551D02*
D03*
X-200339D02*
D03*
Y-220110D02*
D03*
Y-222669D02*
D03*
D34*
X-249496Y-281539D02*
D03*
X-242016D02*
D03*
Y-290988D02*
D03*
X-245756D02*
D03*
X-249496D02*
D03*
X-276307Y-304870D02*
D03*
X-268827D02*
D03*
Y-314319D02*
D03*
X-272567D02*
D03*
X-276307D02*
D03*
X-312016Y-582024D02*
D03*
X-315756D02*
D03*
X-319496D02*
D03*
Y-591472D02*
D03*
X-312016D02*
D03*
D35*
X-243894Y-200164D02*
D03*
Y-192683D02*
D03*
X-234445D02*
D03*
Y-196424D02*
D03*
Y-200164D02*
D03*
X-445083Y-449717D02*
D03*
Y-453457D02*
D03*
Y-457197D02*
D03*
X-435634D02*
D03*
Y-449717D02*
D03*
D36*
X-298169Y-598760D02*
D03*
Y-593460D02*
D03*
X-331169Y-133460D02*
D03*
Y-138760D02*
D03*
D37*
X-270256Y-440295D02*
D03*
Y-442264D02*
D03*
Y-438327D02*
D03*
Y-444232D02*
D03*
X-263957Y-438327D02*
D03*
Y-440295D02*
D03*
Y-442264D02*
D03*
Y-444232D02*
D03*
D38*
X-268091Y-438130D02*
D03*
X-266122D02*
D03*
Y-444429D02*
D03*
X-268091D02*
D03*
D39*
X-438354Y-305512D02*
D03*
Y-303937D02*
D03*
Y-302362D02*
D03*
Y-300787D02*
D03*
Y-299213D02*
D03*
Y-297638D02*
D03*
X-424732D02*
D03*
Y-299213D02*
D03*
Y-300787D02*
D03*
Y-302362D02*
D03*
Y-303937D02*
D03*
Y-305512D02*
D03*
D40*
X-435480Y-294764D02*
D03*
X-433906D02*
D03*
X-432331D02*
D03*
X-430756D02*
D03*
X-429181D02*
D03*
X-427606D02*
D03*
Y-308386D02*
D03*
X-429181D02*
D03*
X-430756D02*
D03*
X-432331D02*
D03*
X-433906D02*
D03*
X-435480D02*
D03*
D41*
X-387697Y-164764D02*
D03*
X-390256D02*
D03*
X-392815D02*
D03*
X-395374D02*
D03*
X-397933D02*
D03*
X-400492D02*
D03*
X-403051D02*
D03*
X-405610D02*
D03*
X-387697Y-187205D02*
D03*
X-390256D02*
D03*
X-392815D02*
D03*
X-395374D02*
D03*
X-397933D02*
D03*
X-400492D02*
D03*
X-403051D02*
D03*
X-405610D02*
D03*
D42*
X-396654Y-175984D02*
D03*
D43*
X-536256Y-50776D02*
D03*
Y-39752D02*
D03*
D44*
X-504512Y-32000D02*
D03*
X-493488D02*
D03*
X-476244Y-78764D02*
D03*
X-487268D02*
D03*
D45*
X-480016Y-69764D02*
D03*
X-487496D02*
D03*
D46*
X-467500Y-74028D02*
D03*
Y-64972D02*
D03*
D47*
X-481256Y-54764D02*
D03*
D48*
X-475556Y-50364D02*
D03*
Y-52064D02*
D03*
Y-53864D02*
D03*
Y-55664D02*
D03*
Y-57464D02*
D03*
Y-59164D02*
D03*
X-486956D02*
D03*
Y-57464D02*
D03*
Y-55664D02*
D03*
Y-53864D02*
D03*
Y-52064D02*
D03*
Y-50364D02*
D03*
D49*
X-450000Y-53591D02*
D03*
Y-77409D02*
D03*
D50*
X-567457Y-39764D02*
D03*
X-573756D02*
D03*
D51*
X-471661Y-36500D02*
D03*
X-454339D02*
D03*
D52*
X-670756Y-35028D02*
D03*
Y-55500D02*
D03*
D53*
X-637256Y-34602D02*
D03*
Y-51925D02*
D03*
D54*
X-588756Y-10524D02*
D03*
Y-18004D02*
D03*
D55*
X-553756Y-64862D02*
D03*
Y-39665D02*
D03*
X-589256Y-64362D02*
D03*
Y-39165D02*
D03*
D56*
X-368071Y-142610D02*
D03*
X-380669D02*
D03*
X-368071Y-104028D02*
D03*
X-380669D02*
D03*
D57*
X-395158Y-218264D02*
D03*
X-420354D02*
D03*
D58*
X-448661Y-393610D02*
D03*
X-444331D02*
D03*
X-440000D02*
D03*
X-435669D02*
D03*
X-431339D02*
D03*
X-427008D02*
D03*
X-422677D02*
D03*
X-418347D02*
D03*
D59*
X-409358Y-384161D02*
D03*
X-409858Y-417161D02*
D03*
D60*
X-464311Y-384161D02*
D03*
X-464358Y-417161D02*
D03*
D119*
X-164669Y-364224D02*
D03*
Y-382610D02*
D03*
X-166244Y-364224D02*
D03*
Y-382610D02*
D03*
X-167819Y-364224D02*
D03*
Y-382610D02*
D03*
X-169394Y-364224D02*
D03*
Y-382610D02*
D03*
X-170968Y-364224D02*
D03*
Y-382610D02*
D03*
X-172543Y-364224D02*
D03*
Y-382610D02*
D03*
X-174118Y-364224D02*
D03*
Y-382610D02*
D03*
X-175693Y-364224D02*
D03*
Y-382610D02*
D03*
X-177268Y-364224D02*
D03*
Y-382610D02*
D03*
X-178842Y-364224D02*
D03*
Y-382610D02*
D03*
D120*
X-612756Y-45764D02*
D03*
X-413500Y-45000D02*
D03*
D121*
X-203693Y-595575D02*
D03*
X-211173D02*
D03*
X-218653D02*
D03*
X-226134D02*
D03*
X-233614D02*
D03*
Y-543606D02*
D03*
X-226134D02*
D03*
X-218653D02*
D03*
X-211173D02*
D03*
X-203693D02*
D03*
D122*
X-244638Y-584551D02*
D03*
Y-577071D02*
D03*
Y-569591D02*
D03*
Y-562110D02*
D03*
Y-554630D02*
D03*
X-192669D02*
D03*
Y-562110D02*
D03*
Y-569591D02*
D03*
Y-577071D02*
D03*
Y-584551D02*
D03*
D123*
X-233169Y-239610D02*
D03*
D124*
X-431543Y-301575D02*
D03*
D129*
X-343169Y-400110D02*
D03*
Y-390110D02*
D03*
Y-380110D02*
D03*
X-353169Y-480110D02*
D03*
X-333169Y-350110D02*
D03*
Y-360110D02*
D03*
Y-370110D02*
D03*
Y-380110D02*
D03*
Y-390110D02*
D03*
Y-400110D02*
D03*
Y-410110D02*
D03*
Y-420110D02*
D03*
Y-430110D02*
D03*
Y-440110D02*
D03*
Y-450110D02*
D03*
Y-460110D02*
D03*
Y-470110D02*
D03*
Y-480110D02*
D03*
X-343169D02*
D03*
X-363169D02*
D03*
X-373169D02*
D03*
X-383169D02*
D03*
X-393169D02*
D03*
Y-470110D02*
D03*
Y-460110D02*
D03*
Y-450110D02*
D03*
Y-440110D02*
D03*
Y-430110D02*
D03*
Y-420110D02*
D03*
Y-410110D02*
D03*
Y-400110D02*
D03*
Y-390110D02*
D03*
Y-380110D02*
D03*
Y-370110D02*
D03*
Y-360110D02*
D03*
Y-350110D02*
D03*
X-112614Y-474500D02*
D03*
X-211000D02*
D03*
D130*
Y-322138D02*
D03*
X-53756Y-257264D02*
D03*
X-366256Y-569764D02*
D03*
D131*
X-178169Y-499610D02*
D03*
X-168169D02*
D03*
X-188169D02*
D03*
X-198169D02*
D03*
X-208169D02*
D03*
X-218169D02*
D03*
X-307756Y-230764D02*
D03*
Y-240764D02*
D03*
X-274669Y-240110D02*
D03*
X-307756Y-281764D02*
D03*
Y-291764D02*
D03*
X-417669Y-623110D02*
D03*
X-427669D02*
D03*
X-437669D02*
D03*
X-279669Y-588610D02*
D03*
Y-578610D02*
D03*
Y-568610D02*
D03*
Y-558610D02*
D03*
Y-548610D02*
D03*
Y-538610D02*
D03*
Y-528610D02*
D03*
Y-598610D02*
D03*
X-493169Y-470110D02*
D03*
X-503169Y-460110D02*
D03*
X-493169D02*
D03*
X-503169Y-450110D02*
D03*
X-493169D02*
D03*
X-503169Y-440110D02*
D03*
X-493169D02*
D03*
X-503169Y-430110D02*
D03*
X-493169D02*
D03*
X-503169Y-420110D02*
D03*
X-493169D02*
D03*
X-503169Y-410110D02*
D03*
X-493169D02*
D03*
X-503169Y-400110D02*
D03*
X-493169D02*
D03*
X-503169Y-390110D02*
D03*
X-493169D02*
D03*
X-503169Y-380110D02*
D03*
X-493169D02*
D03*
X-503169Y-370110D02*
D03*
X-493169D02*
D03*
X-503169Y-360110D02*
D03*
X-493169D02*
D03*
X-503169Y-350110D02*
D03*
X-493169D02*
D03*
X-503169Y-340110D02*
D03*
X-493169D02*
D03*
X-503169Y-330110D02*
D03*
X-493169D02*
D03*
X-503169Y-320110D02*
D03*
X-493169D02*
D03*
X-503169Y-310110D02*
D03*
X-493169D02*
D03*
X-503169Y-300110D02*
D03*
X-493169D02*
D03*
X-503169Y-290110D02*
D03*
X-493169D02*
D03*
X-503169Y-280110D02*
D03*
X-493169D02*
D03*
X-369756Y-264D02*
D03*
X-361945D02*
D03*
X-700256Y-33953D02*
D03*
Y-41764D02*
D03*
X-701256Y-77264D02*
D03*
Y-85075D02*
D03*
X-561000Y-113000D02*
D03*
X-551000D02*
D03*
X-541000D02*
D03*
X-531000D02*
D03*
X-302756Y13736D02*
D03*
Y3736D02*
D03*
X-414669Y-256610D02*
D03*
X-316756Y-128764D02*
D03*
Y-138764D02*
D03*
X-318669Y-199110D02*
D03*
D132*
X-158169Y-499610D02*
D03*
X-407669Y-623110D02*
D03*
X-571000Y-113000D02*
D03*
X-404669Y-256610D02*
D03*
X-308669Y-199110D02*
D03*
D133*
X-35669Y-20646D02*
D03*
Y-111197D02*
D03*
X-264016D02*
D03*
Y-20646D02*
D03*
X-81205Y-97764D02*
D03*
X-171756D02*
D03*
Y-326110D02*
D03*
X-81205D02*
D03*
D134*
X-307756Y-250764D02*
D03*
X-274669Y-230110D02*
D03*
X-307756Y-301764D02*
D03*
X-279669Y-608610D02*
D03*
X-503169Y-470110D02*
D03*
X-302756Y-6264D02*
D03*
X-316756Y-118764D02*
D03*
D135*
X-691169Y-489110D02*
D03*
Y-260764D02*
D03*
X-498256Y-489110D02*
D03*
Y-260764D02*
D03*
M02*
