M48
;Layer_Color=9474304
;FILE_FORMAT=2:5
INCH,TZ
;TYPE=PLATED
T1F00S00C0.00787
T2F00S00C0.01000
T3F00S00C0.01500
T4F00S00C0.01600
T5F00S00C0.02800
T6F00S00C0.03543
T7F00S00C0.12000
T8F00S00C0.22100
;TYPE=NON_PLATED
T9F00S00C0.04252
T10F00S00C0.04449
T11F00S00C0.06220
T12F00S00C0.06417
%
T01
X-280001Y-204559
X-275671
Y-200228
X-280001
X-526094Y-139110
Y-133598
X-531606
X-528850Y-136354
X-531606Y-139110
X-528850Y-141866
X-534362
X-537118Y-139110
Y-133598
X-534362Y-136354
Y-130842
X-528850
T02
X-111756Y-401764
X-74256Y-426764
X-36756Y-451764
X-11756
Y-401764
X25744Y-326764
X50744
X125744
Y-276764
X100744
X88244Y-251764
X63244
X38244
X13244
X25744Y-226764
X50744
X75744
X100744
X125744
X88244Y-201764
X63244
X38244
X13244
X25744Y-276764
X-11756Y-251764
X744Y-226764
X-11756Y-201764
X744Y-176764
X-11756Y-151764
X744Y-126764
X-11756Y-101764
Y-51764
X13244
X38244
X63244
X88244
X113244
X125744Y-76764
X100744
X75744
X50744
X25744
X38244Y-101764
X63244
X75744Y-126764
X100744
X125744
Y-176764
X100744
X75744
X50744
X25744
X38244Y-151764
X63244
X88244
X50744Y-126764
X25744
X13244Y-101764
Y-151764
T03
X-121756Y-471764
X-111756
X-101756
X-91756
X-81756
X-56756Y-461764
X-46756
X-41756Y-451764
X-36756Y-441764
X-26756
X-16756
X-21756Y-431764
X-31756
X-26756Y-421764
X-16756
X-21756Y-411764
X-31756
X-26756Y-401764
X-16756
X-21756Y-391764
X-31756
X-41756
X-51756
X-61756
X-71756
Y-411764
X-61756
X-56756Y-421764
X-66756
X-76756
X-86756
X-81756Y-411764
Y-431764
X-71756
X-61756
X-56756Y-441764
X-66756
X-76756
X-86756
X-91756Y-431764
X-101756Y-451764
X-111756
X-121756
X-116756Y-441764
X-126756
Y-421764
X-116756
X-111756Y-411764
X-106756Y-401764
X-96756
X-91756Y-391764
X-101756
X-111756
X-46756Y-401764
X-36756
Y-421764
X-21756Y-451764
X-16756Y-461764
X-26756
X-21756Y-471764
X-31756
T04
X-364000Y77012
Y83012
X-363336Y88975
X-362000Y99000
X-334000Y101000
X-339000Y110000
X-327500Y75000
T05
X-481256Y-355610
X-469000Y-360500
X-419000Y-380000
X-414000Y-389500
X-404500Y-387500
X-398000Y-397500
X-361412Y-394912
X-366500Y-385500
X-345500Y-383000
X-340000Y-393000
X-365000Y-348500
X-373500Y-448500
X-384500Y-442000
X-362000Y-461500
X-173669Y-425610
X-160000Y-428000
X-175669Y-396110
X-189169Y-388610
X-149500Y-365000
X-156000Y-358500
X-96500Y-358000
X4831Y-352110
X-500Y-426000
X-65169Y-464110
X116331Y-348610
X76095Y-327461
X75094Y-292961
X89595Y-280461
X5744Y-282610
X-208669Y-339610
X-260446Y-261224
X-287442Y-251500
X-286370Y-274630
X-271836Y-228894
X-276000Y-221500
X-305500Y-211500
X-307394Y-201606
X-314500Y-194500
X-333506Y-260504
X-326505Y-297004
X-375000Y-299000
X-379000Y-320500
X-358650Y-316350
X-417000Y-267000
X-470000Y-327500
X-556500Y-204000
X-571500Y-216500
X-513500Y-56500
X-354236Y-71669
X-346559Y-152059
X-323441Y-145559
X-304923Y-151317
X-300077Y-141577
X-301423Y-187817
X-324000Y-189000
X-372059Y-157559
X-381559Y-146559
X-395559Y-149559
X-393559Y-132559
X-396000Y-123000
X-409000Y-128000
X-272000Y-126000
X-279000Y-107000
X-285876Y-151376
X-285500Y-172000
X-140169Y-93610
X-92500Y-125000
X-40000Y20500
X-48756Y86756
X-59336Y93336
X-158500Y4000
X-185669Y23890
X-252000Y1500
X-276000Y78500
X-333000Y46000
X-407500Y61000
X-383000Y103500
X-580500Y-28500
X-453000Y133000
X-329500Y130500
T06
X-291669Y-480110
X-281669
X-271669
X-261669
X-133669Y-465610
Y-455610
Y-445610
Y-435610
Y-425610
Y-415610
Y-405610
Y-395610
Y-385610
X-201500Y-266500
X-211500
X-236836Y-243894
Y-233894
Y-223894
Y-193394
X-305336Y-220894
Y-230894
X-338092Y-231157
Y-241158
Y-221158
Y-201394
Y-191394
X-466000Y-187000
X-476000
X-486000
X-496000
X-506000
X-516000
X-526000
X-536000
X-546000
X-556000
X-566000
X-576000
X-586000
X-596000
Y-77000
X-586000
X-576000
X-566000
X-556000
X-546000
X-536000
X-526000
X-516000
X-506000
X-496000
X-486000
X-476000
X-466000
X-440500
Y-87000
Y-97000
Y-107000
Y-117000
Y-127000
Y-137000
Y-147000
Y-157000
Y-167000
Y-177000
Y-187000
X-338092Y-181394
X-236836Y-183394
Y-173394
X-238000Y-146500
X-248000
X-258000
X-228000
X-218000
X-170756Y4236
Y14236
Y24236
X-385000Y20000
Y30000
X-395000
Y20000
X-405000
Y30000
X-415000
Y20000
X-425000
Y30000
X-555256Y57925
Y65736
X-554256Y101236
Y109047
X-234256Y142579
Y150390
X-207256Y150374
Y142563
X-156756Y146736
Y156736
Y136736
X54500Y161500
X64500
X74500
X84500
X94500
X104500
X114500
T07
X125500Y-10362
Y142000
T08
X-220256Y-426764
T09
X93599Y-89209
T10
X95173Y-287240
T11
X-1677Y-89209
T12
X-3252Y-287240
M30
