G04*
G04 #@! TF.GenerationSoftware,Altium Limited,Altium Designer,21.9.2 (33)*
G04*
G04 Layer_Physical_Order=3*
G04 Layer_Color=128*
%FSLAX25Y25*%
%MOIN*%
G70*
G04*
G04 #@! TF.SameCoordinates,F288ADE3-11F9-4013-B332-8579F702BAE8*
G04*
G04*
G04 #@! TF.FilePolarity,Negative*
G04*
G01*
G75*
%ADD12C,0.01000*%
%ADD127C,0.04000*%
%ADD140C,0.05000*%
%ADD146C,0.16000*%
%ADD147C,0.07543*%
G04:AMPARAMS|DCode=148|XSize=95.433mil|YSize=95.433mil|CornerRadius=0mil|HoleSize=0mil|Usage=FLASHONLY|Rotation=0.000|XOffset=0mil|YOffset=0mil|HoleType=Round|Shape=Relief|Width=10mil|Gap=10mil|Entries=4|*
%AMTHD148*
7,0,0,0.09543,0.07543,0.01000,45*
%
%ADD148THD148*%
%ADD149C,0.08252*%
%ADD150C,0.10221*%
%ADD151C,0.08449*%
%ADD152C,0.10417*%
%ADD154C,0.26100*%
G04:AMPARAMS|DCode=155|XSize=88mil|YSize=88mil|CornerRadius=0mil|HoleSize=0mil|Usage=FLASHONLY|Rotation=0.000|XOffset=0mil|YOffset=0mil|HoleType=Round|Shape=Relief|Width=10mil|Gap=10mil|Entries=4|*
%AMTHD155*
7,0,0,0.08800,0.06800,0.01000,45*
%
%ADD155THD155*%
%ADD156C,0.06800*%
G04:AMPARAMS|DCode=158|XSize=76mil|YSize=76mil|CornerRadius=0mil|HoleSize=0mil|Usage=FLASHONLY|Rotation=0.000|XOffset=0mil|YOffset=0mil|HoleType=Round|Shape=Relief|Width=10mil|Gap=10mil|Entries=4|*
%AMTHD158*
7,0,0,0.07600,0.05600,0.01000,45*
%
%ADD158THD158*%
%ADD159C,0.05600*%
%ADD161C,0.04787*%
%ADD162C,0.05500*%
D12*
X-20756Y-359610D02*
X112244D01*
X-20756Y-67610D02*
X112244D01*
Y-359610D02*
Y-67610D01*
X-20756Y-359610D02*
Y-67610D01*
X-366500Y-135500D02*
X-229500D01*
X-206500D01*
X-206500Y-315500D01*
X-344500Y-315500D02*
X-206500Y-315500D01*
X-366500Y-293500D02*
X-344500Y-315500D01*
X-366500Y-135500D02*
X-366500Y-293500D01*
D127*
X-535234Y-447531D02*
Y-446411D01*
Y-447531D02*
X-534984Y-448623D01*
X-534499Y-449631D01*
X-533801Y-450507D01*
X-484008Y-500299D01*
X-482972Y-501094D01*
X-481766Y-501593D01*
X-480472Y-501764D01*
X39961Y-501764D01*
X41255Y-501593D01*
X42461Y-501094D01*
X43496Y-500299D01*
X93289Y-450507D01*
X93987Y-449631D01*
X94473Y-448622D01*
X94722Y-447531D01*
Y-446411D01*
X94473Y-445320D02*
X94722Y-446411D01*
X93987Y-444311D02*
X94473Y-445320D01*
X93289Y-443435D02*
X93987Y-444311D01*
X78774Y-428920D02*
X93289Y-443435D01*
X77400Y-427246D02*
X78774Y-428920D01*
X76378Y-425336D02*
X77400Y-427246D01*
X75750Y-423263D02*
X76378Y-425336D01*
X75537Y-421107D02*
X75750Y-423263D01*
X75537Y-421107D02*
X75750Y-418951D01*
X76378Y-416878D01*
X77400Y-414968D01*
X78774Y-413293D01*
X80448Y-411919D01*
X82359Y-410898D01*
X84432Y-410269D01*
X86587Y-410057D01*
X88743Y-410269D01*
X90816Y-410898D01*
X92726Y-411919D01*
X94401Y-413293D01*
X108916Y-427808D01*
X109791Y-428507D01*
X110800Y-428992D01*
X111892Y-429242D01*
X113011D01*
X114103Y-428992D01*
X115112Y-428507D01*
X115987Y-427808D01*
X165780Y-378016D01*
X166574Y-376980D01*
X167074Y-375774D01*
X167244Y-374480D01*
Y145953D01*
X167074Y147247D02*
X167244Y145953D01*
X166574Y148453D02*
X167074Y147247D01*
X165780Y149488D02*
X166574Y148453D01*
X115987Y199281D02*
X165780Y149488D01*
X115112Y199979D02*
X115987Y199281D01*
X114103Y200465D02*
X115112Y199979D01*
X113011Y200714D02*
X114103Y200465D01*
X111892Y200714D02*
X113011D01*
X110800Y200465D02*
X111892Y200714D01*
X109791Y199979D02*
X110800Y200465D01*
X108916Y199281D02*
X109791Y199979D01*
X94401Y184766D02*
X108916Y199281D01*
X92726Y183392D02*
X94401Y184766D01*
X90816Y182370D02*
X92726Y183392D01*
X88743Y181742D02*
X90816Y182370D01*
X86587Y181529D02*
X88743Y181742D01*
X84431D02*
X86587Y181529D01*
X82359Y182370D02*
X84431Y181742D01*
X80448Y183392D02*
X82359Y182370D01*
X78774Y184766D02*
X80448Y183392D01*
X77399Y186440D02*
X78774Y184766D01*
X76378Y188351D02*
X77399Y186440D01*
X75750Y190424D02*
X76378Y188351D01*
X75537Y192579D02*
X75750Y190424D01*
X75537Y192579D02*
X75750Y194735D01*
X76378Y196808D01*
X77399Y198719D01*
X78774Y200393D01*
X93289Y214908D01*
X93987Y215783D01*
X94473Y216792D01*
X94722Y217884D01*
Y219003D01*
X94473Y220095D02*
X94722Y219003D01*
X93987Y221104D02*
X94473Y220095D01*
X93289Y221979D02*
X93987Y221104D01*
X43496Y271772D02*
X93289Y221979D01*
X42461Y272566D02*
X43496Y271772D01*
X41255Y273066D02*
X42461Y272566D01*
X39961Y273236D02*
X41255Y273066D01*
X-90148Y273236D02*
X39961D01*
X-198648Y164736D02*
X-90148Y273236D01*
X-241864Y164736D02*
X-198648D01*
X-350364Y273236D02*
X-241864Y164736D01*
X-480472Y273236D02*
X-350364D01*
X-481766Y273066D02*
X-480472Y273236D01*
X-482972Y272566D02*
X-481766Y273066D01*
X-484008Y271772D02*
X-482972Y272566D01*
X-533801Y221979D02*
X-484008Y271772D01*
X-534499Y221104D02*
X-533801Y221979D01*
X-534984Y220095D02*
X-534499Y221104D01*
X-535234Y219003D02*
X-534984Y220095D01*
X-535234Y217884D02*
Y219003D01*
Y217884D02*
X-534984Y216792D01*
X-534499Y215783D01*
X-533801Y214908D01*
X-519285Y200393D01*
X-517911Y198718D01*
X-516890Y196808D01*
X-516261Y194735D01*
X-516049Y192579D01*
X-516261Y190424D02*
X-516049Y192579D01*
X-516890Y188351D02*
X-516261Y190424D01*
X-517911Y186440D02*
X-516890Y188351D01*
X-519285Y184766D02*
X-517911Y186440D01*
X-520960Y183392D02*
X-519285Y184766D01*
X-522870Y182370D02*
X-520960Y183392D01*
X-524943Y181742D02*
X-522870Y182370D01*
X-527099Y181529D02*
X-524943Y181742D01*
X-529255D02*
X-527099Y181529D01*
X-531328Y182370D02*
X-529255Y181742D01*
X-533238Y183392D02*
X-531328Y182370D01*
X-534913Y184766D02*
X-533238Y183392D01*
X-549428Y199281D02*
X-534913Y184766D01*
X-550303Y199979D02*
X-549428Y199281D01*
X-551312Y200465D02*
X-550303Y199979D01*
X-552403Y200714D02*
X-551312Y200465D01*
X-553523Y200714D02*
X-552403D01*
X-554615Y200465D02*
X-553523Y200714D01*
X-555623Y199979D02*
X-554615Y200465D01*
X-556499Y199281D02*
X-555623Y199979D01*
X-606291Y149488D02*
X-556499Y199281D01*
X-607086Y148453D02*
X-606291Y149488D01*
X-607585Y147247D02*
X-607086Y148453D01*
X-607756Y145953D02*
X-607585Y147247D01*
X-607756Y145953D02*
X-607756Y-374480D01*
X-607585Y-375774D01*
X-607086Y-376980D01*
X-606291Y-378016D01*
X-556499Y-427809D01*
X-555623Y-428507D01*
X-554614Y-428992D01*
X-553523Y-429242D01*
X-552403D01*
X-551312Y-428992D01*
X-550303Y-428507D01*
X-549428Y-427809D01*
X-534912Y-413293D01*
X-533238Y-411919D01*
X-531328Y-410898D01*
X-529255Y-410269D01*
X-527099Y-410057D01*
X-524943Y-410269D01*
X-522870Y-410898D01*
X-520960Y-411919D01*
X-519285Y-413293D01*
X-517911Y-414968D01*
X-516890Y-416878D01*
X-516261Y-418951D01*
X-516049Y-421107D01*
X-516261Y-423263D02*
X-516049Y-421107D01*
X-516890Y-425336D02*
X-516261Y-423263D01*
X-517911Y-427246D02*
X-516890Y-425336D01*
X-519285Y-428921D02*
X-517911Y-427246D01*
X-533801Y-443435D02*
X-519285Y-428921D01*
X-534499Y-444311D02*
X-533801Y-443435D01*
X-534984Y-445320D02*
X-534499Y-444311D01*
X-535234Y-446411D02*
X-534984Y-445320D01*
D140*
X113244Y-51764D02*
D03*
X125744Y-76764D02*
D03*
Y-126764D02*
D03*
Y-176764D02*
D03*
Y-226764D02*
D03*
Y-276764D02*
D03*
Y-326764D02*
D03*
X88244Y-51764D02*
D03*
X100744Y-76764D02*
D03*
Y-126764D02*
D03*
X88244Y-151764D02*
D03*
X100744Y-176764D02*
D03*
X88244Y-201764D02*
D03*
X100744Y-226764D02*
D03*
X88244Y-251764D02*
D03*
X100744Y-276764D02*
D03*
X63244Y-51764D02*
D03*
X75744Y-76764D02*
D03*
X63244Y-101764D02*
D03*
X75744Y-126764D02*
D03*
X63244Y-151764D02*
D03*
X75744Y-176764D02*
D03*
X63244Y-201764D02*
D03*
X75744Y-226764D02*
D03*
X63244Y-251764D02*
D03*
X38244Y-51764D02*
D03*
X50744Y-76764D02*
D03*
X38244Y-101764D02*
D03*
X50744Y-126764D02*
D03*
X38244Y-151764D02*
D03*
X50744Y-176764D02*
D03*
X38244Y-201764D02*
D03*
X50744Y-226764D02*
D03*
X38244Y-251764D02*
D03*
X50744Y-326764D02*
D03*
X13244Y-51764D02*
D03*
X25744Y-76764D02*
D03*
X13244Y-101764D02*
D03*
X25744Y-126764D02*
D03*
X13244Y-151764D02*
D03*
X25744Y-176764D02*
D03*
X13244Y-201764D02*
D03*
X25744Y-226764D02*
D03*
X13244Y-251764D02*
D03*
X25744Y-276764D02*
D03*
Y-326764D02*
D03*
X-11756Y-51764D02*
D03*
Y-101764D02*
D03*
X744Y-126764D02*
D03*
X-11756Y-151764D02*
D03*
X744Y-176764D02*
D03*
X-11756Y-201764D02*
D03*
X744Y-226764D02*
D03*
X-11756Y-251764D02*
D03*
Y-401764D02*
D03*
Y-451764D02*
D03*
X-36756D02*
D03*
X-74256Y-426764D02*
D03*
X-111756Y-401764D02*
D03*
D146*
X125500Y-10362D02*
D03*
Y142000D02*
D03*
D147*
X74500Y161500D02*
D03*
X54500D02*
D03*
X64500D02*
D03*
X84500D02*
D03*
X94500D02*
D03*
X104500D02*
D03*
X114500D02*
D03*
X-338092Y-201394D02*
D03*
Y-191394D02*
D03*
Y-181394D02*
D03*
X-201500Y-266500D02*
D03*
X-211500D02*
D03*
X-338092Y-241158D02*
D03*
Y-231157D02*
D03*
Y-221158D02*
D03*
X-305336Y-230894D02*
D03*
Y-220894D02*
D03*
X-236836Y-223894D02*
D03*
Y-233894D02*
D03*
Y-243894D02*
D03*
X-248000Y-146500D02*
D03*
X-238000D02*
D03*
X-228000D02*
D03*
X-218000D02*
D03*
X-236836Y-173394D02*
D03*
Y-183394D02*
D03*
Y-193394D02*
D03*
X-596000Y-77000D02*
D03*
X-586000D02*
D03*
X-576000D02*
D03*
X-566000D02*
D03*
X-556000D02*
D03*
X-546000D02*
D03*
X-536000D02*
D03*
X-526000D02*
D03*
X-516000D02*
D03*
X-506000D02*
D03*
X-496000D02*
D03*
X-486000D02*
D03*
X-476000D02*
D03*
X-466000D02*
D03*
X-440500D02*
D03*
Y-87000D02*
D03*
Y-97000D02*
D03*
Y-107000D02*
D03*
Y-117000D02*
D03*
Y-127000D02*
D03*
Y-137000D02*
D03*
Y-147000D02*
D03*
Y-157000D02*
D03*
Y-167000D02*
D03*
Y-177000D02*
D03*
Y-187000D02*
D03*
X-466000D02*
D03*
X-476000D02*
D03*
X-486000D02*
D03*
X-496000D02*
D03*
X-506000D02*
D03*
X-516000D02*
D03*
X-526000D02*
D03*
X-536000D02*
D03*
X-546000D02*
D03*
X-556000D02*
D03*
X-566000D02*
D03*
X-576000D02*
D03*
X-596000D02*
D03*
X-170756Y4236D02*
D03*
Y14236D02*
D03*
Y24236D02*
D03*
X-291669Y-480110D02*
D03*
X-281669D02*
D03*
X-271669D02*
D03*
X-133669Y-405610D02*
D03*
X-385000Y20000D02*
D03*
Y30000D02*
D03*
X-395000Y20000D02*
D03*
Y30000D02*
D03*
X-405000Y20000D02*
D03*
Y30000D02*
D03*
X-415000Y20000D02*
D03*
Y30000D02*
D03*
X-425000Y20000D02*
D03*
X-207256Y150374D02*
D03*
Y142563D02*
D03*
X-133669Y-465610D02*
D03*
Y-445610D02*
D03*
Y-435610D02*
D03*
Y-425610D02*
D03*
Y-415610D02*
D03*
Y-395610D02*
D03*
Y-385610D02*
D03*
Y-455610D02*
D03*
X-234256Y142579D02*
D03*
Y150390D02*
D03*
X-554256Y109047D02*
D03*
Y101236D02*
D03*
X-555256Y65736D02*
D03*
Y57925D02*
D03*
X-156756Y156736D02*
D03*
Y146736D02*
D03*
Y136736D02*
D03*
D148*
X-258000Y-146500D02*
D03*
X-586000Y-187000D02*
D03*
X-261669Y-480110D02*
D03*
X-425000Y30000D02*
D03*
D149*
X93599Y-89209D02*
D03*
D150*
X-1677D02*
D03*
D151*
X95173Y-287240D02*
D03*
D152*
X-3252D02*
D03*
D154*
X-220256Y-426764D02*
D03*
D155*
X-365000Y-348500D02*
D03*
X-417000Y-267000D02*
D03*
X-571500Y-216500D02*
D03*
X-276000Y-221500D02*
D03*
X-287442Y-251500D02*
D03*
X-500Y-426000D02*
D03*
X-404500Y-387500D02*
D03*
X89595Y-280461D02*
D03*
X5744Y-282610D02*
D03*
X75094Y-292961D02*
D03*
X76095Y-327461D02*
D03*
X-345500Y-383000D02*
D03*
D156*
X-286370Y-274630D02*
D03*
X-40000Y20500D02*
D03*
X-396000Y-123000D02*
D03*
X4831Y-352110D02*
D03*
X116331Y-348610D02*
D03*
X-92500Y-125000D02*
D03*
X-252000Y1500D02*
D03*
X-48756Y86756D02*
D03*
X-59336Y93336D02*
D03*
X-140169Y-93610D02*
D03*
X-279000Y-107000D02*
D03*
X-185669Y23890D02*
D03*
X-160000Y-428000D02*
D03*
X-208669Y-339610D02*
D03*
X-149500Y-365000D02*
D03*
X-156000Y-358500D02*
D03*
X-362000Y-461500D02*
D03*
X-373500Y-448500D02*
D03*
X-384500Y-442000D02*
D03*
X-358650Y-316350D02*
D03*
X-158500Y4000D02*
D03*
X-513500Y-56500D02*
D03*
X-580500Y-28500D02*
D03*
X-305500Y-211500D02*
D03*
X-409000Y-128000D02*
D03*
X-393559Y-132559D02*
D03*
X-395559Y-149559D02*
D03*
X-354236Y-71669D02*
D03*
X-381559Y-146559D02*
D03*
X-372059Y-157559D02*
D03*
X-379000Y-320500D02*
D03*
X-470000Y-327500D02*
D03*
X-285876Y-151376D02*
D03*
X-272000Y-126000D02*
D03*
X-375000Y-299000D02*
D03*
X-556500Y-204000D02*
D03*
X-469000Y-360500D02*
D03*
X-300077Y-141577D02*
D03*
X-285500Y-172000D02*
D03*
X-96500Y-358000D02*
D03*
X-323441Y-145559D02*
D03*
X-346559Y-152059D02*
D03*
X-324000Y-189000D02*
D03*
X-307394Y-201606D02*
D03*
X-314500Y-194500D02*
D03*
X-481256Y-355610D02*
D03*
X-271836Y-228894D02*
D03*
X-260446Y-261224D02*
D03*
X-304923Y-151317D02*
D03*
X-301423Y-187817D02*
D03*
X-333506Y-260504D02*
D03*
X-326505Y-297004D02*
D03*
X-361412Y-394912D02*
D03*
X-366500Y-385500D02*
D03*
X-419000Y-380000D02*
D03*
X-414000Y-389500D02*
D03*
X-333000Y46000D02*
D03*
X-340000Y-393000D02*
D03*
X-398000Y-397500D02*
D03*
X-329500Y130500D02*
D03*
X-276000Y78500D02*
D03*
X-453000Y133000D02*
D03*
X-407500Y61000D02*
D03*
X-383000Y103500D02*
D03*
X-175669Y-396110D02*
D03*
X-189169Y-388610D02*
D03*
X-65169Y-464110D02*
D03*
X-173669Y-425610D02*
D03*
D158*
X-364000Y83012D02*
D03*
D159*
X-362000Y99000D02*
D03*
X-327500Y75000D02*
D03*
X-334000Y101000D02*
D03*
X-363336Y88975D02*
D03*
X-364000Y77012D02*
D03*
X-339000Y110000D02*
D03*
D161*
X-526094Y-133598D02*
D03*
Y-139110D02*
D03*
X-531606Y-133598D02*
D03*
Y-139110D02*
D03*
X-537118Y-133598D02*
D03*
Y-139110D02*
D03*
X-528850Y-130842D02*
D03*
Y-136354D02*
D03*
Y-141866D02*
D03*
X-534362Y-130842D02*
D03*
Y-141866D02*
D03*
Y-136354D02*
D03*
X-275671Y-200228D02*
D03*
Y-204559D02*
D03*
X-280001Y-200228D02*
D03*
Y-204559D02*
D03*
D162*
X-61756Y-391764D02*
D03*
X-71756D02*
D03*
X-21756D02*
D03*
X-16756Y-401764D02*
D03*
X-21756Y-411764D02*
D03*
X-16756Y-421764D02*
D03*
X-21756Y-431764D02*
D03*
X-16756Y-441764D02*
D03*
X-21756Y-451764D02*
D03*
X-16756Y-461764D02*
D03*
X-21756Y-471764D02*
D03*
X-31756Y-391764D02*
D03*
X-26756Y-401764D02*
D03*
X-31756Y-411764D02*
D03*
X-26756Y-421764D02*
D03*
X-31756Y-431764D02*
D03*
X-26756Y-441764D02*
D03*
Y-461764D02*
D03*
X-31756Y-471764D02*
D03*
X-41756Y-391764D02*
D03*
X-36756Y-401764D02*
D03*
Y-421764D02*
D03*
Y-441764D02*
D03*
X-41756Y-451764D02*
D03*
X-51756Y-391764D02*
D03*
X-46756Y-401764D02*
D03*
Y-461764D02*
D03*
X-61756Y-411764D02*
D03*
X-56756Y-421764D02*
D03*
X-61756Y-431764D02*
D03*
X-56756Y-441764D02*
D03*
Y-461764D02*
D03*
X-71756Y-411764D02*
D03*
X-66756Y-421764D02*
D03*
X-71756Y-431764D02*
D03*
X-66756Y-441764D02*
D03*
X-81756Y-411764D02*
D03*
X-76756Y-421764D02*
D03*
X-81756Y-431764D02*
D03*
X-76756Y-441764D02*
D03*
X-81756Y-471764D02*
D03*
X-91756Y-391764D02*
D03*
X-86756Y-421764D02*
D03*
X-91756Y-431764D02*
D03*
X-86756Y-441764D02*
D03*
X-91756Y-471764D02*
D03*
X-101756Y-391764D02*
D03*
X-96756Y-401764D02*
D03*
X-101756Y-451764D02*
D03*
Y-471764D02*
D03*
X-111756Y-391764D02*
D03*
X-106756Y-401764D02*
D03*
X-111756Y-411764D02*
D03*
Y-451764D02*
D03*
Y-471764D02*
D03*
X-116756Y-421764D02*
D03*
Y-441764D02*
D03*
X-121756Y-451764D02*
D03*
Y-471764D02*
D03*
X-126756Y-421764D02*
D03*
Y-441764D02*
D03*
M02*
