M48
;Layer_Color=9474304
;FILE_FORMAT=2:5
INCH,TZ
;TYPE=PLATED
T1F00S00C0.03543
T2F00S00C0.22100
%
T01
X-271500Y601000
X-263689
X-205351
X-197540
X-139203
X-131392
X-73054
X-65243
X-1311Y656500
X6500
X59243Y601000
X67054
X125392
X133203
X191540
X199351
X257689
X265500
T02
X0Y0
X-312500Y312500
X312500
X0Y625000
M30
