M48
;Layer_Color=9474304
;FILE_FORMAT=2:5
INCH,LZ
;TYPE=PLATED
T1F00S00C0.00787
T2F00S00C0.01000
T3F00S00C0.02800
T4F00S00C0.03543
T5F00S00C0.12500
%
T01
X0046461Y-0151661
Y-014615
X0049216Y-0148906
Y-0154417
X0054728
X0051972Y-0151661
X0054728Y-0148906
X0051972Y-014615
X0054728Y-0143394
X0049216
X0057484Y-014615
Y-0151661
X0350835Y-0107165
Y-0102835
X0355165
Y-0107165
T02
X0364Y-02505
X0372
X038
X0388
X0396
X0404
X0412
X042
X0428
X0436
X0444
X0452
X046
X0468
X0476
X0484
X0488Y-02425
X048
X0484Y-02345
X0492
X0488Y-02265
X0492Y-02185
X0484
X0488Y-02105
X0492Y-02025
X0484
X0488Y-01945
X0464
X0468Y-02025
X0472Y-02105
X0464
X0456
X0448
X044
X0444Y-02185
X0452
X046
X0468
X0472Y-02265
X0464
X0456
X0448
X044
X0432
X0424
X0416
X042Y-02345
X0428
X0436
X0444
X0452
X046
X0468
X0436Y-02185
X0428
X0416Y-02105
X0408
X04
X0392
X0384
X0376
X0368
X0372Y-02025
X038
X0388
X0396
X0404
X0412
X04Y-01945
X0392
X0384
X0376
X0368
X0364Y-02025
Y-02185
X0372
X038
X0388
X0396
X0404
X04Y-02265
X0392
X0384
X0376
X0368
X0372Y-02345
X038
X0388
X0412
X0364
X0356
X0348
X0352Y-02265
X036
X0356Y-02185
X0348
X0352Y-02105
X036
X0356Y-02025
X0348
X0352Y-01945
X036
X0344Y-02105
Y-02265
X0348Y-02505
X0356
X034
X0268
X026
X0252
X0244
X0236
X0228
X022
X0212
X022Y-02185
X0216Y-02105
X0208
X0236Y-02185
X0252
X026
X0264Y-02105
X0272
X028
X0276Y-02185
X0204
X0196
X02Y-02105
X0196Y-02025
X0184Y-02105
X018Y-02185
X0168Y-02105
X016
X0152
X0144
X0136
X0128
X012
X0136Y-01945
X014Y-02505
X0148
X0156
X0164
X0172
X018
X0188
X0196
X0204
X0132
X0108
X01
X0092
X0084
X0056Y-02425
X0052Y-02185
X0064Y-02105
X0076Y-02025
X0044
X0036
X00245Y-02305
X0032Y-02425
X004
X0048
X-0004Y-02345
X0004Y-02185
X0Y-02105
X-0004Y-01865
X0028Y-01705
X0036
X0044
X0048Y-01625
X004
X0032
X0036Y-01545
X0028
X0032Y-01465
X004
X0044Y-01385
X0036
X0028
X0032Y-01305
X004
X0048
X0044Y-01225
X0036
X0028
X0032Y-01145
X004
X0048
X0044Y-00745
X0036
X0032Y-00665
X002Y-00585
X0012
X0016Y-00505
X0024
X0012Y-00425
X0004
X0Y-00505
Y-00665
X0008
X0004Y-00745
X002
X0052
X0076
Y-00585
X0092
X0096Y-00505
X0104
X0112
X012
X0124Y-00425
X0132
X014
X0152Y-00505
X016
X0192
X02
X0204Y-00585
X0196
X0188
X0184Y-00665
X0176
X0196Y-00745
X0204Y-01065
X02Y-01305
X0192
Y-01625
X02
X0196Y-01705
X0192Y-01785
X0176
X0172Y-01705
X0176Y-01625
Y-01465
X016
X0156Y-01385
X016Y-01305
X0152
X0156Y-01225
X0132Y-01065
X0128Y-00985
X0116Y-01065
X0108
X01
X0092
X008Y-01145
X0072
X0064
X0056
X006Y-01225
X0068
X0076
X0084
X008Y-01305
X0072
X0064
X0056
X006Y-01385
X0068
X0076
X0084
X008Y-01465
X0072
X0064
X0068Y-01545
X0076
X0084
X008Y-01625
X0072
X0064
X0056
X006Y-01705
X0068
X0076
X0084
X0052
Y-01385
Y-01225
X006Y-00425
X0084
X0088Y-00505
X01Y-00425
X0108
X0116
Y-00585
X0124
X0108
X0104Y-00825
X0124Y-01865
X0132
X016Y-01785
X0156Y-01705
X016Y-01625
X0152
X0172Y-01865
X0204
X022
X0228
X0224Y-01785
X0216
X0208Y-01625
Y-01145
X0216
X0224
X0232
X024
X0236Y-01065
X0228
X022
X0212
X0216Y-00985
X0224
X0232
X024
X0236Y-00905
X0228
X022
X0212
X0208Y-00985
X0212Y-00585
X022
X0224Y-00505
X0216
X0208
X024
X0248
X0252Y-00585
X026
X0268
X0276
X028Y-00505
X0272
X0276Y-00425
X0284
X0268
X0272Y-00665
X028
X0284Y-00745
X0276
X0268
X026
X0252
X0256Y-00665
X0264
Y-00825
X0272
X028
X0284Y-00905
X0276
X0268
X026
X0264Y-00985
X026Y-01065
Y-01225
X0256Y-01305
X0248
X0252Y-01385
X026
X0244
X0284
X03
X0308
X032Y-01465
X0348Y-01385
Y-01545
X0352Y-01625
X0348Y-01705
X0332
X03
X028Y-01625
X0284Y-01225
X0336Y-01145
X0316Y-00745
X0308
X03
X0304Y-00665
X0312
X032
X0316Y-00585
X0308
X0312Y-00505
X032
X0324Y-00425
X0332
X034
X0348
X0356
X0316
X0308
X0244Y-00585
X0236
X024Y-00665
X0248
X0256Y-00825
X0224Y-00665
X0356Y-01865
X0364
X0372
X038
X0388
X0396
X04Y-01785
X0408
X0416
X0424
X0432
X044
X0444Y-01705
X0436
X0428
X042
X0412
X0404
X04Y-01625
X0392
X0384
X0388Y-01545
X0396
X0404
X0408Y-01465
X0416
X042Y-01545
X0428
X0436
X044Y-01465
X0432
X0436Y-01385
X0444
X0448Y-01305
X0456
X0464
X0472
X0468Y-01225
X046
X0464Y-01145
X0472
X0468Y-01065
X046
X0464Y-00985
X0472
X0468Y-00905
X0472Y-00825
X0464
X0468Y-00745
X0472Y-00665
X0464
X0468Y-00585
X046
X0464Y-00505
X046Y-00425
X0476
X0484
X0492
X0488Y-00505
X048
X0484Y-00585
X0492
X0488Y-00665
X0492Y-00745
X0484
X0488Y-00825
X0492Y-00905
X0484
X0488Y-00985
X0492Y-01065
X0484
X0488Y-01145
X0492Y-01225
X0484
X0488Y-01305
X0492Y-01385
X0484
X0488Y-01465
X0492Y-01545
X0484
X0488Y-01625
X0492Y-01705
X0484
X0488Y-01785
X0492Y-01865
X0484
X046
X0464Y-01785
Y-01625
X0468Y-01545
X0472Y-01465
X0464
X0456
X046Y-01385
X0468
X044Y-01305
X0432
X0436Y-01225
X0444
X0428
X0432Y-01145
Y-00985
X0428Y-00905
X0432Y-00825
X0428Y-00745
X0432Y-00665
X0428Y-00585
X0432Y-00505
X0428Y-00425
X0444
Y-00585
Y-00745
X0452
X0448Y-00825
X0444Y-00905
X0448Y-00985
X0416
X0412Y-01065
X0404
X04Y-01145
X0416
Y-01305
X04
X0384Y-01145
X0376Y-00825
X0388Y-00745
X0396
X04Y-00665
X0404Y-00585
X0396
X0388
Y-00425
X0396
X04Y-00505
X038Y-00425
X0372
X0364
Y-01545
X0368Y-01625
X0372Y-01705
X038
X0388
X038Y-01545
X0364Y-01705
X0412Y-01865
X042
X0428
X0436
X0444
X0428Y-01385
X0436Y-00265
X0444
X0448Y-00185
X0456
X0464
X0472
X048
X0488
X0492Y-00265
X0484
X0476
X0468
X046
X0464Y-00345
X0472
X048
X0488
X0432Y-00185
X0416
X0408
X04
X0392
X0384
X0376
X0368
X0372Y-00265
X038
X0388
X0396
X0404
X0412
X0408Y-00345
X04
X0392
X0364Y-00265
X0356
X0348
X034
X0332
X0324
X032Y-00345
X0312
X0308Y-00265
X0284
X028Y-00185
X0272
X0264
X0268Y-00265
X0264Y-00345
X0256
X0248
X028
X0208
X036Y-00185
X0192
X0184
X0176
X0168
X016
X0152
X0156Y-00265
X0164
X0172
X018
X0188
X02Y-00345
X016
X0152
X0144
X0148Y-00265
X014
X0132
X0124
X0116
X0108
X01
X0104Y-00345
X0112
X012
X0096
X0088
X0072
X0076Y-00265
X0068
X0056Y-00345
X0032
X0028Y-00265
X0032Y-00185
X0024
X0016
X0008
X0012Y-00265
X0004
X0008Y-00345
X0016
X0
T03
X04315Y-02145
X03Y-0225
X0297Y-0243
X0278Y-02525
X02255Y-0231
X01865Y-01965
X0114Y-0214
X01185Y-0224
X01245Y-02315
X00595Y-0232
X00365Y-0224
X00595Y-00665
X0072Y-00535
X0134Y-0071
X0143Y-00675
X01495Y-00605
X0156Y-0066
X0167Y-0072
X0174Y-00715
X0186Y-0073
X01795Y-006
X01755Y-01165
X01825Y-0119
X01875Y-0126
X0188Y-0182
X0216Y-01605
X02235Y-01375
X0231
X02525Y-0163
X028Y-01725
X032Y-0176
X03305Y-01935
X02765Y-01045
Y-00965
X0216Y-00645
X0401Y-00445
X02715Y-0034
X0042Y-0018
T04
X0322Y-02355
Y-02255
Y-02155
Y-02055
X01475Y-01965
X01295Y-0197
X01195
X01095
X00995
X00895
X00795
X00695
X00595
X00495
X0072Y-02445
X0082
X0092
X00205Y-02425
Y-0250311
X00195Y-0197
X00295
X00395
X00095
X-00005
Y-00865
X00095
X00195
X00295
X00395
X00495
X00595
X00695
X00795
X00895
X00995
X01095
X01195
X01295
X01475
Y-00965
Y-01065
Y-01165
Y-01265
Y-01365
Y-01465
Y-01565
Y-01665
Y-01765
Y-01865
X0316Y-0135618
Y-0127744
Y-011987
Y-0112
Y-0104126
Y-0096252
Y-0088378
Y-0080504
X0327134Y-00705
X0335008
X0342882
X0350752
X0358626
X0358248Y-0145
X0350374
X03425
X0334626
X0326752
X02965Y-00555
X02865
X03665Y-00705
X0374374
X0382248
X03925Y-0079882
Y-0087756
Y-009563
Y-01035
Y-0111374
Y-0119248
Y-0127122
Y-0134996
X0381866Y-0145
X0373992
X0366118
X0452Y-01555
Y-01655
Y-01755
Y-0113
Y-0103
Y-0093
Y-0064
Y-0054
X035Y-0018
X034
X033
X032
X031
X0259Y-00225
X0249
X0239
X0229
X0219
X0209
X0199
T05
X04425Y-02685
X005
X04425Y0
X005
M30
