G04*
G04 #@! TF.GenerationSoftware,Altium Limited,Altium Designer,21.9.2 (33)*
G04*
G04 Layer_Color=32768*
%FSLAX25Y25*%
%MOIN*%
G70*
G04*
G04 #@! TF.SameCoordinates,9A8D68FF-92B6-4D98-BBEC-1EE260445E44*
G04*
G04*
G04 #@! TF.FilePolarity,Positive*
G04*
G01*
G75*
%ADD14C,0.00394*%
%ADD86C,0.00197*%
D14*
X288032Y-219000D02*
X291968D01*
X290000Y-220969D02*
Y-217032D01*
X297087Y-226874D02*
Y-211126D01*
X282913Y-226874D02*
Y-211126D01*
X297087D01*
X282913Y-226874D02*
X297087D01*
X307031Y-165500D02*
X310968D01*
X309000Y-167469D02*
Y-163531D01*
X316087Y-173374D02*
Y-157626D01*
X301913Y-173374D02*
Y-157626D01*
X316087D01*
X301913Y-173374D02*
X316087D01*
X351031Y-105000D02*
X354969D01*
X353000Y-106968D02*
Y-103032D01*
X405413Y-41126D02*
X419587D01*
X405413Y-56874D02*
X419587D01*
Y-41126D01*
X405413Y-56874D02*
Y-41126D01*
X412500Y-50968D02*
Y-47032D01*
X410532Y-49000D02*
X414468D01*
X428626Y-207587D02*
Y-193413D01*
X444374Y-207587D02*
Y-193413D01*
X428626D02*
X444374D01*
X428626Y-207587D02*
X444374D01*
X434531Y-200500D02*
X438469D01*
X436500Y-202468D02*
Y-198531D01*
D86*
X342862Y-115138D02*
Y-94862D01*
X363138Y-115138D02*
Y-94862D01*
X342862D02*
X363138D01*
X342862Y-115138D02*
X363138D01*
X5055Y-224606D02*
X6866D01*
Y-228346D02*
Y-224606D01*
Y-228346D02*
X23323D01*
Y-224606D01*
X25134D01*
Y-212402D01*
X23323D02*
X25134D01*
X23323D02*
Y-208661D01*
X6866D02*
X23323D01*
X6866Y-212402D02*
Y-208661D01*
X5055Y-212402D02*
X6866D01*
X5055Y-224606D02*
Y-212402D01*
X-8894Y-181386D02*
X95437D01*
X-8894D02*
Y-104614D01*
X95437D01*
Y-181386D02*
Y-104614D01*
M02*
