M48
;Layer_Color=9474304
;FILE_FORMAT=2:5
INCH,LZ
;TYPE=PLATED
T1F00S00C0.00787
T2F00S00C0.01000
T3F00S00C0.02800
T4F00S00C0.03543
T5F00S00C0.12500
%
T01
X0046461Y-0151661
Y-014615
X0049216Y-0148906
Y-0154417
X0054728
X0051972Y-0151661
X0054728Y-0148906
X0051972Y-014615
X0054728Y-0143394
X0049216
X0057484Y-014615
Y-0151661
X03645Y-0117772
X0366272Y-0116
X03645Y-0114228
X0362728Y-0116
T02
X0364Y-02505
X0372
X038
X0388
X0396
X0404
X0412
X042
X0428
X0436
X0444
X0452
X046
X0468
X0476
X0484
X0488Y-02425
X048
X0472
X0464
X0456
X0448
X044
X0432
X0424
X0416
X0408
X04
Y-02265
X0392
X0384
X0376
X0368
X0372Y-02185
X038
X0388
X0396
X0404
X0408Y-02105
X04
X0392
X0384
X0376
X0368
X0372Y-02025
X038
X0388
X0396
X0404
X0408Y-01945
X0392
X0384
X0364Y-02025
Y-02185
Y-02345
X0372
X038
X0388
X0412
X042
X0428
X0436
X0444
X0452
X046
X0468
X0476
X0484
X0488Y-02265
X048
X0472
X0464
X0456
X0448
X044
X0432
X0424
X0416
X0428Y-02185
X0436
X0444
X0452
X046
X0468
X0476
X0484
X0488Y-02105
X048
X0472
X0464
X0456
X0448
X044
X046Y-02025
X0468
X0476
X0484
X0488Y-01945
X048
X0472
X0464
X0348Y-02025
X0352Y-02105
X0344
X0348Y-02185
X0352Y-02265
X0344
X0348Y-02345
Y-02505
X0356
X034
X0332
X0316
X0308
X0316Y-02345
X0312Y-02265
Y-02105
X0316Y-02025
X0332
X028Y-02105
X0272
X0264
X026Y-02185
X0252
X0236
X022
X0216Y-02105
X0208
X0212Y-02505
X022
X0228
X0236
X0244
X0252
X026
X0268
X0276Y-02185
X0204
X0196
X02Y-02105
X0196Y-02025
X0184Y-01945
Y-02105
X0176
X0168
X0164Y-02185
X0156
X018
Y-02505
X0188
X0196
X0204
X0172
X0164
X0156
X0148
X014
X0132
X0108
X01
X0092
X0084
X0056Y-02425
X0052Y-02185
X0064Y-02105
X008
X0076Y-02025
X0136Y-01945
X0044Y-02025
X0036
X004Y-02425
X0048
X0032
X0004Y-02185
X0Y-02105
X0028Y-01705
X0036
X0044
X0048Y-01625
X004
X0032
X0036Y-01545
X0028
X0032Y-01465
X004
X0044Y-01385
X0036
X0028
X0032Y-01305
X004
X0048
X0044Y-01225
X0036
X0028
X0032Y-01145
X004
X0048
X0044Y-00745
X0036
X0032Y-00665
X002Y-00585
X0012
X0016Y-00505
X0024
X0012Y-00425
X0004
X0Y-00505
Y-00665
X0008
X0004Y-00745
X002
X0052
X0076
Y-00585
X0092
X0096Y-00505
X0104
X0112
X012
X0124Y-00425
X0132
X014
X0152Y-00505
X016
X0192
X02
X0204Y-00585
X0196
X0188
X0184Y-00665
X0176
X0184Y-00825
X0196Y-00745
X0204Y-01065
X02Y-01305
X0192
X0172Y-01385
X0176Y-01465
X0172Y-01545
X0156
X016Y-01465
X0156Y-01385
X016Y-01305
X0152
X0156Y-01225
X016Y-01145
X0156Y-00905
X0152Y-00825
X0128Y-00985
X0132Y-01065
X0116
X0108
X01
X0092
X008Y-01145
X0072
X0064
X0056
X006Y-01225
X0068
X0076
X0084
X008Y-01305
X0072
X0064
X0056
X006Y-01385
X0068
X0076
X0084
X008Y-01465
X0072
X0064
X0068Y-01545
X0076
X0084
X008Y-01625
X0072
X0064
X0056
X006Y-01705
X0068
X0076
X0084
X0052
Y-01385
Y-01225
X006Y-00425
X0084
X0088Y-00505
X01Y-00425
X0108
X0116
Y-00585
X0124
X0108
X0104Y-00825
X014Y-01545
X0152Y-01625
X016
X0156Y-01705
X0176Y-01785
X0184
X0192
X02
X0204Y-01705
X0196
X02Y-01625
X0192
X0184
X0188Y-01865
X0172
X0132
X0124
X012Y-01785
X0208
X0216
X0224
X022Y-01705
X0212
X0208Y-01625
X0236Y-01705
X0244
X0252
X026Y-01545
X0264Y-01465
X028
X0288
X0284Y-01385
X0276
X028Y-01305
X0288
X0284Y-01225
X0288Y-01145
Y-00985
X0284Y-00905
X0276
X0268
X026
X0264Y-00825
X0272
X028
X0288
X0284Y-00745
X0276
X0268
X026
X0252
X0256Y-00665
X0264
X0272
X028
X0288
X0304
X0312
X032
X0328
X0336
X0344
X0352
X036
X0356Y-00585
X0348
X034
X0332
X0324
X0316
X0308
X0312Y-00505
X032
X0328
X0336
X0344
X0352
X036
X0356Y-00425
X0348
X034
X0332
X0324
X0316
X0308
X03
X0304Y-00505
X028
X0272
X0276Y-00425
X0284
X0268
Y-00585
X0276
X026
X0252
X0244
X0236
X024Y-00505
X0248
Y-00665
X024
X0224
X022Y-00585
X0212
X0216Y-00505
X0224
X0208
X0212Y-00905
X022
X0228
X0236
X024Y-00985
X0232
X0224
X0216
X0208
X0212Y-01065
X022
X0228
X0236
X024Y-01145
X0232
X0224
X0216
X0208
X026Y-01065
X0264Y-00985
X0272
X0256Y-00825
Y-01305
X024Y-01465
X0276Y-01545
X0284
X0288Y-01625
X028
X0272
X03Y-01705
Y-01865
X032Y-01785
X0328
X0324Y-01705
X0328Y-01625
X0336
X0332Y-01545
X0324
X0328Y-01465
X0336
X034Y-01385
X0332
X0324
X0316
X0308
Y-01225
X0316
X0312Y-01145
X0316Y-01065
X0308
X03Y-00905
Y-00745
X0308
X0316
X0324
X0332
X032Y-01465
Y-01625
X0348Y-01865
X0364
X0372
X0388
X0392Y-01785
X04
X0408
X0416
X0424
X0432
X044
X0444Y-01705
X0436
X0428
X042
X0412
X0404
X0396
X0388
X038
X0372
X0368Y-01625
X0392
X04
X0408
X0404Y-01545
X0396
X0388
X0392Y-01465
X0384
X0376
Y-01305
X0388Y-01385
X0412
X042
X0428
X0436
X0444
X0452
X0448Y-01305
X044
X0432
X0424
X0416
X0408
X0412Y-01225
X042
X0428
X0436
X0444
X0452
X0468
X0476
X0484
X0488Y-01145
X048
X0472
X0464
X0468Y-01065
X0476
X0484
X0488Y-00985
X048
X0472
X0464
X0468Y-00905
X0476
X0484
X0488Y-00825
X048
X0472
X0464
X0468Y-00745
X0476
X0484
X0488Y-00665
X048
X0472
X0464
X0468Y-00585
X0476
X0484
X0488Y-00505
X048
X0472
X0464
X0468Y-00425
X0476
X0484
X046
Y-00585
X0444
X0436
X0428
X042
X0412
X0404
X0396
X0388
X038
X0372
X0364
X0368Y-00505
X0376
X0384
X0392
X04
X0408
X0416
X0424
X0432
X044
X0444Y-00425
X0436
X0428
X042
X0412
X0404
X0396
X0388
X038
X0372
X0364
X0368Y-00665
X0376
X0384
X0392
X04
X0408
X0416
X0424
X0432
X044
X0444Y-00745
X0452
X0448Y-00825
X044
X0432
X0424
X0416
X0408
X04
X0392
X0396Y-00745
X0404
X0412
X042
X0428
X0436
X044Y-00985
X0448
X0432
X0424
X0428Y-01065
X0432Y-01145
X044
X0424
X0416
X0408
X04
X0404Y-01065
X0412
Y-00905
X0404
X0396
X0388
X0384Y-00985
X038Y-01065
X0372
X0396
Y-01225
X0404
X0408Y-01465
X0424
X0432
X044
X0448
X0464
X0472
X048
X0488
X0484Y-01385
X0476
X0468
X0472Y-01305
X048
X0488
X0464
X0468Y-01545
X0476
X0484
X0488Y-01625
X048
X0472
X0464
X0468Y-01705
X0476
X0484
X0488Y-01785
X048
X0472
X0464
X0468Y-01865
X0476
X0484
X046
X0444
X0436
X0428
X042
X0412
X0404
X0364Y-01385
Y-00745
X046Y-01065
X0464Y-00345
X0472
X048
X0488
X0484Y-00265
X0476
X0468
X046
X0464Y-00185
X0472
X048
X0488
X0484Y-00105
X0476
X0468
X046
X0452
X0444
X0448Y-00185
X0456
Y-00345
X0448
X044
X0432
X0424
X0416
X0408
X04
X0392
X0384
X0376
X0368
X0372Y-00265
X038
X0388
X0396
X0404
X0412
X042
X0428
X0436
X0444
X0432Y-00185
X0424
X0416
X0408
X04
X0392
X0384
X0376
X0368
X0364Y-00265
X0356
X0348
X034
X0332
X0324
X0316
X0308
X03
X0304Y-00185
X0312
X032
X0328
X0336
X0344
X0352
X036
Y-00345
X0352
X0344
X0336
X0328
X032
X0312
X0304
X0288
X028
X0284Y-00265
X028Y-00185
X0272
X0264
X0268Y-00105
X0276
X0284
X026
X0252
X0256Y-00345
X0264
X0268Y-00265
X0248Y-00345
X0208
X02
X0188Y-00265
X018
X0172
X0164
X0156
X0148
X014
X0132
X0124
X0116
X0108
X01
X0104Y-00345
X0112
X012
X0144
X0152
X016
Y-00185
X0168
X0176
X0184
X0192
X0152
X014Y-00105
X0132
X0124
X0116
X0108
X01
X0092
X0084
X0076
X0068
X006
X0052
X0056Y-00345
X0072
X0076Y-00265
X0068
X0088Y-00345
X0096
X0032
X0028Y-00265
X0032Y-00185
X0024
X0016
X0008
X0
X0004Y-00105
X0012
X002
X0028
X0036
X0044
X0012Y-00265
X0004
X0008Y-00345
X0016
X0
T03
X04315Y-0212
X03Y-0225
X0297Y-0243
X0278Y-02525
X02255Y-0231
X01245Y-02315
X01185Y-0224
X0114Y-0214
X00595Y-0232
X00365Y-0224
X002416Y-023068
X0028Y-0207
X00595Y-00665
X0072Y-00535
X0134Y-0071
X0143Y-00675
X01495Y-00605
X0156Y-0066
X0167Y-0072
X0174Y-00715
X01795Y-006
X01855Y-00875
X0182Y-01195
X01755Y-01165
X01875Y-0126
X02235Y-01375
X0231
X0216Y-01605
X02525Y-0163
X028Y-01725
X0314Y-0194
X035Y-01935
X0216Y-00645
X0385Y-0075
X03825Y-0176
X02715Y-0034
X0042Y-0018
T04
X0322Y-02355
Y-02255
Y-02155
Y-02055
X01475Y-01965
X01295Y-0197
X01195
X01095
X00995
X00895
X00795
X00695
X00595
X00495
X0072Y-02445
X0082
X0092
X00205Y-02425
Y-0250311
X00195Y-0197
X00295
X00395
X00095
X-00005
Y-00865
X00095
X00195
X00295
X00395
X00495
X00595
X00695
X00795
X00895
X00995
X01095
X01195
X01295
X01475
Y-00965
Y-01065
Y-01165
Y-01265
Y-01365
Y-01465
Y-01565
Y-01665
Y-01765
Y-01865
X0339Y-0132
Y-0122
Y-0112
Y-0102
X03495Y-00915
X03595
Y-0142
X03495
X02965Y-00555
X02865
X03695Y-00915
X03795
X039Y-01015
Y-01115
Y-01215
Y-01315
X03795Y-0142
X03695
X0452Y-01555
Y-01655
Y-01755
Y-0113
Y-0103
Y-0093
Y-0064
Y-0054
X0259Y-00225
X0249
X0239
X0229
X0219
X0209
X0199
T05
X04425Y-02685
X005
X04425Y0
X005
M30
