G04*
G04 #@! TF.GenerationSoftware,Altium Limited,Altium Designer,21.9.2 (33)*
G04*
G04 Layer_Color=255*
%FSLAX25Y25*%
%MOIN*%
G70*
G04*
G04 #@! TF.SameCoordinates,F2BC72FE-60B4-4DEF-A308-AC0139AC65B2*
G04*
G04*
G04 #@! TF.FilePolarity,Positive*
G04*
G01*
G75*
%ADD81C,0.15748*%
%ADD82C,0.05906*%
%ADD83R,0.05906X0.05906*%
%ADD84C,0.01575*%
%ADD85R,0.05906X0.05906*%
D81*
X610500Y-80000D02*
D03*
Y-232362D02*
D03*
D82*
X251000Y-20500D02*
D03*
Y-28311D02*
D03*
X537000Y-432000D02*
D03*
X547000D02*
D03*
X537000Y-442000D02*
D03*
X150000Y-96500D02*
D03*
Y-106500D02*
D03*
X286500Y-20689D02*
D03*
Y-28500D02*
D03*
X306500Y-60500D02*
D03*
Y-70500D02*
D03*
Y-80500D02*
D03*
Y-90500D02*
D03*
Y-100500D02*
D03*
Y-110500D02*
D03*
Y-120500D02*
D03*
Y-130500D02*
D03*
Y-140500D02*
D03*
Y-150500D02*
D03*
Y-160500D02*
D03*
Y-170500D02*
D03*
Y-180500D02*
D03*
Y-208500D02*
D03*
X296500D02*
D03*
X286500D02*
D03*
X276500D02*
D03*
X266500D02*
D03*
X256500D02*
D03*
X246500D02*
D03*
X236500D02*
D03*
X226500D02*
D03*
X216500D02*
D03*
X206500D02*
D03*
X42500Y-219500D02*
D03*
X32500D02*
D03*
X22500D02*
D03*
X539500Y-60500D02*
D03*
X549500D02*
D03*
X559500D02*
D03*
X569500D02*
D03*
X589500D02*
D03*
X579500D02*
D03*
X196000Y-190500D02*
D03*
Y-180500D02*
D03*
Y-170500D02*
D03*
Y-160500D02*
D03*
Y-150500D02*
D03*
Y-140500D02*
D03*
Y-130500D02*
D03*
Y-120500D02*
D03*
Y-110500D02*
D03*
Y-100500D02*
D03*
Y-90500D02*
D03*
Y-80500D02*
D03*
Y-70500D02*
D03*
X164500Y-449000D02*
D03*
Y-439000D02*
D03*
X330000Y-509000D02*
D03*
X339500Y-439000D02*
D03*
X165000Y-386500D02*
D03*
Y-376500D02*
D03*
D83*
X547000Y-442000D02*
D03*
X150000Y-86500D02*
D03*
X306500Y-190500D02*
D03*
X196000Y-60500D02*
D03*
X164500Y-459000D02*
D03*
X165000Y-396500D02*
D03*
D84*
X244094Y-110216D02*
D03*
X238583D02*
D03*
X249606D02*
D03*
X238583Y-115728D02*
D03*
X244094D02*
D03*
X249606D02*
D03*
X241339Y-107461D02*
D03*
X246850D02*
D03*
X241339Y-112972D02*
D03*
X246850D02*
D03*
X241339Y-118484D02*
D03*
X246850D02*
D03*
D85*
X196500Y-208500D02*
D03*
X12500Y-219500D02*
D03*
X599500Y-60500D02*
D03*
X340000Y-509000D02*
D03*
X329500Y-439000D02*
D03*
M02*
