G04*
G04 #@! TF.GenerationSoftware,Altium Limited,Altium Designer,21.9.2 (33)*
G04*
G04 Layer_Color=16711935*
%FSLAX25Y25*%
%MOIN*%
G70*
G04*
G04 #@! TF.SameCoordinates,F2BC72FE-60B4-4DEF-A308-AC0139AC65B2*
G04*
G04*
G04 #@! TF.FilePolarity,Positive*
G04*
G01*
G75*
%ADD11C,0.00787*%
%ADD12C,0.01000*%
%ADD13C,0.00394*%
%ADD14C,0.00500*%
D11*
X166894Y-64500D02*
G03*
X166894Y-64500I-394J0D01*
G01*
X210236Y-82579D02*
G03*
X210236Y-82579I-394J0D01*
G01*
D12*
X232283Y-65886D02*
Y-62554D01*
X233950Y-60887D01*
X235616Y-62554D01*
Y-65886D01*
Y-63387D01*
X232283D01*
X237282Y-65886D02*
Y-60887D01*
X240614Y-65886D01*
Y-60887D01*
X242280D02*
X245613D01*
X243946D01*
Y-65886D01*
X250611Y-60887D02*
X247279D01*
Y-65886D01*
X250611D01*
X247279Y-63387D02*
X248945D01*
X252277Y-65886D02*
Y-60887D01*
X255609Y-65886D01*
Y-60887D01*
X257275Y-65886D02*
Y-60887D01*
X260608Y-65886D01*
Y-60887D01*
X262274Y-65886D02*
Y-62554D01*
X263940Y-60887D01*
X265606Y-62554D01*
Y-65886D01*
Y-63387D01*
X262274D01*
D13*
X252909Y-433441D02*
G03*
X252909Y-433441I-1969J0D01*
G01*
X260457Y-382102D02*
X267543D01*
X260457Y-369898D02*
X267543D01*
Y-382102D02*
Y-369898D01*
X260457Y-382102D02*
Y-369898D01*
X419398Y-471957D02*
X431602D01*
X419398Y-479043D02*
X431602D01*
Y-471957D01*
X419398Y-479043D02*
Y-471957D01*
X247398Y-442102D02*
X259602D01*
X247398Y-429898D02*
X259602D01*
Y-442102D02*
Y-429898D01*
X247398Y-442102D02*
Y-429898D01*
X42957Y-72398D02*
X50043D01*
X42957Y-84602D02*
X50043D01*
X42957D02*
Y-72398D01*
X50043Y-84602D02*
Y-72398D01*
X302898Y-390043D02*
Y-382957D01*
X315102Y-390043D02*
Y-382957D01*
X302898Y-390043D02*
X315102D01*
X302898Y-382957D02*
X315102D01*
X185043Y-357602D02*
Y-345398D01*
X177957Y-357602D02*
Y-345398D01*
Y-357602D02*
X185043D01*
X177957Y-345398D02*
X185043D01*
D14*
X169378Y-85150D02*
Y-67039D01*
Y-85150D02*
X179614D01*
Y-67039D01*
X169378D02*
X179614D01*
X214567Y-53091D02*
X285433D01*
Y-76713D02*
Y-53091D01*
Y-153484D02*
Y-76713D01*
X214567Y-153484D02*
X285433D01*
X214567D02*
Y-76713D01*
Y-53091D01*
Y-76713D02*
X285433D01*
M02*
