G04*
G04 #@! TF.GenerationSoftware,Altium Limited,Altium Designer,21.9.2 (33)*
G04*
G04 Layer_Color=255*
%FSLAX25Y25*%
%MOIN*%
G70*
G04*
G04 #@! TF.SameCoordinates,F2BC72FE-60B4-4DEF-A308-AC0139AC65B2*
G04*
G04*
G04 #@! TF.FilePolarity,Positive*
G04*
G01*
G75*
%ADD16R,0.08000X0.05000*%
%ADD17R,0.02756X0.03543*%
%ADD18R,0.03543X0.02756*%
%ADD19R,0.04331X0.02559*%
%ADD20R,0.02559X0.04331*%
%ADD21R,0.03150X0.03150*%
%ADD22R,0.09843X0.05709*%
%ADD23R,0.09843X0.05906*%
%ADD24R,0.07480X0.03150*%
%ADD25R,0.04331X0.03937*%
G04:AMPARAMS|DCode=27|XSize=22.64mil|YSize=6.89mil|CornerRadius=1.72mil|HoleSize=0mil|Usage=FLASHONLY|Rotation=180.000|XOffset=0mil|YOffset=0mil|HoleType=Round|Shape=RoundedRectangle|*
%AMROUNDEDRECTD27*
21,1,0.02264,0.00345,0,0,180.0*
21,1,0.01919,0.00689,0,0,180.0*
1,1,0.00345,-0.00960,0.00172*
1,1,0.00345,0.00960,0.00172*
1,1,0.00345,0.00960,-0.00172*
1,1,0.00345,-0.00960,-0.00172*
%
%ADD27ROUNDEDRECTD27*%
G04:AMPARAMS|DCode=28|XSize=22.64mil|YSize=6.89mil|CornerRadius=1.72mil|HoleSize=0mil|Usage=FLASHONLY|Rotation=90.000|XOffset=0mil|YOffset=0mil|HoleType=Round|Shape=RoundedRectangle|*
%AMROUNDEDRECTD28*
21,1,0.02264,0.00345,0,0,90.0*
21,1,0.01919,0.00689,0,0,90.0*
1,1,0.00345,0.00172,0.00960*
1,1,0.00345,0.00172,-0.00960*
1,1,0.00345,-0.00172,-0.00960*
1,1,0.00345,-0.00172,0.00960*
%
%ADD28ROUNDEDRECTD28*%
G04:AMPARAMS|DCode=29|XSize=9.84mil|YSize=23.62mil|CornerRadius=2.46mil|HoleSize=0mil|Usage=FLASHONLY|Rotation=0.000|XOffset=0mil|YOffset=0mil|HoleType=Round|Shape=RoundedRectangle|*
%AMROUNDEDRECTD29*
21,1,0.00984,0.01870,0,0,0.0*
21,1,0.00492,0.02362,0,0,0.0*
1,1,0.00492,0.00246,-0.00935*
1,1,0.00492,-0.00246,-0.00935*
1,1,0.00492,-0.00246,0.00935*
1,1,0.00492,0.00246,0.00935*
%
%ADD29ROUNDEDRECTD29*%
G04:AMPARAMS|DCode=30|XSize=9.84mil|YSize=23.62mil|CornerRadius=2.46mil|HoleSize=0mil|Usage=FLASHONLY|Rotation=90.000|XOffset=0mil|YOffset=0mil|HoleType=Round|Shape=RoundedRectangle|*
%AMROUNDEDRECTD30*
21,1,0.00984,0.01870,0,0,90.0*
21,1,0.00492,0.02362,0,0,90.0*
1,1,0.00492,0.00935,0.00246*
1,1,0.00492,0.00935,-0.00246*
1,1,0.00492,-0.00935,-0.00246*
1,1,0.00492,-0.00935,0.00246*
%
%ADD30ROUNDEDRECTD30*%
%ADD31R,0.04000X0.05000*%
%ADD32R,0.05000X0.04000*%
%ADD33C,0.03937*%
%ADD34R,0.03937X0.04331*%
%ADD35R,0.04724X0.02677*%
%ADD36R,0.03543X0.03543*%
%ADD37R,0.05906X0.03543*%
%ADD38R,0.03543X0.05906*%
%ADD41R,0.05512X0.08268*%
%ADD77R,0.05512X0.05512*%
%ADD78R,0.07087X0.05906*%
%ADD79R,0.05906X0.07087*%
%ADD81C,0.15748*%
%ADD82C,0.05906*%
%ADD83R,0.05906X0.05906*%
%ADD84C,0.01575*%
%ADD85R,0.05906X0.05906*%
D16*
X365000Y-83000D02*
D03*
Y-103000D02*
D03*
Y-123000D02*
D03*
Y-143000D02*
D03*
X351500Y-93000D02*
D03*
Y-113000D02*
D03*
Y-133000D02*
D03*
Y-153000D02*
D03*
D17*
X421500Y-488441D02*
D03*
Y-493559D02*
D03*
X429500Y-488441D02*
D03*
Y-493559D02*
D03*
Y-461059D02*
D03*
Y-455941D02*
D03*
X258500Y-474559D02*
D03*
Y-469441D02*
D03*
X59000Y-77441D02*
D03*
Y-82559D02*
D03*
X313000Y-404059D02*
D03*
Y-398941D02*
D03*
X248500Y-475059D02*
D03*
Y-469941D02*
D03*
X290500Y-424559D02*
D03*
Y-419441D02*
D03*
X248500Y-403941D02*
D03*
Y-409059D02*
D03*
X274500Y-475059D02*
D03*
Y-469941D02*
D03*
X218500Y-449059D02*
D03*
Y-443941D02*
D03*
X305000Y-398941D02*
D03*
Y-404059D02*
D03*
X121000Y-106559D02*
D03*
Y-101441D02*
D03*
X187500Y-75559D02*
D03*
Y-70441D02*
D03*
X161500Y-69882D02*
D03*
Y-75000D02*
D03*
X329500Y-132559D02*
D03*
Y-127441D02*
D03*
X323500Y-132559D02*
D03*
Y-127441D02*
D03*
X205500Y-87559D02*
D03*
Y-82441D02*
D03*
X489000Y-449059D02*
D03*
Y-443941D02*
D03*
X481500Y-449059D02*
D03*
Y-443941D02*
D03*
X359000Y-244559D02*
D03*
Y-239441D02*
D03*
X192500Y-356059D02*
D03*
Y-350941D02*
D03*
D18*
X244941Y-372000D02*
D03*
X250059D02*
D03*
X163441Y-355500D02*
D03*
X168559D02*
D03*
X150059Y-209500D02*
D03*
X144941D02*
D03*
X149559Y-229000D02*
D03*
X144441D02*
D03*
X186059Y-386500D02*
D03*
X180941D02*
D03*
X182559Y-449000D02*
D03*
X177441D02*
D03*
X28441Y-82000D02*
D03*
X33559D02*
D03*
X34059Y-74500D02*
D03*
X28941D02*
D03*
X282059Y-372500D02*
D03*
X276941D02*
D03*
X273559Y-413000D02*
D03*
X268441D02*
D03*
X313559Y-372000D02*
D03*
X308441D02*
D03*
X217441Y-427000D02*
D03*
X222559D02*
D03*
X260559Y-412500D02*
D03*
X255441D02*
D03*
X168559Y-347500D02*
D03*
X163441D02*
D03*
X276941Y-380000D02*
D03*
X282059D02*
D03*
D19*
X268724Y-372260D02*
D03*
Y-379740D02*
D03*
X259276D02*
D03*
Y-376000D02*
D03*
Y-372260D02*
D03*
X41776Y-82240D02*
D03*
Y-74760D02*
D03*
X51224D02*
D03*
Y-78500D02*
D03*
Y-82240D02*
D03*
X186224Y-355240D02*
D03*
Y-351500D02*
D03*
Y-347760D02*
D03*
X176776D02*
D03*
Y-355240D02*
D03*
D20*
X429240Y-470776D02*
D03*
X425500D02*
D03*
X421760D02*
D03*
Y-480224D02*
D03*
X429240D02*
D03*
X312740Y-391224D02*
D03*
X305260D02*
D03*
Y-381776D02*
D03*
X309000D02*
D03*
X312740D02*
D03*
D21*
X133748Y-209500D02*
D03*
X127252D02*
D03*
X133996Y-229000D02*
D03*
X127500D02*
D03*
D22*
X44000Y-159500D02*
D03*
X11000Y-159453D02*
D03*
D23*
X44000Y-105000D02*
D03*
X11000Y-104500D02*
D03*
D24*
X20449Y-113488D02*
D03*
Y-117819D02*
D03*
Y-122150D02*
D03*
Y-126480D02*
D03*
Y-130811D02*
D03*
Y-135142D02*
D03*
Y-139472D02*
D03*
Y-143803D02*
D03*
D25*
X288653Y-432500D02*
D03*
X295346D02*
D03*
X288653Y-440000D02*
D03*
X295346D02*
D03*
X288653Y-450000D02*
D03*
X295346D02*
D03*
X167154Y-138500D02*
D03*
X173846D02*
D03*
X182846Y-160500D02*
D03*
X176154D02*
D03*
X182846Y-150500D02*
D03*
X176154D02*
D03*
D27*
X247939Y-440776D02*
D03*
X259061Y-431224D02*
D03*
Y-440776D02*
D03*
X247939Y-431226D02*
D03*
D28*
X248725Y-441561D02*
D03*
X258274Y-430439D02*
D03*
Y-441561D02*
D03*
X248724Y-430387D02*
D03*
D29*
X250547Y-430488D02*
D03*
X252516D02*
D03*
X254484D02*
D03*
X256453D02*
D03*
Y-441512D02*
D03*
X254484D02*
D03*
X252516D02*
D03*
X250547D02*
D03*
D30*
X259012Y-433047D02*
D03*
Y-435016D02*
D03*
Y-436984D02*
D03*
Y-438953D02*
D03*
X247988D02*
D03*
Y-436984D02*
D03*
Y-435016D02*
D03*
Y-433047D02*
D03*
D31*
X255350Y-405500D02*
D03*
X260650D02*
D03*
X268350Y-406500D02*
D03*
X273650D02*
D03*
D32*
X297500Y-419350D02*
D03*
Y-424650D02*
D03*
X268500Y-470850D02*
D03*
Y-476150D02*
D03*
X112500Y-106650D02*
D03*
Y-101350D02*
D03*
D33*
X0Y0D02*
D03*
X550000D02*
D03*
Y-550000D02*
D03*
X0D02*
D03*
D34*
X381500Y-502153D02*
D03*
Y-508847D02*
D03*
X372000Y-508847D02*
D03*
Y-502153D02*
D03*
X238500Y-405847D02*
D03*
Y-399153D02*
D03*
X239000Y-455154D02*
D03*
Y-461846D02*
D03*
X65500Y-110653D02*
D03*
Y-117347D02*
D03*
X183000Y-97654D02*
D03*
Y-104347D02*
D03*
X177000Y-119153D02*
D03*
Y-125847D02*
D03*
X152000Y-69846D02*
D03*
Y-63153D02*
D03*
X146000Y-63153D02*
D03*
Y-69846D02*
D03*
D35*
X180992Y-70189D02*
D03*
Y-82000D02*
D03*
X168000D02*
D03*
Y-76095D02*
D03*
Y-70189D02*
D03*
D36*
X244094Y-112972D02*
D03*
X238583D02*
D03*
X249606D02*
D03*
X238583Y-118484D02*
D03*
X244094D02*
D03*
X249606D02*
D03*
X238583Y-107461D02*
D03*
X244094D02*
D03*
X249606D02*
D03*
D37*
X215551Y-82579D02*
D03*
Y-87579D02*
D03*
Y-92579D02*
D03*
Y-97579D02*
D03*
Y-102579D02*
D03*
Y-107579D02*
D03*
Y-112579D02*
D03*
Y-117579D02*
D03*
Y-122579D02*
D03*
Y-127579D02*
D03*
Y-132579D02*
D03*
Y-137579D02*
D03*
Y-142579D02*
D03*
Y-147579D02*
D03*
X284449D02*
D03*
Y-142579D02*
D03*
Y-137579D02*
D03*
Y-132579D02*
D03*
Y-127579D02*
D03*
Y-122579D02*
D03*
Y-117579D02*
D03*
Y-112579D02*
D03*
Y-107579D02*
D03*
Y-102579D02*
D03*
Y-97579D02*
D03*
Y-92579D02*
D03*
Y-87579D02*
D03*
Y-82579D02*
D03*
D38*
X222500Y-152500D02*
D03*
X227500D02*
D03*
X232500D02*
D03*
X237500D02*
D03*
X242500D02*
D03*
X247500D02*
D03*
X252500D02*
D03*
X257500D02*
D03*
X262500D02*
D03*
X267500D02*
D03*
X272500D02*
D03*
X277500D02*
D03*
D41*
X359000Y-192500D02*
D03*
X341283D02*
D03*
X359000Y-228327D02*
D03*
X341283D02*
D03*
D77*
X253500Y-436000D02*
D03*
D78*
X463016Y-502945D02*
D03*
Y-495465D02*
D03*
Y-487984D02*
D03*
Y-480504D02*
D03*
Y-473024D02*
D03*
X514984D02*
D03*
Y-480504D02*
D03*
Y-487984D02*
D03*
Y-495465D02*
D03*
Y-502945D02*
D03*
D79*
X474039Y-462000D02*
D03*
X481520D02*
D03*
X489000D02*
D03*
X496480D02*
D03*
X503961D02*
D03*
Y-513969D02*
D03*
X496480D02*
D03*
X489000D02*
D03*
X481520D02*
D03*
X474039D02*
D03*
D81*
X610500Y-80000D02*
D03*
Y-232362D02*
D03*
D82*
X251000Y-20500D02*
D03*
Y-28311D02*
D03*
X537000Y-432000D02*
D03*
X547000D02*
D03*
X537000Y-442000D02*
D03*
X150000Y-96500D02*
D03*
Y-106500D02*
D03*
X286500Y-20689D02*
D03*
Y-28500D02*
D03*
X306500Y-60500D02*
D03*
Y-70500D02*
D03*
Y-80500D02*
D03*
Y-90500D02*
D03*
Y-100500D02*
D03*
Y-110500D02*
D03*
Y-120500D02*
D03*
Y-130500D02*
D03*
Y-140500D02*
D03*
Y-150500D02*
D03*
Y-160500D02*
D03*
Y-170500D02*
D03*
Y-180500D02*
D03*
Y-208500D02*
D03*
X296500D02*
D03*
X286500D02*
D03*
X276500D02*
D03*
X266500D02*
D03*
X256500D02*
D03*
X246500D02*
D03*
X236500D02*
D03*
X226500D02*
D03*
X216500D02*
D03*
X206500D02*
D03*
X42500Y-219500D02*
D03*
X32500D02*
D03*
X22500D02*
D03*
X539500Y-60500D02*
D03*
X549500D02*
D03*
X559500D02*
D03*
X569500D02*
D03*
X589500D02*
D03*
X579500D02*
D03*
X196000Y-190500D02*
D03*
Y-180500D02*
D03*
Y-170500D02*
D03*
Y-160500D02*
D03*
Y-150500D02*
D03*
Y-140500D02*
D03*
Y-130500D02*
D03*
Y-120500D02*
D03*
Y-110500D02*
D03*
Y-100500D02*
D03*
Y-90500D02*
D03*
Y-80500D02*
D03*
Y-70500D02*
D03*
X164500Y-449000D02*
D03*
Y-439000D02*
D03*
X330000Y-509000D02*
D03*
X339500Y-439000D02*
D03*
X165000Y-386500D02*
D03*
Y-376500D02*
D03*
D83*
X547000Y-442000D02*
D03*
X150000Y-86500D02*
D03*
X306500Y-190500D02*
D03*
X196000Y-60500D02*
D03*
X164500Y-459000D02*
D03*
X165000Y-396500D02*
D03*
D84*
X244094Y-110216D02*
D03*
X238583D02*
D03*
X249606D02*
D03*
X238583Y-115728D02*
D03*
X244094D02*
D03*
X249606D02*
D03*
X241339Y-107461D02*
D03*
X246850D02*
D03*
X241339Y-112972D02*
D03*
X246850D02*
D03*
X241339Y-118484D02*
D03*
X246850D02*
D03*
D85*
X196500Y-208500D02*
D03*
X12500Y-219500D02*
D03*
X599500Y-60500D02*
D03*
X340000Y-509000D02*
D03*
X329500Y-439000D02*
D03*
M02*
