M48
;Layer_Color=9474304
;FILE_FORMAT=2:5
INCH,LZ
;TYPE=PLATED
T1F00S00C0.00787
T2F00S00C0.01000
T3F00S00C0.02800
T4F00S00C0.03543
T5F00S00C0.12000
%
T01
X0251728Y-0436
X0255272
X0249606Y-0115728
Y-0110216
X0244094
X024685Y-0107461
X0241339
X0238583Y-0110216
Y-0115728
X0241339Y-0112972
X0244094Y-0115728
X024685Y-0112972
Y-0118484
X0241339
T02
X04405Y-0535
X04525Y-0527
X04605
X04685
X04765
X04925
X05005
X04885Y-0535
X04645Y-0519
X04565
X04485
X04525Y-0511
X04605
X04445
X05165
X05245
X05285Y-0519
X05205
X05125
X05165Y-0527
X05245
X05205Y-0535
X05125
X05045
X05085Y-0527
X05245Y-0543
X05285Y-0503
Y-0487
Y-0471
X05245Y-0463
X05165
X05205Y-0455
X05285
X05245Y-0447
X05165
X05085
X05125Y-0439
X05205
X05285
X05045
Y-0455
X05125
X05045Y-0471
X05085Y-0479
X05045Y-0487
X05085Y-0495
X05045Y-0503
X04965
X04885
X04805
X04725
X04765Y-0495
X04845
X04925
X05005
X04965Y-0487
X04885
X04805
X04725
X04765Y-0479
X04845
X04925
X05005
X04965Y-0471
X04885
X04805
X04725
Y-0455
X04645
X04565
X04485
X04405
X04445Y-0447
X04525
X04605
X04685
X04765
X04725Y-0439
X04645
X04565
X04485
X04405
X04445Y-0431
X04525
X04605
X04685
X04765
X04925
X05005
Y-0447
X04605Y-0463
X04525
X04445
X04485Y-0471
X04405
X04485Y-0503
X04565
T03
X04815Y-05325
X0495Y-05315
X0553Y-05295
X04255Y-0501
X044Y-04805
X0372Y-04915
X0377Y-03845
X03685Y-037
X03485Y-0366
X02755Y-0367
X0276Y-03985
X0272Y-04205
X02615Y-0422
X02425Y-04245
X0243Y-0448
X0248Y-0461
X02585Y-04605
X0264Y-0446
X0268Y-0485
X0233Y-04615
X02185Y-0458
X02095Y-0427
X02215Y-0386
X0245Y-03785
X02485Y-03965
X0309Y-04105
X03065Y-04405
X015259Y-035191
X01865Y-034
X01585Y-0229
X01575Y-02095
X01155Y-02175
X0233Y-02715
X0244
X0277Y-02325
X02915Y-0243
X0333Y-02405
X03595Y-02525
X0389Y-02605
X04Y-02485
X056Y-0127
X04225Y-01545
X0409Y-0145
X0384Y-01685
X0375Y-0103
X0365Y-0072
X03195Y-0111
X03265Y-01205
X03395Y-0133
X01615Y-01455
X01365Y-01395
X011965Y-012615
X01125Y-0094
X00655Y-01015
X008115Y-012215
X006Y-007
X01585Y-00555
X016232Y-008516
X01725Y-0098
X0186Y-0089
X0176Y-01715
X0021Y-00785
T04
X033Y-0509
X034
X0537Y-0442
Y-0432
X0547
Y-0442
X03395Y-0439
X03295
X01645
Y-0449
Y-0459
X0165Y-03965
Y-03865
Y-03765
X00325Y-02195
X00225
X00125
X00425
X01965Y-02085
X02065
X02165
X02265
X02365
X02465
X02565
X02665
X02765
X02865
X02965
X03065
X05395Y-00605
X05495
X05595
X05695
X05795
X05895
X05995
X03065
Y-00705
Y-00805
Y-00905
Y-01005
Y-01105
Y-01205
Y-01305
Y-01405
Y-01505
Y-01605
Y-01705
Y-01805
Y-01905
X0196
Y-01805
Y-01705
Y-01605
Y-01505
Y-01405
Y-01305
Y-01205
Y-01105
Y-01005
Y-00905
Y-00805
Y-00705
Y-00605
X015Y-00865
Y-00965
Y-01065
X0251Y-0028311
Y-00205
X02865Y-0020689
Y-00285
T05
X06105Y-0232362
Y-008
M30
