G04*
G04 #@! TF.GenerationSoftware,Altium Limited,Altium Designer,21.9.2 (33)*
G04*
G04 Layer_Color=255*
%FSLAX25Y25*%
%MOIN*%
G70*
G04*
G04 #@! TF.SameCoordinates,6EE597BA-1CB3-45A4-8721-CD5E6EA852CE*
G04*
G04*
G04 #@! TF.FilePolarity,Positive*
G04*
G01*
G75*
%ADD15R,0.05709X0.09843*%
%ADD16R,0.05906X0.09843*%
%ADD17R,0.03150X0.07480*%
%ADD18R,0.04331X0.03937*%
%ADD19R,0.02756X0.03543*%
%ADD20R,0.03543X0.02756*%
G04:AMPARAMS|DCode=22|XSize=22.64mil|YSize=6.89mil|CornerRadius=1.72mil|HoleSize=0mil|Usage=FLASHONLY|Rotation=0.000|XOffset=0mil|YOffset=0mil|HoleType=Round|Shape=RoundedRectangle|*
%AMROUNDEDRECTD22*
21,1,0.02264,0.00345,0,0,0.0*
21,1,0.01919,0.00689,0,0,0.0*
1,1,0.00345,0.00960,-0.00172*
1,1,0.00345,-0.00960,-0.00172*
1,1,0.00345,-0.00960,0.00172*
1,1,0.00345,0.00960,0.00172*
%
%ADD22ROUNDEDRECTD22*%
G04:AMPARAMS|DCode=23|XSize=22.64mil|YSize=6.89mil|CornerRadius=1.72mil|HoleSize=0mil|Usage=FLASHONLY|Rotation=270.000|XOffset=0mil|YOffset=0mil|HoleType=Round|Shape=RoundedRectangle|*
%AMROUNDEDRECTD23*
21,1,0.02264,0.00345,0,0,270.0*
21,1,0.01919,0.00689,0,0,270.0*
1,1,0.00345,-0.00172,-0.00960*
1,1,0.00345,-0.00172,0.00960*
1,1,0.00345,0.00172,0.00960*
1,1,0.00345,0.00172,-0.00960*
%
%ADD23ROUNDEDRECTD23*%
G04:AMPARAMS|DCode=24|XSize=9.84mil|YSize=23.62mil|CornerRadius=2.46mil|HoleSize=0mil|Usage=FLASHONLY|Rotation=180.000|XOffset=0mil|YOffset=0mil|HoleType=Round|Shape=RoundedRectangle|*
%AMROUNDEDRECTD24*
21,1,0.00984,0.01870,0,0,180.0*
21,1,0.00492,0.02362,0,0,180.0*
1,1,0.00492,-0.00246,0.00935*
1,1,0.00492,0.00246,0.00935*
1,1,0.00492,0.00246,-0.00935*
1,1,0.00492,-0.00246,-0.00935*
%
%ADD24ROUNDEDRECTD24*%
G04:AMPARAMS|DCode=25|XSize=9.84mil|YSize=23.62mil|CornerRadius=2.46mil|HoleSize=0mil|Usage=FLASHONLY|Rotation=270.000|XOffset=0mil|YOffset=0mil|HoleType=Round|Shape=RoundedRectangle|*
%AMROUNDEDRECTD25*
21,1,0.00984,0.01870,0,0,270.0*
21,1,0.00492,0.02362,0,0,270.0*
1,1,0.00492,-0.00935,-0.00246*
1,1,0.00492,-0.00935,0.00246*
1,1,0.00492,0.00935,0.00246*
1,1,0.00492,0.00935,-0.00246*
%
%ADD25ROUNDEDRECTD25*%
%ADD26R,0.04000X0.05000*%
%ADD27R,0.05000X0.04000*%
%ADD28R,0.02559X0.04331*%
%ADD29C,0.03937*%
%ADD30R,0.03937X0.04331*%
%ADD31R,0.02677X0.04724*%
%ADD32R,0.03543X0.03543*%
%ADD33R,0.03543X0.05906*%
%ADD34R,0.05906X0.03543*%
%ADD37R,0.08268X0.05512*%
%ADD38R,0.05000X0.08000*%
%ADD39R,0.04331X0.02559*%
%ADD75R,0.05512X0.05512*%
%ADD76R,0.05906X0.07087*%
%ADD77R,0.07087X0.05906*%
%ADD79C,0.05906*%
%ADD80R,0.05906X0.05906*%
%ADD81R,0.05906X0.05906*%
%ADD82C,0.13000*%
%ADD83C,0.01575*%
D15*
X267520Y-186449D02*
D03*
X267472Y-219449D02*
D03*
D16*
X213020Y-186449D02*
D03*
X212520Y-219449D02*
D03*
D17*
X221508Y-210000D02*
D03*
X225839D02*
D03*
X230169D02*
D03*
X234500D02*
D03*
X238831D02*
D03*
X243161D02*
D03*
X247492D02*
D03*
X251823D02*
D03*
D18*
X329346Y-119500D02*
D03*
X322654D02*
D03*
X256153Y-39500D02*
D03*
X262846D02*
D03*
X262846Y-49000D02*
D03*
X256153D02*
D03*
X329346Y-112000D02*
D03*
X322654D02*
D03*
X329346Y-102000D02*
D03*
X322654D02*
D03*
X204153Y-231000D02*
D03*
X210846D02*
D03*
X36654Y-210000D02*
D03*
X43347D02*
D03*
X58153Y-216000D02*
D03*
X64846D02*
D03*
X8846Y-241000D02*
D03*
X2153D02*
D03*
X2153Y-247000D02*
D03*
X8846D02*
D03*
D19*
X359500Y-77441D02*
D03*
Y-82559D02*
D03*
X286500Y-200941D02*
D03*
Y-206059D02*
D03*
X294000Y-206559D02*
D03*
Y-201441D02*
D03*
X305000Y-147941D02*
D03*
Y-153059D02*
D03*
X369500Y-76941D02*
D03*
Y-82059D02*
D03*
X327500Y-127441D02*
D03*
Y-132559D02*
D03*
X370000Y-156559D02*
D03*
Y-151441D02*
D03*
X343500Y-76941D02*
D03*
Y-82059D02*
D03*
X313000Y-153059D02*
D03*
Y-147941D02*
D03*
X115500Y-244441D02*
D03*
Y-249559D02*
D03*
D20*
X431941Y-165500D02*
D03*
X437059D02*
D03*
X435441Y-103000D02*
D03*
X440559D02*
D03*
X280441Y-232500D02*
D03*
X285559D02*
D03*
X335941Y-179500D02*
D03*
X341059D02*
D03*
X343941Y-150500D02*
D03*
X349059D02*
D03*
X304441Y-180000D02*
D03*
X309559D02*
D03*
X437059Y-155500D02*
D03*
X431941D02*
D03*
X355441Y-152000D02*
D03*
X360559D02*
D03*
X440059Y-93000D02*
D03*
X434941D02*
D03*
X449441Y-204500D02*
D03*
X454559D02*
D03*
X341059Y-172000D02*
D03*
X335941D02*
D03*
X14559Y-205500D02*
D03*
X9441D02*
D03*
X8882Y-231500D02*
D03*
X14000D02*
D03*
X71559Y-63500D02*
D03*
X66441D02*
D03*
X71559Y-69500D02*
D03*
X66441D02*
D03*
X26559Y-187500D02*
D03*
X21441D02*
D03*
X185559Y-102500D02*
D03*
X180441D02*
D03*
X185559Y-110000D02*
D03*
X180441D02*
D03*
X183559Y-34000D02*
D03*
X178441D02*
D03*
X367941Y-180000D02*
D03*
X373059D02*
D03*
X449441Y-196500D02*
D03*
X454559D02*
D03*
X423559D02*
D03*
X418441D02*
D03*
D22*
X370061Y-111224D02*
D03*
X358939Y-120776D02*
D03*
Y-111224D02*
D03*
X370061Y-120774D02*
D03*
D23*
X369275Y-110439D02*
D03*
X359726Y-121561D02*
D03*
Y-110439D02*
D03*
X369276Y-121613D02*
D03*
D24*
X367453Y-121512D02*
D03*
X365484D02*
D03*
X363516D02*
D03*
X361547D02*
D03*
Y-110488D02*
D03*
X363516D02*
D03*
X365484D02*
D03*
X367453D02*
D03*
D25*
X358988Y-118953D02*
D03*
Y-116984D02*
D03*
Y-115016D02*
D03*
Y-113047D02*
D03*
X370012D02*
D03*
Y-115016D02*
D03*
Y-116984D02*
D03*
Y-118953D02*
D03*
D26*
X360650Y-158000D02*
D03*
X355350D02*
D03*
X348650Y-156500D02*
D03*
X343350D02*
D03*
D27*
X320500Y-132650D02*
D03*
Y-127350D02*
D03*
X349500Y-81150D02*
D03*
Y-75850D02*
D03*
X123000Y-244200D02*
D03*
Y-249500D02*
D03*
D28*
X286260Y-214276D02*
D03*
X293740D02*
D03*
Y-223724D02*
D03*
X290000D02*
D03*
X286260D02*
D03*
X305260Y-160776D02*
D03*
X312740D02*
D03*
Y-170224D02*
D03*
X309000D02*
D03*
X305260D02*
D03*
D29*
X0Y-269500D02*
D03*
Y0D02*
D03*
X490500D02*
D03*
Y-269500D02*
D03*
D30*
X379500Y-151654D02*
D03*
Y-158346D02*
D03*
Y-81846D02*
D03*
Y-75153D02*
D03*
X169000Y-229847D02*
D03*
Y-223153D02*
D03*
X99500Y-210154D02*
D03*
Y-216846D02*
D03*
X89500Y-210154D02*
D03*
Y-216846D02*
D03*
D31*
X9189Y-212008D02*
D03*
X21000D02*
D03*
Y-225000D02*
D03*
X15094D02*
D03*
X9189D02*
D03*
D32*
X51972Y-148906D02*
D03*
Y-154417D02*
D03*
Y-143394D02*
D03*
X57484Y-154417D02*
D03*
Y-148906D02*
D03*
Y-143394D02*
D03*
X46461Y-154417D02*
D03*
Y-148906D02*
D03*
Y-143394D02*
D03*
D33*
X21579Y-177449D02*
D03*
X26579D02*
D03*
X31579D02*
D03*
X36579D02*
D03*
X41579D02*
D03*
X46579D02*
D03*
X51579D02*
D03*
X56579D02*
D03*
X61579D02*
D03*
X66579D02*
D03*
X71579D02*
D03*
X76579D02*
D03*
X81579D02*
D03*
X86579D02*
D03*
Y-108551D02*
D03*
X81579D02*
D03*
X76579D02*
D03*
X71579D02*
D03*
X66579D02*
D03*
X61579D02*
D03*
X56579D02*
D03*
X51579D02*
D03*
X46579D02*
D03*
X41579D02*
D03*
X36579D02*
D03*
X31579D02*
D03*
X26579D02*
D03*
X21579D02*
D03*
D34*
X91500Y-170500D02*
D03*
Y-165500D02*
D03*
Y-160500D02*
D03*
Y-155500D02*
D03*
Y-150500D02*
D03*
Y-145500D02*
D03*
Y-140500D02*
D03*
Y-135500D02*
D03*
Y-130500D02*
D03*
Y-125500D02*
D03*
Y-120500D02*
D03*
Y-115500D02*
D03*
D37*
X131500Y-34000D02*
D03*
Y-51717D02*
D03*
X167327Y-34000D02*
D03*
Y-51717D02*
D03*
D38*
X22000Y-28000D02*
D03*
X42000D02*
D03*
X62000D02*
D03*
X82000D02*
D03*
X32000Y-41500D02*
D03*
X52000D02*
D03*
X72000D02*
D03*
X92000D02*
D03*
D39*
X358724Y-179740D02*
D03*
Y-176000D02*
D03*
Y-172260D02*
D03*
X349276D02*
D03*
Y-179740D02*
D03*
X431776Y-196760D02*
D03*
Y-200500D02*
D03*
Y-204240D02*
D03*
X441224D02*
D03*
Y-196760D02*
D03*
D75*
X364500Y-116000D02*
D03*
D76*
X238480Y-128469D02*
D03*
X231000D02*
D03*
X223520D02*
D03*
X216039D02*
D03*
X208559D02*
D03*
Y-76500D02*
D03*
X216039D02*
D03*
X223520D02*
D03*
X231000D02*
D03*
X238480D02*
D03*
D77*
X197535Y-117445D02*
D03*
Y-109965D02*
D03*
Y-102484D02*
D03*
Y-95004D02*
D03*
Y-87524D02*
D03*
X249504D02*
D03*
Y-95004D02*
D03*
Y-102484D02*
D03*
Y-109965D02*
D03*
Y-117445D02*
D03*
D79*
X349500Y-91500D02*
D03*
X359500D02*
D03*
X369500D02*
D03*
X379500Y-142000D02*
D03*
X369500D02*
D03*
X359500D02*
D03*
X339000Y-132000D02*
D03*
Y-122000D02*
D03*
Y-112000D02*
D03*
X390000Y-101500D02*
D03*
Y-111500D02*
D03*
Y-121500D02*
D03*
X82000Y-244500D02*
D03*
X92000D02*
D03*
X20500Y-242500D02*
D03*
Y-250311D02*
D03*
X-500Y-86500D02*
D03*
X9500D02*
D03*
X19500D02*
D03*
X29500D02*
D03*
X39500D02*
D03*
X49500D02*
D03*
X59500D02*
D03*
X69500D02*
D03*
X79500D02*
D03*
X89500D02*
D03*
X99500D02*
D03*
X109500D02*
D03*
X119500D02*
D03*
X147500D02*
D03*
Y-96500D02*
D03*
Y-106500D02*
D03*
Y-116500D02*
D03*
Y-126500D02*
D03*
Y-136500D02*
D03*
Y-146500D02*
D03*
Y-156500D02*
D03*
Y-166500D02*
D03*
Y-176500D02*
D03*
Y-186500D02*
D03*
X322000Y-205500D02*
D03*
Y-215500D02*
D03*
Y-225500D02*
D03*
X259000Y-22500D02*
D03*
X249000D02*
D03*
X239000D02*
D03*
X229000D02*
D03*
X209000D02*
D03*
X219000D02*
D03*
X129500Y-197000D02*
D03*
X119500D02*
D03*
X109500D02*
D03*
X99500D02*
D03*
X89500D02*
D03*
X79500D02*
D03*
X69500D02*
D03*
X59500D02*
D03*
X49500D02*
D03*
X39500D02*
D03*
X29500D02*
D03*
X19500D02*
D03*
X9500D02*
D03*
X452000Y-103000D02*
D03*
Y-93000D02*
D03*
Y-64000D02*
D03*
X286500Y-55500D02*
D03*
X452000Y-165500D02*
D03*
Y-155500D02*
D03*
D80*
X379500Y-91500D02*
D03*
X349500Y-142000D02*
D03*
X72000Y-244500D02*
D03*
X129500Y-86500D02*
D03*
X199000Y-22500D02*
D03*
X-500Y-197000D02*
D03*
X296500Y-55500D02*
D03*
D81*
X339000Y-102000D02*
D03*
X390000Y-131500D02*
D03*
X147500Y-196500D02*
D03*
X322000Y-235500D02*
D03*
X452000Y-113000D02*
D03*
Y-54000D02*
D03*
Y-175500D02*
D03*
D82*
X442500Y0D02*
D03*
Y-268500D02*
D03*
X50000D02*
D03*
Y0D02*
D03*
D83*
X49216Y-148906D02*
D03*
Y-154417D02*
D03*
Y-143394D02*
D03*
X54728Y-154417D02*
D03*
Y-148906D02*
D03*
Y-143394D02*
D03*
X46461Y-151661D02*
D03*
Y-146150D02*
D03*
X51972Y-151661D02*
D03*
Y-146150D02*
D03*
X57484Y-151661D02*
D03*
Y-146150D02*
D03*
M02*
