G04*
G04 #@! TF.GenerationSoftware,Altium Limited,Altium Designer,21.9.2 (33)*
G04*
G04 Layer_Color=255*
%FSLAX25Y25*%
%MOIN*%
G70*
G04*
G04 #@! TF.SameCoordinates,6EE597BA-1CB3-45A4-8721-CD5E6EA852CE*
G04*
G04*
G04 #@! TF.FilePolarity,Positive*
G04*
G01*
G75*
%ADD79C,0.05906*%
%ADD80R,0.05906X0.05906*%
%ADD81R,0.05906X0.05906*%
%ADD82C,0.13000*%
%ADD83C,0.01575*%
D79*
X349500Y-91500D02*
D03*
X359500D02*
D03*
X369500D02*
D03*
X379500Y-142000D02*
D03*
X369500D02*
D03*
X359500D02*
D03*
X339000Y-132000D02*
D03*
Y-122000D02*
D03*
Y-112000D02*
D03*
X390000Y-101500D02*
D03*
Y-111500D02*
D03*
Y-121500D02*
D03*
X82000Y-244500D02*
D03*
X92000D02*
D03*
X20500Y-242500D02*
D03*
Y-250311D02*
D03*
X-500Y-86500D02*
D03*
X9500D02*
D03*
X19500D02*
D03*
X29500D02*
D03*
X39500D02*
D03*
X49500D02*
D03*
X59500D02*
D03*
X69500D02*
D03*
X79500D02*
D03*
X89500D02*
D03*
X99500D02*
D03*
X109500D02*
D03*
X119500D02*
D03*
X147500D02*
D03*
Y-96500D02*
D03*
Y-106500D02*
D03*
Y-116500D02*
D03*
Y-126500D02*
D03*
Y-136500D02*
D03*
Y-146500D02*
D03*
Y-156500D02*
D03*
Y-166500D02*
D03*
Y-176500D02*
D03*
Y-186500D02*
D03*
X322000Y-205500D02*
D03*
Y-215500D02*
D03*
Y-225500D02*
D03*
X259000Y-22500D02*
D03*
X249000D02*
D03*
X239000D02*
D03*
X229000D02*
D03*
X209000D02*
D03*
X219000D02*
D03*
X129500Y-197000D02*
D03*
X119500D02*
D03*
X109500D02*
D03*
X99500D02*
D03*
X89500D02*
D03*
X79500D02*
D03*
X69500D02*
D03*
X59500D02*
D03*
X49500D02*
D03*
X39500D02*
D03*
X29500D02*
D03*
X19500D02*
D03*
X9500D02*
D03*
X452000Y-103000D02*
D03*
Y-93000D02*
D03*
Y-64000D02*
D03*
X286500Y-55500D02*
D03*
X452000Y-165500D02*
D03*
Y-155500D02*
D03*
D80*
X379500Y-91500D02*
D03*
X349500Y-142000D02*
D03*
X72000Y-244500D02*
D03*
X129500Y-86500D02*
D03*
X199000Y-22500D02*
D03*
X-500Y-197000D02*
D03*
X296500Y-55500D02*
D03*
D81*
X339000Y-102000D02*
D03*
X390000Y-131500D02*
D03*
X147500Y-196500D02*
D03*
X322000Y-235500D02*
D03*
X452000Y-113000D02*
D03*
Y-54000D02*
D03*
Y-175500D02*
D03*
D82*
X442500Y0D02*
D03*
Y-268500D02*
D03*
X50000D02*
D03*
Y0D02*
D03*
D83*
X49216Y-148906D02*
D03*
Y-154417D02*
D03*
Y-143394D02*
D03*
X54728Y-154417D02*
D03*
Y-148906D02*
D03*
Y-143394D02*
D03*
X46461Y-151661D02*
D03*
Y-146150D02*
D03*
X51972Y-151661D02*
D03*
Y-146150D02*
D03*
X57484Y-151661D02*
D03*
Y-146150D02*
D03*
M02*
