G04*
G04 #@! TF.GenerationSoftware,Altium Limited,Altium Designer,21.9.2 (33)*
G04*
G04 Layer_Color=255*
%FSLAX25Y25*%
%MOIN*%
G70*
G04*
G04 #@! TF.SameCoordinates,797E14BC-7F6C-4E8E-AAEC-09A9AC4009BE*
G04*
G04*
G04 #@! TF.FilePolarity,Positive*
G04*
G01*
G75*
%ADD153C,0.15748*%
%ADD154C,0.05906*%
%ADD155R,0.05906X0.05906*%
%ADD156R,0.05906X0.05906*%
%ADD157C,0.06417*%
%ADD158C,0.04449*%
%ADD159C,0.06221*%
%ADD160C,0.04252*%
%ADD161C,0.22100*%
%ADD162C,0.06000*%
D153*
X138244Y24390D02*
D03*
X225744Y109390D02*
D03*
Y337736D02*
D03*
X60390Y109390D02*
D03*
Y337736D02*
D03*
X650508Y22390D02*
D03*
X498146D02*
D03*
D154*
X230831Y318390D02*
D03*
X220831D02*
D03*
X230831Y308390D02*
D03*
X220831D02*
D03*
X230831Y298390D02*
D03*
X220831D02*
D03*
X230831Y288390D02*
D03*
X220831D02*
D03*
X230831Y278390D02*
D03*
X220831D02*
D03*
X230831Y268390D02*
D03*
X220831D02*
D03*
X230831Y258390D02*
D03*
X220831D02*
D03*
X230831Y248390D02*
D03*
X220831D02*
D03*
X230831Y238390D02*
D03*
X220831D02*
D03*
X230831Y228390D02*
D03*
X220831D02*
D03*
X230831Y218390D02*
D03*
X220831D02*
D03*
X230831Y208390D02*
D03*
X220831D02*
D03*
X230831Y198390D02*
D03*
X220831D02*
D03*
X230831Y188390D02*
D03*
X220831D02*
D03*
X230831Y178390D02*
D03*
X220831D02*
D03*
X230831Y168390D02*
D03*
X220831D02*
D03*
X230831Y158390D02*
D03*
X220831D02*
D03*
X230831Y148390D02*
D03*
X220831D02*
D03*
X230831Y138390D02*
D03*
X220831D02*
D03*
X230831Y128390D02*
D03*
X148244Y64390D02*
D03*
Y54390D02*
D03*
X138244Y64390D02*
D03*
Y54390D02*
D03*
X128244Y64390D02*
D03*
X56244Y62390D02*
D03*
X66244Y52390D02*
D03*
Y62390D02*
D03*
X197744Y397390D02*
D03*
Y407390D02*
D03*
X187744Y397390D02*
D03*
Y407390D02*
D03*
X177744Y397390D02*
D03*
Y407390D02*
D03*
X167744Y397390D02*
D03*
Y407390D02*
D03*
X157744Y397390D02*
D03*
X375744Y526874D02*
D03*
Y519063D02*
D03*
X705744Y95390D02*
D03*
Y105390D02*
D03*
Y85390D02*
D03*
Y75390D02*
D03*
Y65390D02*
D03*
Y55390D02*
D03*
X421244Y288736D02*
D03*
Y278736D02*
D03*
X454331Y279390D02*
D03*
X421244Y237736D02*
D03*
Y227736D02*
D03*
X311331Y-103610D02*
D03*
X301331D02*
D03*
X291331D02*
D03*
X449331Y-69110D02*
D03*
Y-59110D02*
D03*
Y-49110D02*
D03*
Y-39110D02*
D03*
Y-29110D02*
D03*
Y-19110D02*
D03*
Y-9110D02*
D03*
Y-79110D02*
D03*
X348744Y519079D02*
D03*
Y526890D02*
D03*
X28744Y485547D02*
D03*
Y477736D02*
D03*
X27744Y442236D02*
D03*
Y434425D02*
D03*
X426244Y533236D02*
D03*
Y523236D02*
D03*
X314331Y262890D02*
D03*
X412244Y390736D02*
D03*
Y380736D02*
D03*
X410331Y320390D02*
D03*
D155*
X220831Y128390D02*
D03*
X705744Y115390D02*
D03*
X421244Y268736D02*
D03*
X454331Y289390D02*
D03*
X421244Y217736D02*
D03*
X449331Y-89110D02*
D03*
X426244Y513236D02*
D03*
X412244Y400736D02*
D03*
D156*
X128244Y54390D02*
D03*
X56244Y52390D02*
D03*
X157744Y407390D02*
D03*
X321331Y-103610D02*
D03*
X324331Y262890D02*
D03*
X420331Y320390D02*
D03*
D157*
X579748Y89260D02*
D03*
D158*
X678173D02*
D03*
D159*
X581323Y287291D02*
D03*
D160*
X676598D02*
D03*
D161*
X362744Y-50264D02*
D03*
D162*
X385831Y119390D02*
D03*
Y129390D02*
D03*
Y139390D02*
D03*
X375831Y39390D02*
D03*
X395831Y169390D02*
D03*
Y159390D02*
D03*
Y149390D02*
D03*
Y139390D02*
D03*
Y129390D02*
D03*
Y119390D02*
D03*
Y109390D02*
D03*
Y99390D02*
D03*
Y89390D02*
D03*
Y79390D02*
D03*
Y69390D02*
D03*
Y59390D02*
D03*
Y49390D02*
D03*
Y39390D02*
D03*
X385831D02*
D03*
X365831D02*
D03*
X355831D02*
D03*
X345831D02*
D03*
X335831D02*
D03*
Y49390D02*
D03*
Y59390D02*
D03*
Y69390D02*
D03*
Y79390D02*
D03*
Y89390D02*
D03*
Y99390D02*
D03*
Y109390D02*
D03*
Y119390D02*
D03*
Y129390D02*
D03*
Y139390D02*
D03*
Y149390D02*
D03*
Y159390D02*
D03*
Y169390D02*
D03*
M02*
