G04*
G04 #@! TF.GenerationSoftware,Altium Limited,Altium Designer,21.9.2 (33)*
G04*
G04 Layer_Physical_Order=2*
G04 Layer_Color=32768*
%FSLAX25Y25*%
%MOIN*%
G70*
G04*
G04 #@! TF.SameCoordinates,9A5E8FC1-FE96-461C-A98D-337A259D0729*
G04*
G04*
G04 #@! TF.FilePolarity,Negative*
G04*
G01*
G75*
%ADD10C,0.01000*%
%ADD125C,0.06800*%
%ADD169C,0.04000*%
%ADD170C,0.16000*%
%ADD171C,0.07543*%
G04:AMPARAMS|DCode=172|XSize=95.433mil|YSize=95.433mil|CornerRadius=0mil|HoleSize=0mil|Usage=FLASHONLY|Rotation=0.000|XOffset=0mil|YOffset=0mil|HoleType=Round|Shape=Relief|Width=10mil|Gap=10mil|Entries=4|*
%AMTHD172*
7,0,0,0.09543,0.07543,0.01000,45*
%
%ADD172THD172*%
%ADD173C,0.10417*%
%ADD174C,0.08449*%
%ADD175C,0.10221*%
%ADD176C,0.08252*%
%ADD177C,0.26100*%
%ADD178C,0.07600*%
%ADD179C,0.07500*%
G04:AMPARAMS|DCode=180|XSize=95mil|YSize=95mil|CornerRadius=0mil|HoleSize=0mil|Usage=FLASHONLY|Rotation=0.000|XOffset=0mil|YOffset=0mil|HoleType=Round|Shape=Relief|Width=10mil|Gap=10mil|Entries=4|*
%AMTHD180*
7,0,0,0.09500,0.07500,0.01000,45*
%
%ADD180THD180*%
G04:AMPARAMS|DCode=181|XSize=76mil|YSize=76mil|CornerRadius=0mil|HoleSize=0mil|Usage=FLASHONLY|Rotation=0.000|XOffset=0mil|YOffset=0mil|HoleType=Round|Shape=Relief|Width=10mil|Gap=10mil|Entries=4|*
%AMTHD181*
7,0,0,0.07600,0.05600,0.01000,45*
%
%ADD181THD181*%
%ADD182C,0.05600*%
G04:AMPARAMS|DCode=183|XSize=88mil|YSize=88mil|CornerRadius=0mil|HoleSize=0mil|Usage=FLASHONLY|Rotation=0.000|XOffset=0mil|YOffset=0mil|HoleType=Round|Shape=Relief|Width=10mil|Gap=10mil|Entries=4|*
%AMTHD183*
7,0,0,0.08800,0.06800,0.01000,45*
%
%ADD183THD183*%
G04:AMPARAMS|DCode=184|XSize=70mil|YSize=70mil|CornerRadius=0mil|HoleSize=0mil|Usage=FLASHONLY|Rotation=0.000|XOffset=0mil|YOffset=0mil|HoleType=Round|Shape=Relief|Width=10mil|Gap=10mil|Entries=4|*
%AMTHD184*
7,0,0,0.07000,0.05000,0.01000,45*
%
%ADD184THD184*%
G04:AMPARAMS|DCode=185|XSize=75mil|YSize=75mil|CornerRadius=0mil|HoleSize=0mil|Usage=FLASHONLY|Rotation=0.000|XOffset=0mil|YOffset=0mil|HoleType=Round|Shape=Relief|Width=10mil|Gap=10mil|Entries=4|*
%AMTHD185*
7,0,0,0.07500,0.05500,0.01000,45*
%
%ADD185THD185*%
G04:AMPARAMS|DCode=186|XSize=67.874mil|YSize=67.874mil|CornerRadius=0mil|HoleSize=0mil|Usage=FLASHONLY|Rotation=0.000|XOffset=0mil|YOffset=0mil|HoleType=Round|Shape=Relief|Width=10mil|Gap=10mil|Entries=4|*
%AMTHD186*
7,0,0,0.06787,0.04787,0.01000,45*
%
%ADD186THD186*%
D10*
X562244Y16890D02*
X695244D01*
X562244Y308890D02*
X695244D01*
Y16890D02*
Y308890D01*
X562244Y16890D02*
Y308890D01*
X549744Y174890D02*
Y457390D01*
X429331Y344390D02*
Y435390D01*
X422331Y174890D02*
X549744D01*
X415331Y181890D02*
X422331Y174890D01*
X415331Y181890D02*
Y330390D01*
X429331Y344390D01*
Y435390D02*
X451331Y457390D01*
X549744D01*
D125*
X507489Y171890D02*
D03*
X259744Y245890D02*
D03*
X270500Y263000D02*
D03*
X260244Y218713D02*
D03*
X672594Y96039D02*
D03*
X588744Y93890D02*
D03*
X658095Y83539D02*
D03*
X659094Y49039D02*
D03*
X454331Y352890D02*
D03*
X553244Y51390D02*
D03*
X534244Y147890D02*
D03*
X471244Y143890D02*
D03*
X490244Y127487D02*
D03*
X590244Y45890D02*
D03*
X680550Y22584D02*
D03*
X341744Y210890D02*
D03*
X628831Y-43610D02*
D03*
X230744Y-20110D02*
D03*
X181244Y-19110D02*
D03*
X223189Y-16665D02*
D03*
X172213Y-14142D02*
D03*
X219252Y-9618D02*
D03*
X168276Y-6079D02*
D03*
X270244Y209390D02*
D03*
X272244Y199390D02*
D03*
X284244Y53890D02*
D03*
X269244Y227390D02*
D03*
X262244Y224390D02*
D03*
X266244Y215390D02*
D03*
X302500Y242500D02*
D03*
X425831Y99390D02*
D03*
X425951Y132790D02*
D03*
X373000Y4000D02*
D03*
X483831Y94890D02*
D03*
X307000Y455000D02*
D03*
X200000Y480000D02*
D03*
X277831Y890D02*
D03*
X416831Y-39610D02*
D03*
X610831Y-112110D02*
D03*
X407331Y-19610D02*
D03*
X412831Y65390D02*
D03*
X410831Y51390D02*
D03*
X436331Y30390D02*
D03*
X393831Y-12110D02*
D03*
X517831Y-87610D02*
D03*
X328331Y-19110D02*
D03*
X317331Y58390D02*
D03*
X381331Y17390D02*
D03*
X486831Y219890D02*
D03*
X494831Y334390D02*
D03*
X522831Y326890D02*
D03*
X463331Y197390D02*
D03*
X358831Y199890D02*
D03*
X309331Y324390D02*
D03*
X288831Y150890D02*
D03*
X283331Y159390D02*
D03*
X273831Y160390D02*
D03*
X289331Y235390D02*
D03*
X279831Y232890D02*
D03*
X292734Y243073D02*
D03*
X290331Y193390D02*
D03*
X322331Y226390D02*
D03*
X314331Y228390D02*
D03*
X318331Y209890D02*
D03*
X320831Y200890D02*
D03*
X409831Y80390D02*
D03*
X473331Y71390D02*
D03*
X476831Y80890D02*
D03*
X438331Y83890D02*
D03*
X427331Y88890D02*
D03*
D169*
X47766Y-71031D02*
Y-69911D01*
Y-71031D02*
X48016Y-72123D01*
X48501Y-73131D01*
X49200Y-74007D01*
X98992Y-123799D01*
X100028Y-124594D01*
X101234Y-125093D01*
X102528Y-125264D01*
X622961Y-125264D01*
X624255Y-125093D01*
X625460Y-124594D01*
X626496Y-123799D01*
X676289Y-74007D01*
X676987Y-73131D01*
X677473Y-72122D01*
X677722Y-71031D01*
Y-69911D01*
X677473Y-68820D02*
X677722Y-69911D01*
X676987Y-67811D02*
X677473Y-68820D01*
X676289Y-66935D02*
X676987Y-67811D01*
X661774Y-52420D02*
X676289Y-66935D01*
X660400Y-50746D02*
X661774Y-52420D01*
X659378Y-48836D02*
X660400Y-50746D01*
X658750Y-46763D02*
X659378Y-48836D01*
X658537Y-44607D02*
X658750Y-46763D01*
X658537Y-44607D02*
X658750Y-42451D01*
X659378Y-40378D01*
X660400Y-38468D01*
X661774Y-36793D01*
X663448Y-35419D01*
X665359Y-34398D01*
X667432Y-33769D01*
X669587Y-33557D01*
X671743Y-33769D01*
X673816Y-34398D01*
X675726Y-35419D01*
X677401Y-36793D01*
X691916Y-51308D01*
X692791Y-52007D01*
X693800Y-52492D01*
X694892Y-52741D01*
X696011D01*
X697103Y-52492D01*
X698112Y-52007D01*
X698987Y-51308D01*
X748780Y-1516D01*
X749574Y-480D01*
X750074Y726D01*
X750244Y2020D01*
Y522453D01*
X750074Y523747D02*
X750244Y522453D01*
X749574Y524953D02*
X750074Y523747D01*
X748780Y525988D02*
X749574Y524953D01*
X698987Y575781D02*
X748780Y525988D01*
X698112Y576479D02*
X698987Y575781D01*
X697103Y576965D02*
X698112Y576479D01*
X696011Y577214D02*
X697103Y576965D01*
X694892Y577214D02*
X696011D01*
X693800Y576965D02*
X694892Y577214D01*
X692791Y576479D02*
X693800Y576965D01*
X691916Y575781D02*
X692791Y576479D01*
X677401Y561266D02*
X691916Y575781D01*
X675726Y559892D02*
X677401Y561266D01*
X673816Y558871D02*
X675726Y559892D01*
X671743Y558242D02*
X673816Y558871D01*
X669587Y558029D02*
X671743Y558242D01*
X667431D02*
X669587Y558029D01*
X665359Y558871D02*
X667431Y558242D01*
X663448Y559892D02*
X665359Y558871D01*
X661774Y561266D02*
X663448Y559892D01*
X660399Y562940D02*
X661774Y561266D01*
X659378Y564851D02*
X660399Y562940D01*
X658750Y566924D02*
X659378Y564851D01*
X658537Y569079D02*
X658750Y566924D01*
X658537Y569079D02*
X658750Y571235D01*
X659378Y573308D01*
X660399Y575218D01*
X661774Y576893D01*
X676289Y591408D01*
X676987Y592283D01*
X677473Y593292D01*
X677722Y594384D01*
Y595503D01*
X677473Y596595D02*
X677722Y595503D01*
X676987Y597604D02*
X677473Y596595D01*
X676289Y598479D02*
X676987Y597604D01*
X626496Y648272D02*
X676289Y598479D01*
X625460Y649066D02*
X626496Y648272D01*
X624255Y649566D02*
X625460Y649066D01*
X622961Y649736D02*
X624255Y649566D01*
X492852Y649736D02*
X622961D01*
X384352Y541236D02*
X492852Y649736D01*
X341136Y541236D02*
X384352D01*
X232636Y649736D02*
X341136Y541236D01*
X102528Y649736D02*
X232636D01*
X101234Y649566D02*
X102528Y649736D01*
X100028Y649066D02*
X101234Y649566D01*
X98992Y648272D02*
X100028Y649066D01*
X49199Y598479D02*
X98992Y648272D01*
X48501Y597604D02*
X49199Y598479D01*
X48015Y596595D02*
X48501Y597604D01*
X47766Y595503D02*
X48015Y596595D01*
X47766Y594384D02*
Y595503D01*
Y594384D02*
X48015Y593292D01*
X48501Y592283D01*
X49199Y591408D01*
X63714Y576893D01*
X65089Y575218D01*
X66110Y573308D01*
X66739Y571235D01*
X66951Y569079D01*
X66739Y566924D02*
X66951Y569079D01*
X66110Y564851D02*
X66739Y566924D01*
X65089Y562940D02*
X66110Y564851D01*
X63714Y561266D02*
X65089Y562940D01*
X62040Y559892D02*
X63714Y561266D01*
X60130Y558871D02*
X62040Y559892D01*
X58057Y558242D02*
X60130Y558871D01*
X55901Y558029D02*
X58057Y558242D01*
X53745D02*
X55901Y558029D01*
X51672Y558871D02*
X53745Y558242D01*
X49762Y559892D02*
X51672Y558871D01*
X48087Y561266D02*
X49762Y559892D01*
X33572Y575781D02*
X48087Y561266D01*
X32697Y576479D02*
X33572Y575781D01*
X31688Y576965D02*
X32697Y576479D01*
X30597Y577214D02*
X31688Y576965D01*
X29477Y577214D02*
X30597D01*
X28385Y576965D02*
X29477Y577214D01*
X27377Y576479D02*
X28385Y576965D01*
X26501Y575781D02*
X27377Y576479D01*
X-23291Y525988D02*
X26501Y575781D01*
X-24086Y524953D02*
X-23291Y525988D01*
X-24586Y523747D02*
X-24086Y524953D01*
X-24756Y522453D02*
X-24586Y523747D01*
X-24756Y522453D02*
X-24756Y2020D01*
X-24586Y726D01*
X-24086Y-480D01*
X-23291Y-1516D01*
X26501Y-51309D01*
X27377Y-52007D01*
X28385Y-52492D01*
X29477Y-52741D01*
X30597D01*
X31688Y-52492D01*
X32697Y-52007D01*
X33572Y-51309D01*
X48087Y-36793D01*
X49762Y-35419D01*
X51672Y-34398D01*
X53745Y-33769D01*
X55901Y-33557D01*
X58057Y-33769D01*
X60130Y-34398D01*
X62040Y-35419D01*
X63714Y-36793D01*
X65089Y-38468D01*
X66110Y-40378D01*
X66739Y-42451D01*
X66951Y-44607D01*
X66739Y-46763D02*
X66951Y-44607D01*
X66110Y-48836D02*
X66739Y-46763D01*
X65089Y-50746D02*
X66110Y-48836D01*
X63714Y-52421D02*
X65089Y-50746D01*
X49200Y-66935D02*
X63714Y-52421D01*
X48501Y-67811D02*
X49200Y-66935D01*
X48016Y-68820D02*
X48501Y-67811D01*
X47766Y-69911D02*
X48016Y-68820D01*
D170*
X138244Y24390D02*
D03*
X225744Y109390D02*
D03*
Y337736D02*
D03*
X60390Y109390D02*
D03*
Y337736D02*
D03*
X650508Y22390D02*
D03*
X498146D02*
D03*
D171*
X230831Y318390D02*
D03*
Y308390D02*
D03*
X220831D02*
D03*
X230831Y298390D02*
D03*
X220831D02*
D03*
Y288390D02*
D03*
X230831Y278390D02*
D03*
X220831D02*
D03*
Y268390D02*
D03*
X230831Y258390D02*
D03*
X220831D02*
D03*
X230831Y248390D02*
D03*
Y238390D02*
D03*
X220831D02*
D03*
X230831Y228390D02*
D03*
X220831D02*
D03*
Y218390D02*
D03*
X230831Y208390D02*
D03*
X220831D02*
D03*
X230831Y198390D02*
D03*
X220831D02*
D03*
Y188390D02*
D03*
X230831Y178390D02*
D03*
X220831D02*
D03*
X230831Y168390D02*
D03*
Y158390D02*
D03*
X220831D02*
D03*
Y148390D02*
D03*
X230831Y138390D02*
D03*
X220831D02*
D03*
X230831Y128390D02*
D03*
X220831D02*
D03*
X148244Y64390D02*
D03*
Y54390D02*
D03*
X138244Y64390D02*
D03*
Y54390D02*
D03*
X128244Y64390D02*
D03*
Y54390D02*
D03*
X56244Y52390D02*
D03*
Y62390D02*
D03*
X66244Y52390D02*
D03*
Y62390D02*
D03*
X197744Y397390D02*
D03*
Y407390D02*
D03*
X187744Y397390D02*
D03*
Y407390D02*
D03*
X177744Y397390D02*
D03*
Y407390D02*
D03*
X167744Y397390D02*
D03*
X157744D02*
D03*
Y407390D02*
D03*
X375744Y519063D02*
D03*
X705744Y95390D02*
D03*
Y115390D02*
D03*
Y105390D02*
D03*
Y85390D02*
D03*
Y75390D02*
D03*
Y65390D02*
D03*
X421244Y278736D02*
D03*
Y268736D02*
D03*
X454331Y289390D02*
D03*
Y279390D02*
D03*
X421244Y227736D02*
D03*
Y217736D02*
D03*
X321331Y-103610D02*
D03*
X301331D02*
D03*
X291331D02*
D03*
X449331Y-89110D02*
D03*
Y-59110D02*
D03*
Y-49110D02*
D03*
Y-39110D02*
D03*
Y-29110D02*
D03*
Y-19110D02*
D03*
Y-9110D02*
D03*
Y-79110D02*
D03*
X348744Y519079D02*
D03*
X28744Y485547D02*
D03*
X27744Y442236D02*
D03*
X426244Y523236D02*
D03*
Y513236D02*
D03*
X292500Y364500D02*
D03*
X412244Y400736D02*
D03*
Y390736D02*
D03*
Y380736D02*
D03*
D172*
X220831Y318390D02*
D03*
X230831Y288390D02*
D03*
Y268390D02*
D03*
X220831Y248390D02*
D03*
X230831Y218390D02*
D03*
Y188390D02*
D03*
X220831Y168390D02*
D03*
X230831Y148390D02*
D03*
X167744Y407390D02*
D03*
X375744Y526874D02*
D03*
X705744Y55390D02*
D03*
X421244Y288736D02*
D03*
Y237736D02*
D03*
X311331Y-103610D02*
D03*
X449331Y-69110D02*
D03*
X348744Y526890D02*
D03*
X28744Y477736D02*
D03*
X27744Y434425D02*
D03*
X426244Y533236D02*
D03*
X292500Y374500D02*
D03*
X420331Y320390D02*
D03*
X410331D02*
D03*
D173*
X579748Y89260D02*
D03*
D174*
X678173D02*
D03*
D175*
X581323Y287291D02*
D03*
D176*
X676598D02*
D03*
D177*
X362744Y-50264D02*
D03*
D178*
X385831Y119390D02*
D03*
Y129390D02*
D03*
Y139390D02*
D03*
X375831Y39390D02*
D03*
X395831Y169390D02*
D03*
Y159390D02*
D03*
Y149390D02*
D03*
Y139390D02*
D03*
Y129390D02*
D03*
Y119390D02*
D03*
Y109390D02*
D03*
Y99390D02*
D03*
Y89390D02*
D03*
Y79390D02*
D03*
Y69390D02*
D03*
Y59390D02*
D03*
Y49390D02*
D03*
Y39390D02*
D03*
X385831D02*
D03*
X365831D02*
D03*
X355831D02*
D03*
X345831D02*
D03*
X335831D02*
D03*
Y49390D02*
D03*
Y59390D02*
D03*
Y69390D02*
D03*
Y79390D02*
D03*
Y89390D02*
D03*
Y99390D02*
D03*
Y109390D02*
D03*
Y119390D02*
D03*
Y129390D02*
D03*
Y139390D02*
D03*
Y149390D02*
D03*
D179*
Y159390D02*
D03*
D180*
Y169390D02*
D03*
D181*
X221000Y475500D02*
D03*
X249000Y477500D02*
D03*
D182*
X255500Y451500D02*
D03*
X219000Y459512D02*
D03*
X219664Y465475D02*
D03*
X219000Y453512D02*
D03*
X244000Y486000D02*
D03*
D183*
X250000Y422500D02*
D03*
X475010Y106316D02*
D03*
X322331Y311890D02*
D03*
X215315Y-20039D02*
D03*
X164339Y-19705D02*
D03*
X272244Y60390D02*
D03*
X443831Y100000D02*
D03*
X297500Y252500D02*
D03*
X424500Y380500D02*
D03*
X253500Y507000D02*
D03*
X130000Y509500D02*
D03*
X175500Y437500D02*
D03*
X514331Y307390D02*
D03*
X409331Y-49110D02*
D03*
X334831Y365390D02*
D03*
X369169Y-6390D02*
D03*
X397331Y400390D02*
D03*
X311331Y366390D02*
D03*
X312831Y240390D02*
D03*
X301831Y149890D02*
D03*
X471331Y258390D02*
D03*
X480831Y298390D02*
D03*
X508831Y296890D02*
D03*
X460677Y323163D02*
D03*
X528331Y284390D02*
D03*
X483331Y256390D02*
D03*
X456331Y233890D02*
D03*
X449831Y77890D02*
D03*
X451331Y86390D02*
D03*
X479331Y60390D02*
D03*
D184*
X696244Y324736D02*
D03*
X708744Y299736D02*
D03*
Y249736D02*
D03*
Y199736D02*
D03*
Y149736D02*
D03*
Y99736D02*
D03*
Y49736D02*
D03*
X671244Y324736D02*
D03*
X683744Y299736D02*
D03*
Y249736D02*
D03*
X671244Y224736D02*
D03*
X683744Y199736D02*
D03*
X671244Y174736D02*
D03*
X683744Y149736D02*
D03*
X671244Y124736D02*
D03*
X683744Y99736D02*
D03*
X646244Y324736D02*
D03*
X658744Y299736D02*
D03*
X646244Y274736D02*
D03*
X658744Y249736D02*
D03*
X646244Y224736D02*
D03*
X658744Y199736D02*
D03*
X646244Y174736D02*
D03*
X658744Y149736D02*
D03*
X646244Y124736D02*
D03*
X621244Y324736D02*
D03*
X633744Y299736D02*
D03*
X621244Y274736D02*
D03*
X633744Y249736D02*
D03*
X621244Y224736D02*
D03*
X633744Y199736D02*
D03*
X621244Y174736D02*
D03*
X633744Y149736D02*
D03*
X621244Y124736D02*
D03*
X633744Y49736D02*
D03*
X596244Y324736D02*
D03*
X608744Y299736D02*
D03*
X596244Y274736D02*
D03*
X608744Y249736D02*
D03*
X596244Y224736D02*
D03*
X608744Y199736D02*
D03*
X596244Y174736D02*
D03*
X608744Y149736D02*
D03*
X596244Y124736D02*
D03*
X608744Y99736D02*
D03*
Y49736D02*
D03*
X571244Y324736D02*
D03*
Y274736D02*
D03*
X583744Y249736D02*
D03*
X571244Y224736D02*
D03*
X583744Y199736D02*
D03*
X571244Y174736D02*
D03*
X583744Y149736D02*
D03*
X571244Y124736D02*
D03*
Y-25264D02*
D03*
Y-75264D02*
D03*
X558744Y-50264D02*
D03*
X546244Y-75264D02*
D03*
X508744Y-50264D02*
D03*
X471244Y-25264D02*
D03*
D185*
X561244Y-15264D02*
D03*
X566244Y-25264D02*
D03*
X561244Y-35264D02*
D03*
X566244Y-45264D02*
D03*
X561244Y-55264D02*
D03*
X566244Y-65264D02*
D03*
X561244Y-75264D02*
D03*
X566244Y-85264D02*
D03*
X561244Y-95264D02*
D03*
X551244Y-15264D02*
D03*
X556244Y-25264D02*
D03*
X551244Y-35264D02*
D03*
X556244Y-45264D02*
D03*
X551244Y-55264D02*
D03*
X556244Y-65264D02*
D03*
Y-85264D02*
D03*
X551244Y-95264D02*
D03*
X541244Y-15264D02*
D03*
X546244Y-25264D02*
D03*
Y-45264D02*
D03*
Y-65264D02*
D03*
X541244Y-75264D02*
D03*
X531244Y-15264D02*
D03*
X536244Y-25264D02*
D03*
Y-85264D02*
D03*
X521244Y-15264D02*
D03*
Y-35264D02*
D03*
X526244Y-45264D02*
D03*
X521244Y-55264D02*
D03*
X526244Y-65264D02*
D03*
Y-85264D02*
D03*
X511244Y-15264D02*
D03*
Y-35264D02*
D03*
X516244Y-45264D02*
D03*
X511244Y-55264D02*
D03*
X516244Y-65264D02*
D03*
X501244Y-35264D02*
D03*
X506244Y-45264D02*
D03*
X501244Y-55264D02*
D03*
X506244Y-65264D02*
D03*
X501244Y-95264D02*
D03*
X491244Y-15264D02*
D03*
X496244Y-45264D02*
D03*
X491244Y-55264D02*
D03*
X496244Y-65264D02*
D03*
X491244Y-95264D02*
D03*
X481244Y-15264D02*
D03*
X486244Y-25264D02*
D03*
X481244Y-75264D02*
D03*
Y-95264D02*
D03*
X471244Y-15264D02*
D03*
X476244Y-25264D02*
D03*
X471244Y-35264D02*
D03*
Y-75264D02*
D03*
Y-95264D02*
D03*
X466244Y-45264D02*
D03*
Y-65264D02*
D03*
X461244Y-75264D02*
D03*
Y-95264D02*
D03*
X456244Y-45264D02*
D03*
Y-65264D02*
D03*
D186*
X334512Y345681D02*
D03*
Y341350D02*
D03*
X330181Y345681D02*
D03*
Y341350D02*
D03*
M02*
