G04*
G04 #@! TF.GenerationSoftware,Altium Limited,Altium Designer,21.9.2 (33)*
G04*
G04 Layer_Color=32768*
%FSLAX25Y25*%
%MOIN*%
G70*
G04*
G04 #@! TF.SameCoordinates,797E14BC-7F6C-4E8E-AAEC-09A9AC4009BE*
G04*
G04*
G04 #@! TF.FilePolarity,Positive*
G04*
G01*
G75*
%ADD17C,0.00394*%
%ADD191C,0.00197*%
D17*
X493862Y279890D02*
X497799D01*
X495831Y277921D02*
Y281858D01*
X524331Y297421D02*
Y301358D01*
X522362Y299390D02*
X526299D01*
X481276Y233236D02*
X485213D01*
X483244Y231268D02*
Y235205D01*
X490331Y225362D02*
Y241110D01*
X476158Y225362D02*
Y241110D01*
X490331D01*
X476158Y225362D02*
X490331D01*
X489831Y321108D02*
Y325045D01*
X487862Y323076D02*
X491799D01*
X481957Y330163D02*
X497705D01*
X481957Y315990D02*
X497705D01*
X481957D02*
Y330163D01*
X497705Y315990D02*
Y330163D01*
X454465Y209906D02*
X458402D01*
X456433Y207937D02*
Y211874D01*
X463520Y202031D02*
Y217779D01*
X449346Y202031D02*
Y217779D01*
X463520D01*
X449346Y202031D02*
X463520D01*
X332347Y341547D02*
Y345484D01*
X330378Y343516D02*
X334315D01*
X406157Y-59374D02*
X420331D01*
X406157Y-75122D02*
X420331D01*
Y-59374D01*
X406157Y-75122D02*
Y-59374D01*
X413244Y-69217D02*
Y-65280D01*
X411276Y-67248D02*
X415213D01*
X280768Y58957D02*
Y73130D01*
X296516Y58957D02*
Y73130D01*
X280768D02*
X296516D01*
X280768Y58957D02*
X296516D01*
X286673Y66043D02*
X290610D01*
X288642Y64075D02*
Y68012D01*
D191*
X673071Y31303D02*
Y45476D01*
X656417Y31303D02*
Y45476D01*
Y31303D02*
X673071D01*
X656417Y45476D02*
X673071D01*
X564965Y66776D02*
Y304303D01*
Y66776D02*
X693331D01*
Y304303D01*
X564965D02*
X693331D01*
X235591Y-44862D02*
Y-26358D01*
X206850D02*
X235591D01*
X206850Y-44862D02*
Y-26358D01*
Y-44862D02*
X235591D01*
X184614D02*
Y-26358D01*
X155874D02*
X184614D01*
X155874Y-44862D02*
Y-26358D01*
Y-44862D02*
X184614D01*
X110142Y463106D02*
X122346D01*
Y484366D01*
X110142D02*
X122346D01*
X110142Y463106D02*
Y484366D01*
X309398Y463870D02*
X321602D01*
Y485130D01*
X309398D02*
X321602D01*
X309398Y463870D02*
Y485130D01*
X483626Y267685D02*
Y292094D01*
X508035Y267685D02*
Y292094D01*
X483626Y267685D02*
X508035D01*
X483626Y292094D02*
X508035D01*
X517835Y304016D02*
X530827D01*
X517835Y294764D02*
X530827D01*
X517835D02*
Y304016D01*
X530827Y294764D02*
Y304016D01*
X302811Y225996D02*
X305528D01*
X302811D02*
Y227217D01*
X292102D02*
X302811D01*
X292102Y225996D02*
Y227217D01*
X289386Y225996D02*
X292102D01*
X305528Y209854D02*
Y212571D01*
X306748D01*
Y223280D01*
X305528D02*
X306748D01*
X305528D02*
Y225996D01*
X289386Y209854D02*
X292102D01*
Y208634D02*
Y209854D01*
Y208634D02*
X302811D01*
Y209854D01*
X305528D01*
X289386Y223280D02*
Y225996D01*
X288165Y223280D02*
X289386D01*
X288165Y212571D02*
Y223280D01*
Y212571D02*
X289386D01*
Y209854D02*
Y212571D01*
X321323Y359067D02*
X343370D01*
X321323Y327965D02*
X343370D01*
Y359067D01*
X321323Y327965D02*
Y359067D01*
M02*
