M48
;Layer_Color=9474304
;FILE_FORMAT=2:5
INCH,TZ
;TYPE=PLATED
T1F00S00C0.00787
T2F00S00C0.01000
T3F00S00C0.01500
T4F00S00C0.01600
T5F00S00C0.02800
T6F00S00C0.03500
T7F00S00C0.03543
T8F00S00C0.03600
T9F00S00C0.12000
T10F00S00C0.22100
;TYPE=NON_PLATED
T11F00S00C0.04252
T12F00S00C0.04449
T13F00S00C0.06220
T14F00S00C0.06417
%
T01
X330181Y341350
X334512
Y345681
X330181
T02
X471244Y-25264
X508744Y-50264
X558744
X571244Y-25264
Y-75264
X546244
X608744Y49736
X633744
X708744
Y99736
X683744
X671244Y124736
X646244
X621244
X596244
X608744Y149736
X633744
X658744
X683744
X708744
X671244Y174736
X646244
X621244
X596244
X608744Y99736
X571244Y124736
X583744Y149736
X571244Y174736
X583744Y199736
X571244Y224736
X583744Y249736
X571244Y274736
Y324736
X596244
X621244
X646244
X671244
X696244
X708744Y299736
X683744
X658744
X633744
X608744
X621244Y274736
X646244
X658744Y249736
X683744
X708744
Y199736
X683744
X658744
X633744
X608744
X621244Y224736
X646244
X671244
X633744Y249736
X608744
X596244Y274736
Y224736
T03
X461244Y-95264
X471244
X481244
X491244
X501244
X526244Y-85264
X536244
X541244Y-75264
X546244Y-65264
X556244
X566244
X561244Y-55264
X551244
X556244Y-45264
X566244
X561244Y-35264
X551244
X556244Y-25264
X566244
X561244Y-15264
X551244
X541244
X531244
X521244
X511244
Y-35264
X521244
X526244Y-45264
X516244
X506244
X496244
X501244Y-35264
Y-55264
X511244
X521244
X526244Y-65264
X516244
X506244
X496244
X491244Y-55264
X481244Y-75264
X471244
X461244
X466244Y-65264
X456244
Y-45264
X466244
X471244Y-35264
X476244Y-25264
X486244
X491244Y-15264
X481244
X471244
X536244Y-25264
X546244
Y-45264
X561244Y-75264
X566244Y-85264
X556244
X561244Y-95264
X551244
T04
X219000Y453512
Y459512
X219664Y465475
X221988Y475500
X248000Y475000
X244000Y486000
X254500Y455000
T05
X164339Y-19705
X172213Y-14142
X168276Y-6079
X181244Y-19110
X215315Y-20039
X223189Y-16665
X219252Y-9618
X230744Y-20110
X277831Y890
X328331Y-19110
X369169Y-6390
X373000Y4000
X381331Y17390
X393831Y-12110
X407331Y-19610
X416831Y-39610
X409331Y-49110
X436331Y30390
X517831Y-87610
X610831Y-112110
X628831Y-43610
X680550Y22584
X659094Y49039
X658095Y83539
X672594Y96039
X588744Y93890
X590244Y45890
X553244Y51390
X479331Y60390
X473331Y71390
X476831Y80890
X483831Y94890
X475010Y106316
X490244Y127487
X471244Y143890
X503831Y172390
X534244Y147890
X443831Y100000
X451331Y86390
X449831Y77890
X438331Y83890
X427331Y88890
X425831Y99390
X425951Y132790
X409831Y80390
X412831Y65390
X410831Y51390
X317331Y58390
X284244Y53890
X288831Y150890
X301831Y149890
X283331Y159390
X273831Y160390
X272244Y60390
X167744Y64390
X272244Y199390
X270244Y209390
X266244Y215390
X260244Y218713
X262244Y224390
X269244Y227390
X279831Y232890
X259744Y245890
X270500Y263000
X297500Y252500
X292734Y243073
X302500Y242500
X312831Y240390
X314331Y228390
X322331Y226390
X318331Y209890
X320831Y200890
X341744Y210890
X358831Y199890
X290331Y193390
X289331Y235390
X309331Y324390
X322331Y311890
X460677Y323163
X480831Y298390
X508831Y296890
X514331Y307390
X522831Y326890
X494831Y334390
X528331Y284390
X483331Y256390
X471331Y258390
X456331Y233890
X463331Y197390
X486831Y219890
X454331Y352890
X424500Y380500
X397331Y400390
X334831Y365390
X311331Y366390
X307000Y455000
X250000Y422500
X175500Y437500
X200000Y480000
X253500Y507000
X130000Y509500
T06
X335831Y159390
Y169390
T07
X291331Y-103610
X301331
X311331
X321331
X449331Y-89110
Y-79110
Y-69110
Y-59110
Y-49110
Y-39110
Y-29110
Y-19110
Y-9110
X705744Y55390
Y65390
Y75390
Y85390
Y95390
Y105390
Y115390
X230831Y128390
Y138390
Y148390
Y158390
Y168390
Y178390
X220831
Y168390
Y158390
Y148390
Y138390
Y128390
X138244Y88890
X128244
Y78890
X138244
X133744Y64390
X143744
Y54390
X133744
X123744
Y64390
X220831Y188390
Y198390
Y208390
Y218390
Y228390
Y238390
Y248390
Y258390
Y268390
Y278390
Y288390
Y298390
Y308390
Y318390
X230831
Y308390
Y298390
Y288390
Y278390
Y268390
Y258390
Y248390
Y238390
Y228390
Y218390
Y208390
Y198390
Y188390
X314331Y262890
X324331
X421244Y268736
Y278736
Y288736
X420331Y320390
X410331
X421244Y237736
Y227736
Y217736
X454331Y279390
Y289390
X412244Y380736
Y390736
Y400736
X197744Y397390
Y407390
X187744
Y397390
X177744
Y407390
X167744
Y397390
X157744
Y407390
X27744Y434425
Y442236
X28744Y477736
Y485547
X348744Y519079
Y526890
X375744Y526874
Y519063
X426244Y523236
Y533236
Y513236
T08
X335831Y39390
X345831
X355831
X365831
X375831
X385831
X395831
Y49390
Y59390
Y69390
Y79390
Y89390
Y99390
Y109390
Y119390
X385831
Y129390
Y139390
X395831
Y149390
Y159390
Y169390
Y129390
X335831
Y119390
Y109390
Y99390
Y89390
Y79390
Y69390
Y59390
Y49390
Y139390
Y149390
T09
X485744Y22390
X650508
X225744Y109390
X60390
Y337736
X225744
T10
X362744Y-50264
T11
X676598Y287291
T12
X678173Y89260
T13
X581323Y287291
T14
X579748Y89260
M30
